{"glyphs":{"0":{"ha":810,"x_min":96,"x_max":713,"o":"m 114 265 q 96 453 96 356 q 100 623 96 551 q 116 758 104 694 q 150 874 128 821 q 208 964 172 926 q 425 1044 282 1044 q 713 545 713 1044 q 643 127 713 258 q 387 -14 568 -14 q 114 265 170 -14 m 408 137 q 489 167 458 137 q 534 254 519 197 q 559 566 559 343 q 528 814 559 743 q 406 891 494 891 q 326 872 357 891 q 278 806 295 854 q 248 473 248 724 q 277 228 248 302 q 408 137 314 137 z "},"1":{"ha":810,"x_min":126,"x_max":711,"o":"m 135 136 q 146 149 135 149 l 361 134 l 361 838 l 150 811 q 140 814 142 811 q 136 826 138 818 l 126 911 q 142 930 126 924 l 389 1031 q 413 1038 401 1037 l 514 1029 q 526 1013 526 1027 l 515 868 l 507 135 l 693 149 q 704 136 703 149 l 711 14 q 701 -3 711 -3 l 157 7 q 140 20 142 7 l 135 136 z "},"2":{"ha":810,"x_min":100,"x_max":736,"o":"m 553 791 q 408 904 553 904 q 258 866 332 904 l 267 755 q 264 742 267 746 q 252 737 262 738 l 125 747 q 114 762 115 748 l 100 1013 q 121 1035 101 1029 q 142 1040 127 1037 l 172 1046 q 220 1053 210 1053 q 248 1031 245 1053 l 250 986 q 434 1040 355 1040 q 563 1025 513 1040 q 648 981 613 1010 q 719 800 719 918 q 693 651 719 709 q 635 545 667 592 q 554 439 604 498 q 437 307 505 380 l 278 136 l 585 155 l 584 227 q 592 246 584 239 q 612 253 600 253 l 714 244 q 730 239 725 243 q 736 224 735 235 l 709 -35 q 695 -51 707 -51 l 581 -48 q 566 -31 566 -48 l 574 14 l 132 8 q 120 24 123 8 l 104 142 q 115 162 104 153 l 282 331 q 548 724 526 588 q 553 791 553 758 z "},"3":{"ha":810,"x_min":107,"x_max":748,"o":"m 515 548 q 748 298 748 508 q 651 80 748 164 q 420 -1 558 -1 q 255 19 327 -1 l 260 -22 q 244 -34 260 -33 l 141 -44 q 118 -37 122 -44 q 113 -18 113 -31 l 107 218 q 123 233 107 230 l 216 245 q 230 229 227 245 l 241 136 q 379 119 319 119 q 474 131 439 119 q 534 164 508 142 q 589 298 589 212 q 541 423 589 380 q 448 458 502 458 q 355 446 405 458 q 272 430 281 430 q 251 446 252 430 l 241 544 q 262 566 243 564 q 473 639 399 573 q 536 778 536 695 q 463 897 536 871 q 413 905 439 905 q 256 857 333 905 l 262 775 q 260 763 262 766 q 248 758 258 759 l 127 747 q 117 762 118 747 l 130 1034 q 151 1055 132 1054 l 245 1053 q 271 1031 269 1051 l 264 983 q 482 1042 368 1042 q 639 975 581 1042 q 694 807 694 910 q 594 602 694 682 q 515 548 561 574 z "},"4":{"ha":810,"x_min":54,"x_max":756,"o":"m 756 328 q 740 315 755 315 l 607 313 l 607 128 l 702 126 q 718 113 718 126 l 724 10 q 713 -3 724 -3 l 317 -3 q 304 10 304 -3 l 297 119 q 307 136 297 136 l 456 132 l 460 312 l 123 309 q 87 328 96 309 l 57 397 q 54 412 54 406 q 65 448 54 418 l 189 732 q 332 1044 326 1031 q 343 1060 339 1057 q 357 1063 347 1063 l 503 1029 q 513 1020 513 1027 q 499 981 514 1013 q 458 899 484 949 l 260 530 l 195 416 l 463 425 l 469 652 q 486 667 469 667 l 623 669 q 636 654 636 667 l 610 430 l 740 435 q 751 422 751 435 l 756 328 z "},"5":{"ha":810,"x_min":100,"x_max":732,"o":"m 128 -44 q 100 -18 101 -44 l 108 211 q 124 226 108 224 l 210 231 q 224 216 224 231 l 224 143 q 397 126 307 126 q 535 173 488 126 q 583 316 583 220 q 541 448 583 401 q 444 492 501 492 q 306 483 357 492 q 223 469 233 469 q 200 485 210 469 l 137 575 l 204 1006 q 223 1027 208 1027 l 566 1008 l 566 1039 q 581 1057 566 1055 l 667 1066 q 682 1050 680 1066 l 691 813 q 675 801 690 802 l 579 791 q 551 817 551 791 l 557 882 l 320 882 l 281 590 q 461 623 389 623 q 583 602 532 623 q 667 541 633 581 q 732 319 732 463 q 646 79 732 160 q 425 5 568 5 q 294 14 333 5 q 234 28 255 22 l 240 -22 q 224 -34 240 -33 l 128 -44 z "},"6":{"ha":810,"x_min":84,"x_max":730,"o":"m 420 1050 q 524 1031 471 1050 l 613 1065 q 642 1038 639 1065 l 667 810 q 652 792 667 794 l 532 769 q 517 785 519 769 l 511 932 q 447 937 491 937 q 361 916 402 937 q 297 851 320 895 q 252 591 256 775 q 445 624 345 624 q 719 433 670 624 q 730 315 730 389 q 706 175 730 241 q 639 65 682 109 q 408 -22 554 -22 q 159 109 237 -22 q 84 500 84 235 q 420 1050 84 1050 m 487 492 q 402 498 459 498 q 251 477 345 498 q 286 198 252 276 q 408 116 321 116 q 583 315 583 116 q 487 492 583 473 z "},"7":{"ha":810,"x_min":90,"x_max":753,"o":"m 104 711 q 90 728 92 713 l 96 1046 q 111 1058 96 1058 l 222 1044 q 236 1029 236 1042 l 236 1009 l 732 1027 q 753 1004 751 1027 l 750 916 l 404 7 q 387 -7 398 -6 l 229 6 q 218 19 218 7 q 251 104 218 28 l 612 896 l 237 896 l 237 733 q 221 720 237 720 l 104 711 z "},"8":{"ha":810,"x_min":91,"x_max":726,"o":"m 606 1000 q 672 921 648 969 q 697 815 697 873 q 687 721 697 758 q 656 651 676 684 q 551 530 625 599 q 685 414 646 470 q 726 275 726 354 q 704 143 726 195 q 641 56 682 91 q 412 -14 560 -14 q 189 50 275 -14 q 91 258 91 123 q 186 494 91 394 q 245 551 214 524 q 119 783 119 647 q 203 987 119 911 q 403 1058 282 1058 q 606 1000 527 1058 m 330 494 q 239 292 239 393 q 291 165 239 210 q 422 122 340 122 q 560 202 527 122 q 571 263 571 228 q 559 323 571 298 q 520 372 548 348 q 446 425 492 397 l 330 494 m 273 848 q 259 794 259 823 q 268 743 259 766 q 300 696 277 721 q 468 580 347 648 q 534 660 515 628 q 567 783 567 720 q 524 882 567 843 q 420 920 482 920 q 273 848 311 920 z "},"9":{"ha":810,"x_min":83,"x_max":726,"o":"m 142 -35 q 113 -8 116 -35 l 135 220 q 150 238 137 237 l 243 245 q 258 229 255 245 l 272 95 q 373 87 319 87 q 465 109 427 87 q 524 175 503 130 q 564 447 560 250 q 371 413 474 413 q 94 602 143 413 q 83 722 83 646 q 109 865 83 798 q 180 975 136 932 q 410 1059 268 1059 q 649 934 573 1059 q 726 557 726 810 q 563 12 726 122 q 416 -26 506 -26 q 267 -10 327 -26 l 142 -35 m 331 543 q 412 536 359 536 q 566 561 465 536 l 566 580 q 529 840 566 764 q 391 920 490 920 q 236 728 236 920 q 331 543 236 567 z "},"\u0001":{"ha":0,"x_min":0,"x_max":0,"o":""},"\u0002":{"ha":0,"x_min":0,"x_max":0,"o":""},"\u0003":{"ha":0,"x_min":0,"x_max":0,"o":""},"\u0004":{"ha":0,"x_min":0,"x_max":0,"o":""},"\u0005":{"ha":0,"x_min":0,"x_max":0,"o":""},"\u0006":{"ha":0,"x_min":0,"x_max":0,"o":""},"\u0007":{"ha":0,"x_min":0,"x_max":0,"o":""},"\b":{"ha":0,"x_min":0,"x_max":0,"o":""},"\t":{"ha":0,"x_min":0,"x_max":0,"o":""},"\u0010":{"ha":0,"x_min":0,"x_max":0,"o":""},"\u0011":{"ha":0,"x_min":0,"x_max":0,"o":""},"\u0012":{"ha":0,"x_min":0,"x_max":0,"o":""},"\u0013":{"ha":0,"x_min":0,"x_max":0,"o":""},"\u0014":{"ha":0,"x_min":0,"x_max":0,"o":""},"\u0015":{"ha":0,"x_min":0,"x_max":0,"o":""},"\u0016":{"ha":0,"x_min":0,"x_max":0,"o":""},"\u0017":{"ha":0,"x_min":0,"x_max":0,"o":""},"\u0018":{"ha":0,"x_min":0,"x_max":0,"o":""},"\u0019":{"ha":0,"x_min":0,"x_max":0,"o":""}," ":{"ha":400,"x_min":0,"x_max":0,"o":""},"!":{"ha":347,"x_min":66,"x_max":281,"o":"m 79 1044 q 96 1060 81 1057 l 243 1055 q 258 1037 258 1053 l 229 305 q 216 292 228 292 q 194 293 206 292 l 124 300 q 106 320 108 303 l 79 1044 m 265 130 q 269 121 265 130 q 277 92 273 112 q 281 54 281 71 q 269 21 281 36 q 237 -3 257 7 q 159 -22 197 -22 q 106 -11 121 -22 q 83 19 92 1 q 66 86 66 53 q 81 134 66 119 q 118 157 96 149 q 192 172 155 172 q 243 160 229 172 q 265 130 257 148 z "},"\"":{"ha":694,"x_min":117,"x_max":578,"o":"m 117 1173 q 130 1183 118 1183 l 266 1178 q 276 1174 274 1177 q 279 1162 279 1171 l 248 814 q 232 804 248 804 l 157 811 q 144 822 144 812 l 117 1173 m 415 1173 q 428 1183 416 1183 l 564 1178 q 575 1174 572 1177 q 578 1162 577 1171 l 547 814 q 530 804 547 804 l 455 811 q 442 822 442 812 l 415 1173 z "},"#":{"ha":810,"x_min":59,"x_max":751,"o":"m 741 704 q 751 690 751 703 l 745 585 q 735 575 743 575 l 601 582 l 584 477 l 575 413 l 707 418 q 717 407 717 418 l 706 302 q 694 290 705 290 l 559 294 l 531 73 q 514 61 529 61 l 414 61 q 401 75 401 61 l 437 297 l 358 300 l 313 299 l 282 69 q 265 58 280 58 l 170 61 q 157 75 157 61 l 193 298 l 71 296 q 59 309 59 296 l 69 405 q 86 421 71 420 l 212 414 l 223 484 l 236 586 l 114 582 q 104 595 104 582 l 110 690 q 123 707 111 707 l 251 703 l 278 911 q 294 925 279 925 l 394 920 q 405 916 402 919 q 408 903 407 912 l 374 699 l 408 699 l 496 700 l 522 901 q 538 915 524 915 l 638 916 q 649 912 646 916 q 652 900 651 909 l 620 702 l 741 704 m 328 409 l 380 406 l 456 409 l 468 479 l 481 587 l 396 592 l 355 591 l 338 483 l 328 409 z "},"$":{"ha":925,"x_min":119,"x_max":827,"o":"m 439 -134 q 422 -124 422 -134 l 424 4 q 291 25 357 9 l 298 -30 q 283 -42 298 -42 l 166 -45 q 138 -19 140 -44 l 119 237 q 135 252 119 250 l 268 264 q 282 248 279 264 l 281 139 q 425 123 359 126 l 429 459 q 199 582 264 519 q 130 769 130 651 q 207 954 130 882 q 420 1036 283 1025 l 418 1139 q 432 1156 418 1154 l 521 1161 q 534 1150 532 1161 l 532 1034 q 665 1008 599 1028 q 773 1035 751 1035 q 796 1017 795 1035 l 783 749 q 772 733 781 733 l 658 737 q 646 742 648 738 q 644 755 644 746 l 638 897 q 530 913 572 910 l 524 599 q 768 454 701 529 q 827 281 827 389 q 667 33 827 100 q 532 3 611 9 l 534 -116 q 521 -127 534 -125 l 439 -134 m 641 345 q 525 423 603 389 l 530 127 q 632 171 600 137 q 663 261 663 205 q 641 345 663 317 m 423 911 q 296 790 296 892 q 325 703 296 734 q 429 638 353 671 l 423 911 z "},"%":{"ha":933,"x_min":45,"x_max":888,"o":"m 846 954 q 851 945 851 950 q 848 935 851 940 l 527 500 l 196 26 q 186 20 192 20 q 176 24 181 20 l 115 67 q 109 76 109 71 q 114 88 109 81 l 452 557 l 764 999 q 772 1005 768 1005 q 782 1002 777 1005 l 846 954 m 392 964 q 404 951 392 964 q 428 902 416 939 q 440 822 440 866 q 427 740 440 777 q 388 675 414 702 q 237 618 334 618 q 94 677 145 618 q 45 818 45 732 q 155 1003 45 956 q 244 1019 193 1019 q 332 1005 295 1019 q 392 964 368 990 m 311 892 q 306 899 311 892 q 284 915 300 906 q 244 923 269 923 q 202 913 220 923 q 174 888 184 904 q 156 830 156 861 q 161 780 156 798 q 176 747 165 762 q 242 714 199 714 q 327 782 307 714 q 332 822 332 802 q 327 861 332 843 q 311 892 322 879 m 840 342 q 852 330 840 342 q 876 280 864 317 q 888 200 888 244 q 874 118 888 155 q 836 53 861 80 q 685 -3 781 -3 q 541 56 593 -3 q 493 196 493 111 q 602 381 493 334 q 691 397 640 397 q 779 383 743 397 q 840 342 816 368 m 759 271 q 753 277 759 271 q 732 293 748 284 q 692 301 716 301 q 650 292 667 301 q 622 267 632 282 q 604 208 604 239 q 608 158 604 176 q 624 125 613 140 q 690 92 647 92 q 774 160 754 92 q 780 200 780 180 q 775 239 780 221 q 759 271 770 257 z "},"&":{"ha":919,"x_min":53,"x_max":977,"o":"m 650 124 q 335 -16 516 -16 q 139 43 217 -16 q 53 228 53 110 q 184 468 53 371 q 278 529 226 499 q 193 647 214 604 q 156 787 156 720 q 178 901 156 853 q 238 981 199 948 q 444 1045 316 1045 q 639 987 564 1045 q 721 809 721 925 q 665 651 721 716 q 481 524 612 591 l 633 358 l 809 174 l 855 242 q 865 248 860 248 q 876 244 870 248 l 972 155 q 977 146 977 151 q 974 139 977 142 l 761 -86 q 753 -90 757 -90 q 744 -85 749 -90 l 662 -12 q 654 -1 654 -5 q 657 6 654 3 l 715 63 l 650 124 m 345 450 q 214 256 214 360 q 259 153 214 190 q 362 120 300 120 q 568 207 481 120 l 451 331 l 345 450 m 323 848 q 311 796 311 824 q 315 749 311 768 q 330 709 319 730 q 415 597 351 670 q 568 741 544 668 q 577 792 577 765 q 569 843 577 820 q 545 884 561 867 q 450 920 511 920 q 323 848 356 920 z "},"'":{"ha":347,"x_min":92,"x_max":255,"o":"m 92 1173 q 105 1183 94 1183 l 241 1178 q 252 1174 250 1177 q 255 1162 254 1171 l 224 814 q 208 804 224 804 l 132 811 q 119 822 119 812 l 92 1173 z "},"(":{"ha":463,"x_min":104,"x_max":420,"o":"m 257 148 q 265 107 257 148 q 294 33 273 65 q 344 1 315 1 q 389 4 373 1 q 401 -12 401 4 l 395 -115 q 380 -127 394 -126 q 325 -131 345 -131 q 148 27 199 -131 q 104 470 104 165 q 156 938 104 789 q 359 1105 216 1105 q 410 1101 407 1105 q 414 1090 413 1097 l 420 984 q 411 971 420 971 q 384 972 403 972 q 309 944 337 972 q 266 857 281 916 q 241 487 241 761 q 257 148 241 231 z "},")":{"ha":463,"x_min":43,"x_max":359,"o":"m 206 826 q 198 868 206 826 q 169 941 190 909 q 119 972 148 972 q 74 970 90 972 q 62 986 62 970 l 68 1088 q 83 1101 69 1100 q 138 1105 119 1105 q 315 947 264 1105 q 359 504 359 809 q 307 36 359 184 q 104 -131 248 -131 q 53 -127 56 -131 q 50 -116 50 -123 l 43 -10 q 52 3 43 3 q 79 1 60 1 q 154 30 126 1 q 197 117 182 58 q 222 487 222 213 q 206 826 222 744 z "},"*":{"ha":692,"x_min":63,"x_max":658,"o":"m 658 811 q 644 793 658 793 l 414 810 l 513 618 q 517 604 517 610 q 507 594 517 598 l 409 549 q 401 547 406 547 q 389 559 391 547 l 330 774 l 174 615 q 162 608 168 608 q 151 615 156 608 l 85 699 q 81 712 81 706 q 87 722 81 718 l 275 843 l 72 947 q 63 958 63 951 q 67 970 63 964 l 130 1057 q 141 1064 135 1064 q 153 1059 148 1064 l 321 920 l 356 1146 q 376 1158 358 1158 l 470 1122 q 481 1108 481 1118 q 479 1101 481 1106 l 406 900 l 613 937 q 628 935 625 937 q 634 923 632 932 l 658 811 z "},"+":{"ha":810,"x_min":112,"x_max":698,"o":"m 112 450 q 123 463 113 463 l 341 465 l 336 694 q 349 709 336 708 l 458 703 q 471 687 471 702 l 465 467 l 686 469 q 698 456 698 468 l 696 347 q 692 337 696 339 q 680 334 688 334 l 463 340 l 467 94 q 451 83 467 84 l 349 87 q 336 98 336 89 l 341 340 l 128 331 q 119 347 120 331 l 112 450 z "},",":{"ha":340,"x_min":71,"x_max":277,"o":"m 86 -191 q 125 -65 125 -104 q 116 -6 125 -25 q 96 26 107 12 q 71 74 71 56 q 83 108 71 92 q 113 138 95 124 q 185 170 155 170 q 233 157 216 170 q 259 123 250 144 q 277 43 277 87 q 268 -36 277 -1 q 244 -102 259 -71 q 172 -212 217 -161 l 86 -191 z "},"-":{"ha":810,"x_min":120,"x_max":689,"o":"m 678 524 q 689 511 689 522 l 677 408 q 672 398 675 400 q 661 395 669 395 l 130 392 q 120 408 120 392 l 127 504 q 138 517 128 517 l 678 524 z "},".":{"ha":347,"x_min":71,"x_max":286,"o":"m 270 130 q 274 121 270 130 q 282 92 278 112 q 286 54 286 71 q 274 21 286 36 q 242 -3 262 7 q 163 -22 201 -22 q 111 -11 125 -22 q 88 19 97 1 q 71 86 71 53 q 86 134 71 119 q 123 157 101 149 q 197 172 160 172 q 248 160 234 172 q 270 130 262 148 z "},"/":{"ha":463,"x_min":0,"x_max":456,"o":"m 446 1156 q 456 1144 456 1152 q 455 1137 456 1142 l 115 -299 q 103 -309 113 -309 q 96 -308 99 -309 l 11 -287 q 0 -273 0 -284 q 1 -268 0 -269 l 337 1166 q 351 1178 339 1178 q 355 1177 353 1178 l 446 1156 z "},":":{"ha":347,"x_min":71,"x_max":286,"o":"m 270 130 q 274 121 270 130 q 282 92 278 112 q 286 54 286 71 q 274 21 286 36 q 242 -3 262 7 q 163 -22 201 -22 q 111 -11 125 -22 q 88 19 97 1 q 71 86 71 53 q 86 134 71 119 q 123 157 101 149 q 197 172 160 172 q 248 160 234 172 q 270 130 262 148 m 270 650 q 274 641 270 650 q 282 612 278 632 q 286 574 286 591 q 274 542 286 556 q 242 517 262 527 q 163 498 201 498 q 111 510 125 498 q 88 539 97 522 q 71 606 71 573 q 86 654 71 639 q 123 677 101 669 q 197 692 160 692 q 248 680 234 692 q 270 650 262 668 z "},";":{"ha":347,"x_min":71,"x_max":292,"o":"m 101 -191 q 140 -65 140 -104 q 131 -6 140 -25 q 111 26 122 12 q 85 74 85 56 q 98 108 85 92 q 127 138 110 124 q 200 170 170 170 q 248 157 231 170 q 274 123 264 144 q 292 43 292 87 q 283 -36 292 -1 q 259 -102 274 -71 q 187 -212 232 -161 l 101 -191 m 270 650 q 274 641 270 650 q 282 612 278 632 q 286 574 286 591 q 274 542 286 556 q 242 517 262 527 q 163 498 201 498 q 111 510 125 498 q 88 539 97 522 q 71 606 71 573 q 86 654 71 639 q 123 677 101 669 q 197 692 160 692 q 248 680 234 692 q 270 650 262 668 z "},"<":{"ha":810,"x_min":146,"x_max":663,"o":"m 169 332 q 152 356 153 342 l 146 421 q 158 442 148 436 l 574 694 q 584 699 579 699 q 598 693 594 699 l 658 600 q 662 590 662 594 q 658 583 662 586 l 294 391 l 659 206 q 663 199 663 203 q 659 187 663 194 l 602 91 q 594 86 599 86 q 585 90 590 86 l 169 332 z "},"=":{"ha":810,"x_min":123,"x_max":686,"o":"m 675 578 q 686 565 684 578 l 686 469 q 674 453 686 453 l 404 461 l 145 456 q 133 459 136 456 q 129 469 130 461 l 123 572 q 136 585 123 585 l 675 578 m 134 189 q 123 201 125 189 l 123 297 q 136 313 123 313 l 416 305 l 664 311 q 676 308 673 310 q 680 297 680 305 l 686 195 q 675 182 686 183 l 134 189 z "},">":{"ha":810,"x_min":147,"x_max":663,"o":"m 641 452 q 658 428 656 442 l 663 363 q 652 342 662 348 l 236 90 q 226 85 231 85 q 212 91 216 85 l 152 184 q 148 194 148 190 q 152 201 148 198 l 516 393 l 151 578 q 147 585 147 581 q 151 597 147 589 l 208 693 q 215 698 211 698 q 225 694 220 698 l 641 452 z "},"?":{"ha":694,"x_min":47,"x_max":660,"o":"m 58 740 q 47 755 49 740 l 61 1020 q 81 1042 63 1042 l 182 1039 q 208 1017 206 1038 l 207 977 q 423 1034 315 1034 q 644 909 597 1034 q 660 817 660 867 q 648 725 660 766 q 615 643 635 683 q 570 566 595 604 l 442 388 q 395 306 407 336 q 380 272 383 276 q 370 269 377 269 l 264 284 q 255 294 255 285 q 262 331 255 304 q 358 509 278 393 l 410 586 q 501 799 501 723 q 433 890 501 867 q 385 897 412 897 q 334 894 358 897 q 288 884 310 890 q 203 848 254 875 l 200 762 q 198 749 199 753 q 186 744 196 745 l 58 740 m 422 130 q 427 121 422 130 q 434 92 431 112 q 438 54 438 71 q 426 21 438 36 q 395 -3 414 7 q 316 -22 354 -22 q 264 -11 278 -22 q 241 19 250 1 q 224 86 224 53 q 239 134 224 119 q 275 157 254 149 q 350 172 313 172 q 400 160 387 172 q 422 130 414 148 z "},"@":{"ha":1385,"x_min":94,"x_max":1291,"o":"m 848 95 q 635 -18 769 -18 q 416 170 464 -18 q 401 326 401 231 q 419 510 401 421 q 475 659 438 598 q 690 783 549 783 q 845 727 783 783 q 840 796 844 769 q 857 810 840 810 l 972 789 q 984 774 984 787 q 964 569 971 648 l 952 441 q 938 205 938 279 q 960 147 938 168 q 1014 127 982 127 q 1075 156 1046 127 q 1124 240 1103 185 q 1171 553 1171 358 q 746 947 1171 947 q 349 788 479 947 q 220 303 220 628 q 332 -66 220 47 q 690 -176 441 -176 q 1204 -56 940 -176 q 1216 -58 1213 -56 q 1220 -68 1219 -60 l 1241 -190 q 1227 -209 1241 -203 q 817 -310 1013 -290 q 636 -317 741 -317 q 428 -283 531 -317 q 250 -174 324 -248 q 94 297 94 -18 q 263 871 94 666 q 755 1082 436 1082 q 1253 794 1143 1082 q 1291 563 1291 697 q 1272 323 1291 429 q 1217 144 1253 217 q 1005 -3 1142 -3 q 848 95 900 -3 m 556 192 q 563 174 556 192 q 592 142 571 157 q 650 127 614 127 q 714 144 687 127 q 761 189 742 161 q 792 253 781 217 q 811 326 804 288 q 823 452 823 389 q 815 550 823 516 q 791 605 807 584 q 707 644 761 644 q 624 622 654 644 q 576 559 595 600 q 541 319 541 480 q 556 192 541 226 z "},"A":{"ha":926,"x_min":23,"x_max":935,"o":"m 38 1 q 23 23 23 3 l 23 136 q 27 151 23 147 q 43 156 32 155 l 106 153 l 374 1024 q 391 1038 378 1037 l 545 1044 q 562 1028 557 1043 l 854 158 l 916 160 q 935 138 935 159 l 935 31 q 930 16 935 20 q 914 13 926 13 l 600 13 q 586 18 588 13 q 584 33 584 24 l 597 132 q 603 148 599 144 q 618 151 607 151 l 695 153 l 637 334 l 301 340 l 246 144 l 328 152 q 339 149 336 152 q 344 136 342 145 l 354 33 q 348 18 353 22 q 334 13 344 14 l 38 1 m 333 456 l 597 456 l 454 892 l 333 456 z "},"B":{"ha":926,"x_min":80,"x_max":860,"o":"m 646 539 q 860 294 860 495 q 632 5 860 54 q 487 -10 557 -10 q 364 -8 416 -10 q 262 -1 312 -5 q 84 26 93 12 q 80 39 81 31 l 86 139 q 108 158 87 158 q 189 150 128 158 l 189 895 q 111 892 134 892 q 86 911 87 892 l 80 1006 q 96 1027 81 1024 q 437 1055 253 1055 q 799 770 799 1055 q 711 571 799 631 q 646 539 682 551 m 340 132 q 454 129 401 129 q 555 135 507 129 q 637 157 603 140 q 711 292 711 194 q 566 448 711 429 q 463 453 523 453 q 340 447 403 453 l 340 132 m 523 910 q 443 916 486 916 q 340 910 400 916 l 340 580 q 380 578 360 578 l 420 578 q 585 613 531 578 q 648 753 648 653 q 523 910 648 890 z "},"C":{"ha":926,"x_min":88,"x_max":842,"o":"m 795 1038 q 824 1011 823 1038 l 816 715 q 801 698 816 698 l 687 695 q 673 711 674 695 l 659 885 q 506 905 576 905 q 388 885 436 905 q 309 818 340 864 q 248 519 248 728 q 401 140 248 202 q 524 119 452 119 q 675 145 595 119 l 672 236 q 688 251 673 248 l 801 270 q 815 254 812 270 l 842 -10 q 827 -22 842 -21 l 710 -33 q 682 -6 683 -33 l 680 22 q 481 -28 586 -28 q 305 8 376 -28 q 185 114 233 44 q 88 526 88 256 q 197 925 88 795 q 479 1044 296 1044 q 673 1019 595 1044 l 795 1038 z "},"D":{"ha":926,"x_min":50,"x_max":854,"o":"m 167 890 q 71 882 125 888 q 62 886 64 882 q 59 897 60 889 l 50 1023 q 54 1034 50 1031 q 66 1038 58 1036 q 183 1040 133 1039 q 270 1042 233 1042 q 333 1043 307 1043 q 378 1044 359 1044 q 412 1044 397 1044 l 441 1044 q 741 939 643 1044 q 854 533 854 817 q 739 122 854 265 q 437 -13 630 -13 q 68 4 235 -13 q 56 20 57 5 l 64 140 q 75 153 66 151 l 149 148 l 167 890 m 307 139 q 390 135 364 135 l 433 135 q 636 231 571 135 q 701 516 701 326 q 549 888 701 831 q 461 906 500 906 q 315 901 393 906 l 307 139 z "},"E":{"ha":926,"x_min":79,"x_max":863,"o":"m 863 -28 q 848 -43 860 -43 l 721 -41 q 706 -23 706 -41 l 705 18 l 99 1 q 83 18 83 1 l 87 142 q 98 155 87 153 l 182 144 l 177 882 l 92 875 q 79 890 79 875 l 87 1013 q 103 1027 88 1026 l 781 1053 q 801 1035 801 1052 l 787 787 q 777 772 787 772 l 663 776 q 651 781 653 777 q 648 793 649 785 l 644 910 l 323 893 l 328 577 l 661 598 q 680 583 678 598 l 684 469 q 670 453 683 453 l 330 448 l 334 138 l 701 151 l 698 239 q 726 266 699 264 l 836 262 q 852 250 852 261 l 863 -28 z "},"F":{"ha":810,"x_min":72,"x_max":763,"o":"m 83 889 q 73 902 74 891 l 82 1027 q 94 1043 83 1043 l 591 1031 l 590 1067 q 605 1085 590 1083 l 712 1095 q 726 1079 724 1095 l 763 794 q 747 782 763 783 l 624 772 q 595 798 597 772 l 593 892 l 327 899 l 322 576 l 672 578 q 684 565 684 578 l 680 455 q 661 439 678 439 l 320 448 l 316 144 l 491 155 q 507 140 505 155 l 514 20 q 511 8 513 12 q 502 5 509 5 l 96 -3 q 84 0 87 -2 q 79 11 80 3 l 72 134 q 84 149 72 148 l 170 145 l 175 897 l 83 889 z "},"G":{"ha":926,"x_min":65,"x_max":856,"o":"m 494 404 q 479 418 479 407 l 481 539 q 499 554 481 553 l 829 576 q 856 547 854 574 l 852 431 q 848 419 852 423 q 840 415 844 415 l 805 414 l 817 10 q 800 -9 816 -9 q 671 38 762 -9 q 474 -15 580 -15 q 293 17 368 -15 q 168 115 218 48 q 65 536 65 251 q 289 1017 65 933 q 448 1044 360 1044 q 655 979 574 1044 l 669 1061 q 684 1078 671 1078 l 790 1088 q 806 1072 806 1088 l 814 824 q 800 809 814 811 l 671 791 q 598 866 630 846 q 481 901 541 901 q 371 884 420 901 q 286 825 321 867 q 212 533 212 737 q 377 149 212 204 q 505 131 429 131 q 663 161 580 131 l 659 409 l 494 404 z "},"H":{"ha":1043,"x_min":85,"x_max":977,"o":"m 450 163 q 461 150 461 163 l 452 22 q 436 9 451 9 l 121 4 q 109 20 110 4 l 111 140 q 121 153 111 151 l 194 151 l 194 884 l 104 884 q 94 887 96 884 q 92 899 92 890 l 85 1018 q 90 1028 86 1026 q 102 1032 94 1031 l 440 1027 q 452 1011 452 1025 l 450 892 q 434 877 450 877 l 345 882 l 345 582 l 712 587 l 712 897 l 619 899 q 610 903 612 899 q 607 914 608 906 l 611 1027 q 627 1041 612 1041 l 944 1042 q 954 1039 951 1042 q 956 1027 956 1036 l 965 905 q 949 890 965 890 l 863 892 l 861 139 l 966 142 q 977 130 977 142 l 968 9 q 951 -5 966 -5 l 630 4 q 618 20 618 4 l 619 134 q 630 146 619 144 l 712 140 l 712 450 l 344 447 l 343 155 l 450 163 z "},"I":{"ha":463,"x_min":52,"x_max":408,"o":"m 397 142 q 408 130 408 142 l 406 9 q 389 -5 406 -5 l 75 4 q 62 20 63 4 l 57 140 q 68 153 58 151 l 162 146 l 157 885 l 64 886 q 52 901 52 886 l 62 1020 q 67 1030 63 1028 q 79 1034 71 1033 l 395 1022 q 405 1018 403 1021 q 408 1006 407 1015 l 403 899 q 387 884 401 884 l 308 884 l 306 142 l 397 142 z "},"J":{"ha":578,"x_min":26,"x_max":571,"o":"m 460 892 q 490 242 490 563 q 429 7 490 75 q 232 -60 371 -60 q 210 -59 220 -60 l 187 -56 l 193 -93 q 177 -105 193 -104 l 73 -115 q 45 -89 47 -115 l 26 208 q 41 225 27 223 l 135 235 q 149 219 146 235 l 170 64 q 217 59 189 59 q 272 71 246 59 q 313 110 298 83 q 343 282 343 161 q 331 623 343 450 l 312 888 l 172 880 q 161 893 161 880 l 156 1021 q 160 1031 157 1029 q 172 1034 163 1034 l 553 1046 q 566 1029 564 1046 l 571 903 q 560 890 570 892 l 460 892 z "},"K":{"ha":926,"x_min":56,"x_max":916,"o":"m 579 892 q 567 907 567 892 l 578 1034 q 594 1048 578 1045 l 877 1042 q 889 1027 889 1041 l 891 905 q 876 890 891 890 l 800 891 l 522 496 l 776 151 l 892 142 q 915 119 915 141 l 916 20 q 890 -11 916 -9 l 713 -16 q 689 -2 698 -14 l 408 427 l 326 425 l 326 149 l 397 149 q 408 136 408 149 l 412 9 q 396 -5 411 -5 l 81 -3 q 69 14 70 -3 l 64 147 q 75 160 65 158 l 174 154 l 174 895 l 77 886 q 68 889 70 886 q 65 901 66 892 l 56 1034 q 72 1048 57 1048 l 395 1049 q 405 1045 403 1048 q 408 1034 407 1042 l 396 905 q 380 890 394 890 l 326 894 l 326 541 l 412 547 l 642 892 l 579 892 z "},"L":{"ha":810,"x_min":56,"x_max":779,"o":"m 657 -29 q 643 -14 646 -29 l 640 19 l 68 -5 q 56 12 56 -5 l 66 130 q 77 142 68 140 l 171 138 l 177 884 l 85 876 q 75 879 77 876 q 73 890 73 882 l 66 1013 q 83 1028 67 1028 l 412 1034 q 427 1018 425 1032 l 439 899 q 435 887 439 889 q 424 884 431 884 l 325 887 l 323 142 l 625 157 l 613 276 q 629 290 613 289 l 739 300 q 767 274 766 300 l 779 5 q 764 -13 778 -11 l 657 -29 z "},"M":{"ha":1270,"x_min":60,"x_max":1220,"o":"m 928 2 q 912 16 913 2 l 917 130 q 928 142 918 142 l 975 142 l 934 907 l 718 7 q 701 -7 715 -7 l 557 -9 q 542 6 545 -9 l 317 876 l 298 146 l 360 149 q 371 136 369 149 l 382 16 q 366 2 381 2 l 72 -3 q 60 14 60 -3 l 68 140 q 79 153 69 151 l 168 145 l 208 878 l 124 870 q 110 885 111 870 l 104 1011 q 120 1025 105 1024 l 398 1040 q 423 1021 418 1040 l 639 161 l 853 1015 q 878 1034 857 1034 l 1145 1032 q 1157 1028 1153 1031 q 1161 1018 1160 1026 l 1168 885 q 1165 873 1167 877 q 1156 870 1164 870 l 1073 871 l 1119 144 l 1209 146 q 1220 134 1219 144 l 1208 20 q 1196 4 1205 4 l 928 2 z "},"N":{"ha":1042,"x_min":57,"x_max":998,"o":"m 998 899 q 983 884 998 884 l 897 886 l 895 26 q 879 7 895 8 l 715 -2 q 699 13 706 -2 l 300 898 l 316 156 l 422 163 q 433 150 432 163 l 445 16 q 429 2 444 2 l 100 4 q 88 20 91 4 l 76 134 q 87 146 77 146 l 193 149 l 193 882 l 69 877 q 60 881 62 878 q 57 892 58 884 l 64 1011 q 81 1025 66 1024 l 379 1040 q 404 1021 397 1039 l 789 157 l 771 889 l 666 892 q 656 896 659 892 q 654 907 654 899 l 658 1020 q 674 1034 659 1034 l 977 1036 q 987 1032 985 1035 q 989 1020 989 1029 l 998 899 z "},"O":{"ha":926,"x_min":71,"x_max":854,"o":"m 854 509 q 474 -7 854 -7 q 173 124 275 -7 q 71 509 71 254 q 286 1009 71 902 q 455 1044 358 1044 q 626 1015 551 1044 q 751 920 700 985 q 854 509 854 789 m 701 518 q 685 698 701 623 q 637 815 669 772 q 560 874 606 858 q 453 890 515 890 q 347 867 391 890 q 274 797 302 844 q 223 512 223 709 q 287 225 223 311 q 479 147 346 147 q 652 233 600 147 q 701 518 701 316 z "},"P":{"ha":926,"x_min":80,"x_max":881,"o":"m 500 148 q 511 135 511 148 l 502 22 q 486 9 500 9 l 96 4 q 84 20 84 4 l 85 139 q 96 152 85 149 l 203 141 l 203 901 l 97 892 q 85 897 90 892 q 80 911 80 903 l 87 1006 q 106 1027 89 1024 q 153 1034 124 1030 q 215 1041 182 1038 q 286 1046 249 1044 q 359 1051 323 1049 q 514 1055 439 1055 q 662 1036 589 1055 q 784 979 735 1018 q 881 731 881 901 q 655 442 881 490 q 507 427 587 427 q 348 434 427 427 l 348 139 l 500 148 m 348 557 q 477 551 414 551 q 583 558 540 551 q 657 586 626 566 q 723 732 723 628 q 518 918 723 918 q 348 912 441 918 l 348 557 z "},"Q":{"ha":926,"x_min":75,"x_max":852,"o":"m 392 -20 q 154 139 234 6 q 75 531 75 273 q 165 927 75 790 q 449 1065 255 1065 q 747 937 648 1065 q 852 531 852 802 q 770 123 852 260 q 511 -26 688 -13 q 565 -93 531 -75 q 637 -111 600 -111 q 744 -101 697 -111 q 801 -92 791 -92 q 812 -104 810 -92 l 819 -217 q 815 -228 818 -225 q 788 -236 812 -230 q 636 -258 705 -258 q 527 -242 566 -258 q 463 -195 488 -226 q 392 -20 419 -145 m 653 211 q 666 235 653 211 q 691 335 680 260 q 702 520 702 410 q 684 708 702 630 q 634 831 667 786 q 450 911 576 911 q 271 818 323 911 q 222 519 222 730 q 368 133 222 198 q 479 111 416 111 q 585 136 543 111 q 653 211 627 161 z "},"R":{"ha":926,"x_min":47,"x_max":920,"o":"m 422 9 q 406 -5 420 -5 l 64 -3 q 52 14 52 -3 l 66 147 q 77 160 68 158 l 163 154 l 163 886 q 93 882 113 882 q 67 887 73 882 q 61 901 62 892 l 47 1013 q 64 1034 49 1031 q 466 1055 267 1055 q 811 878 743 1055 q 835 743 835 817 q 818 619 835 669 q 769 533 800 569 q 599 440 707 461 l 777 159 l 897 170 q 919 146 919 168 l 920 40 q 895 3 920 4 l 702 -2 q 681 12 688 -2 l 452 433 q 313 440 374 434 l 315 149 l 406 149 q 417 136 417 149 l 422 9 m 492 912 q 309 899 437 912 l 311 562 q 434 558 370 558 q 539 567 498 558 q 612 597 581 576 q 677 733 677 641 q 631 869 677 826 q 492 912 585 912 z "},"S":{"ha":811,"x_min":64,"x_max":768,"o":"m 595 22 q 452 3 538 3 q 245 24 365 3 l 250 -30 q 235 -42 250 -42 l 118 -45 q 90 -19 92 -44 l 64 243 q 80 258 64 257 l 213 271 q 227 255 226 271 l 236 145 q 431 135 334 135 q 566 168 528 135 q 605 267 605 201 q 559 365 605 327 q 498 405 536 385 l 312 495 q 177 570 214 542 q 121 625 140 598 q 81 754 81 680 q 104 881 81 829 q 170 972 127 934 q 393 1053 258 1053 q 602 1022 490 1053 q 711 1048 689 1048 q 734 1030 733 1048 l 721 749 q 710 733 720 733 l 596 737 q 585 742 587 738 q 582 755 583 746 l 576 904 q 442 923 496 923 q 258 848 307 923 q 241 784 241 821 q 258 722 241 747 q 309 676 276 698 q 391 633 342 655 l 502 583 q 711 453 659 510 q 768 280 768 391 q 595 22 768 80 z "},"T":{"ha":926,"x_min":62,"x_max":869,"o":"m 77 711 q 62 728 65 713 l 68 1046 q 84 1058 68 1058 l 195 1044 q 209 1029 209 1044 l 209 1011 l 729 1017 l 854 1030 q 869 1015 869 1030 l 848 715 q 836 704 847 704 l 720 709 q 709 714 711 711 q 706 726 707 717 l 708 893 l 533 890 l 545 153 l 675 160 q 686 147 686 157 l 688 27 q 675 11 686 11 l 273 2 q 256 16 258 2 l 261 150 q 272 163 261 163 l 393 155 l 380 886 l 210 877 l 210 733 q 194 720 210 720 l 77 711 z "},"U":{"ha":1043,"x_min":52,"x_max":970,"o":"m 960 136 q 970 123 970 136 l 962 2 q 945 -12 960 -12 l 713 -16 q 697 0 697 -16 l 698 154 q 566 46 640 85 q 421 8 493 8 q 300 32 350 8 q 217 100 251 55 q 149 365 149 192 q 159 684 149 548 l 175 886 l 64 877 q 55 880 56 877 q 52 892 53 883 l 59 1018 q 75 1032 60 1031 l 368 1042 q 380 1027 380 1041 l 371 907 q 355 892 369 892 l 323 892 q 316 777 319 828 l 311 686 q 303 422 303 553 q 455 167 303 167 q 647 227 551 167 q 699 264 676 244 l 703 868 l 630 865 q 621 880 621 865 l 625 1006 q 641 1021 626 1021 l 945 1029 q 957 1013 957 1027 l 959 892 q 943 877 959 877 l 848 873 l 848 125 l 960 136 z "},"V":{"ha":925,"x_min":24,"x_max":913,"o":"m 898 1037 q 913 1015 913 1037 l 906 909 q 901 894 905 898 q 886 889 897 890 l 829 892 l 549 14 q 533 0 545 1 l 406 -5 q 389 10 394 -5 l 87 875 l 43 871 q 24 893 24 871 l 31 1007 q 36 1022 31 1019 q 52 1025 41 1025 l 353 1032 q 369 1012 368 1030 l 376 899 q 370 884 374 888 q 355 880 366 880 l 256 881 l 475 170 l 680 895 l 594 893 q 583 897 586 893 q 578 909 580 900 l 582 1019 q 602 1039 583 1038 l 898 1037 z "},"W":{"ha":1274,"x_min":37,"x_max":1259,"o":"m 56 878 q 37 900 37 878 l 44 1014 q 49 1028 45 1025 q 65 1032 54 1031 l 379 1046 q 393 1040 391 1045 q 395 1025 395 1035 l 402 913 q 397 898 401 901 q 382 894 393 894 l 273 895 l 426 219 l 589 1011 q 605 1025 591 1025 l 707 1033 q 724 1017 722 1031 l 903 216 l 1038 897 l 933 900 q 922 903 925 900 q 918 916 919 907 l 921 1025 q 941 1046 922 1044 l 1244 1037 q 1259 1015 1259 1036 l 1252 909 q 1247 894 1251 898 q 1232 889 1243 890 l 1166 892 l 955 14 q 939 0 952 1 l 832 -5 q 815 10 818 -4 l 648 732 l 490 14 q 473 0 487 1 l 360 -5 q 343 10 348 -5 l 120 884 l 56 878 z "},"X":{"ha":926,"x_min":56,"x_max":905,"o":"m 70 3 q 56 18 56 3 l 62 144 q 78 158 64 158 l 153 146 l 425 517 l 180 892 l 92 884 q 77 900 77 884 l 77 1021 q 93 1035 77 1035 l 426 1042 q 437 1039 435 1042 q 438 1027 438 1035 l 441 905 q 437 894 440 897 q 427 891 435 891 l 365 895 l 492 635 l 625 887 l 578 890 q 566 901 567 890 l 559 1020 q 574 1035 561 1034 l 870 1035 q 881 1019 880 1034 l 874 888 q 859 873 873 873 l 778 878 l 546 536 l 804 149 l 895 151 q 905 134 905 151 l 892 22 q 888 12 891 14 q 877 9 886 9 l 574 5 q 561 17 562 6 l 553 132 q 568 146 554 146 l 623 146 l 480 431 l 313 146 l 383 151 q 394 135 394 151 l 393 16 q 388 5 391 7 q 378 2 385 3 l 70 3 z "},"Y":{"ha":926,"x_min":19,"x_max":912,"o":"m 652 146 q 665 131 665 146 l 654 12 q 649 1 653 3 q 637 -3 646 -1 l 277 7 q 267 11 269 7 q 264 23 265 14 l 269 138 q 285 153 271 153 l 391 151 l 393 379 l 103 886 l 45 882 q 26 904 26 882 l 19 1019 q 24 1034 19 1031 q 40 1038 28 1038 l 368 1038 q 382 1032 380 1038 q 384 1017 384 1027 l 377 905 q 372 890 376 894 q 357 886 368 887 l 282 889 l 484 483 l 680 884 l 593 882 q 582 885 585 882 q 578 897 579 888 l 568 1010 q 588 1031 569 1031 l 897 1036 q 912 1014 912 1034 l 905 904 q 901 889 905 893 q 885 884 897 884 l 826 884 l 545 378 l 540 148 l 652 146 z "},"Z":{"ha":811,"x_min":83,"x_max":776,"o":"m 636 -63 q 620 -44 621 -62 l 622 8 l 135 16 q 94 52 98 17 l 83 157 l 593 910 l 248 899 l 235 748 q 218 733 233 733 l 105 731 q 92 746 93 733 l 100 1017 q 104 1030 101 1026 q 115 1035 106 1034 l 242 1019 l 717 1046 q 747 1014 742 1046 l 764 880 l 259 140 l 627 132 l 630 228 q 644 245 631 245 l 765 243 q 776 227 776 243 l 768 -41 q 754 -55 768 -54 l 636 -63 z "},"[":{"ha":463,"x_min":117,"x_max":408,"o":"m 130 -132 q 117 -121 117 -130 l 131 1093 q 144 1103 131 1103 l 397 1109 q 408 1097 407 1109 l 401 984 q 389 971 401 971 l 261 979 l 267 570 l 248 1 l 392 14 q 401 -2 401 14 l 388 -104 q 374 -117 386 -116 l 130 -132 z "},"\\":{"ha":463,"x_min":6,"x_max":463,"o":"m 107 1177 q 112 1178 109 1178 q 125 1166 123 1178 l 462 -268 q 463 -273 463 -269 q 452 -287 463 -284 l 366 -308 q 359 -309 363 -309 q 347 -299 349 -309 l 7 1137 q 6 1144 6 1142 q 16 1156 6 1152 l 107 1177 z "},"]":{"ha":463,"x_min":54,"x_max":345,"o":"m 332 1109 q 345 1099 345 1108 l 332 -115 q 319 -125 332 -125 l 65 -132 q 54 -119 56 -132 l 61 -6 q 74 7 62 7 l 201 -1 l 196 408 l 214 977 l 71 964 q 61 980 61 964 l 75 1082 q 89 1095 77 1094 l 332 1109 z "},"^":{"ha":810,"x_min":41,"x_max":768,"o":"m 346 956 q 370 973 352 970 l 435 965 q 456 954 452 962 l 766 286 q 768 272 768 280 q 763 262 768 264 l 650 230 q 639 227 644 227 q 631 234 634 227 l 401 806 l 176 233 q 167 227 174 227 q 154 230 161 227 l 46 273 q 41 279 41 275 q 45 290 41 283 l 346 956 z "},"_":{"ha":1125,"x_min":-27,"x_max":1145,"o":"m -16 -241 q -27 -228 -27 -241 l -22 -133 q -5 -119 -20 -119 l 1136 -119 q 1145 -136 1145 -119 l 1139 -228 q 1128 -241 1137 -241 l -16 -241 z "},"`":{"ha":610,"x_min":78,"x_max":464,"o":"m 172 1220 q 186 1227 178 1227 q 201 1220 195 1227 l 460 935 q 464 925 464 930 q 458 912 464 919 l 413 866 q 404 862 409 862 q 397 865 399 862 l 83 1095 q 78 1107 78 1100 q 81 1118 78 1114 l 172 1220 z "},"a":{"ha":811,"x_min":71,"x_max":783,"o":"m 490 781 q 690 531 690 781 q 688 378 690 472 l 683 245 q 680 170 682 205 l 677 105 l 718 109 q 768 113 740 110 q 783 100 783 113 l 770 -7 q 755 -21 768 -20 l 559 -33 q 550 -18 550 -33 l 559 61 q 313 -26 446 -26 q 142 34 210 -26 q 71 205 71 98 q 168 403 71 346 q 450 453 254 453 q 536 451 490 453 q 537 484 537 469 l 537 509 q 421 642 537 642 q 272 605 361 642 l 275 579 q 276 559 276 566 q 261 544 276 544 l 146 542 q 133 557 134 544 l 121 751 q 136 769 121 767 l 250 784 q 264 769 264 784 l 264 713 q 490 781 385 781 m 361 102 q 532 146 439 102 q 534 245 534 191 q 536 352 534 299 q 288 321 357 352 q 224 227 224 293 q 361 102 224 102 z "},"b":{"ha":810,"x_min":2,"x_max":732,"o":"m 257 1082 q 269 1066 269 1082 l 258 739 l 298 753 q 454 781 381 781 q 582 756 527 781 q 671 682 637 732 q 732 389 732 593 q 664 90 732 186 q 454 -6 595 -6 q 265 26 353 -6 q 145 -13 182 -13 q 123 13 123 -13 l 123 928 l 24 934 q 10 947 11 935 l 2 1052 q 18 1065 5 1064 l 257 1082 m 555 579 q 505 621 536 608 q 409 634 474 634 q 256 607 345 634 l 264 148 q 404 130 347 130 q 494 142 462 130 q 547 183 526 154 q 586 385 586 239 q 555 579 586 528 z "},"c":{"ha":694,"x_min":64,"x_max":625,"o":"m 149 715 q 163 730 149 715 q 222 764 178 746 q 330 782 266 782 q 473 762 394 782 l 600 786 q 614 771 612 784 l 625 530 q 610 511 624 513 l 497 496 q 483 511 483 496 l 483 626 q 390 636 439 636 q 303 620 340 636 q 244 571 265 604 q 208 375 208 514 q 293 137 208 166 q 355 127 320 127 q 472 140 406 127 l 475 187 q 489 205 476 203 l 596 201 q 607 185 606 199 l 619 -27 q 606 -41 619 -41 l 475 -41 q 464 -28 465 -41 l 466 10 q 129 79 220 -38 q 64 351 64 163 q 75 538 64 476 q 102 642 85 600 q 149 715 119 684 z "},"d":{"ha":810,"x_min":83,"x_max":785,"o":"m 446 960 q 433 976 433 960 l 439 1084 q 455 1098 441 1098 l 688 1085 q 700 1069 700 1084 l 700 117 l 771 125 q 785 112 785 125 l 772 7 q 757 -7 770 -5 l 589 -34 q 576 -19 576 -34 l 581 48 q 377 1 467 1 q 233 26 288 1 q 144 99 178 50 q 83 397 83 189 q 238 761 83 699 q 380 782 290 782 q 569 744 469 782 l 560 958 l 446 960 m 573 606 q 415 630 476 630 q 321 621 353 630 q 269 585 289 611 q 229 390 229 534 q 260 196 229 247 q 390 141 294 141 q 559 168 469 141 l 573 606 z "},"e":{"ha":811,"x_min":92,"x_max":729,"o":"m 574 4 q 354 -18 488 -18 q 156 66 218 -18 q 92 344 92 154 q 146 642 92 543 q 346 774 209 750 q 452 782 393 782 q 634 720 577 782 q 691 532 691 659 q 662 404 691 449 q 636 372 652 390 q 576 340 620 354 q 476 319 532 326 q 235 308 389 308 q 292 152 244 193 q 416 119 328 119 q 583 134 500 119 l 585 169 q 588 180 585 177 q 600 184 591 182 l 697 206 q 714 193 712 206 q 718 148 716 182 q 722 90 720 115 q 726 43 724 66 l 728 5 q 729 -23 729 -12 q 699 -47 729 -43 l 587 -60 q 572 -45 572 -60 l 574 4 m 511 448 q 533 485 529 464 q 536 533 536 505 q 531 583 536 562 q 514 621 526 605 q 428 653 488 653 q 274 595 313 653 q 233 408 237 541 q 511 448 470 411 z "},"f":{"ha":579,"x_min":25,"x_max":597,"o":"m 228 1054 q 243 1067 228 1054 q 304 1095 259 1081 q 394 1108 350 1108 q 463 1107 437 1108 l 464 1125 q 477 1137 464 1137 l 583 1137 q 597 1121 595 1137 l 587 921 q 576 907 585 907 l 476 905 q 458 920 459 905 l 460 992 q 408 995 435 995 q 361 987 382 995 q 328 963 341 980 q 300 866 300 930 q 302 745 300 802 l 502 747 q 514 743 511 747 q 517 731 516 739 l 510 627 q 495 613 509 614 l 311 618 l 311 140 l 435 142 q 446 130 446 142 l 434 14 q 430 3 433 5 q 418 0 427 1 l 90 4 q 81 20 81 4 l 87 123 q 98 136 89 136 l 166 137 l 172 616 l 53 609 q 39 621 41 610 l 25 726 q 40 741 25 741 l 168 743 q 162 872 162 802 q 179 985 162 943 q 228 1054 196 1026 z "},"g":{"ha":811,"x_min":81,"x_max":763,"o":"m 743 774 q 763 749 762 774 l 754 643 q 739 629 753 629 l 616 652 q 689 513 689 575 q 672 400 689 450 q 618 315 656 349 q 382 244 543 244 q 267 258 318 244 q 250 197 250 220 q 254 163 250 173 q 267 146 257 153 q 323 135 286 135 q 394 137 361 135 q 532 141 480 141 q 626 124 584 141 q 693 79 667 107 q 743 -68 743 23 q 654 -251 743 -180 q 380 -329 557 -329 q 165 -292 233 -329 q 88 -162 88 -250 q 166 27 88 -75 q 112 126 112 58 q 191 289 112 194 q 81 508 81 353 q 171 716 81 644 q 393 781 252 781 q 527 779 466 781 q 743 774 669 774 m 544 459 q 551 517 551 486 q 542 575 551 549 q 514 621 533 602 q 397 662 473 662 q 237 579 275 662 q 224 507 224 549 q 397 368 224 368 q 544 459 517 368 m 484 7 l 298 1 q 250 3 271 1 q 227 -104 227 -52 q 269 -178 227 -157 q 380 -199 310 -199 q 490 -190 451 -199 q 555 -167 528 -182 q 608 -85 608 -136 q 590 -26 608 -43 q 484 7 557 7 z "},"h":{"ha":929,"x_min":78,"x_max":851,"o":"m 622 477 q 514 628 622 628 q 374 596 453 628 q 330 576 350 587 l 328 129 l 410 121 q 420 109 420 119 l 408 21 q 393 7 406 7 l 106 2 q 96 18 96 2 l 109 138 q 113 148 111 145 q 125 151 116 151 l 176 145 l 176 709 l 190 958 l 93 951 q 78 967 78 951 l 78 1071 q 94 1084 78 1083 l 324 1094 q 340 1078 338 1094 l 323 702 q 568 781 446 781 q 761 604 732 781 q 770 441 770 548 q 755 138 770 334 l 837 142 q 851 128 851 141 l 851 28 q 836 15 851 15 l 544 8 q 533 24 533 8 l 548 116 q 552 127 549 125 q 563 130 555 130 l 620 132 q 621 222 621 173 l 621 321 q 622 411 622 369 l 622 477 z "},"i":{"ha":463,"x_min":68,"x_max":424,"o":"m 102 -9 q 92 7 92 -9 l 92 109 q 103 122 92 122 l 184 122 l 190 596 l 80 608 q 68 623 68 609 l 83 734 q 99 749 85 747 l 317 771 q 326 767 324 771 q 329 755 328 764 l 338 632 l 336 122 l 413 122 q 424 109 424 122 l 412 20 q 407 10 410 12 q 395 7 404 7 l 102 -9 m 313 924 q 306 919 313 924 q 278 910 300 913 q 226 907 256 907 q 180 910 196 907 q 155 922 164 913 q 139 980 139 939 q 143 1039 139 1021 q 160 1067 148 1057 q 229 1085 181 1085 q 293 1083 277 1085 q 319 1072 309 1080 q 335 1015 335 1057 q 330 953 335 972 q 313 924 326 934 z "},"j":{"ha":463,"x_min":41,"x_max":350,"o":"m 57 -163 q 205 -51 205 -163 q 205 50 205 -4 l 203 163 q 203 281 203 220 q 199 606 200 522 l 81 601 q 68 616 70 602 l 58 739 q 75 756 59 755 l 322 771 q 336 755 334 770 l 332 627 q 335 549 334 593 q 350 59 350 176 q 340 -120 350 -59 q 300 -221 330 -180 q 77 -304 241 -304 q 62 -288 64 -304 l 41 -177 q 57 -163 41 -163 m 342 1025 q 266 905 342 905 q 139 970 139 905 q 215 1087 139 1087 q 342 1025 342 1087 z "},"k":{"ha":810,"x_min":36,"x_max":804,"o":"m 50 109 q 60 122 51 122 l 148 122 l 148 934 l 51 947 q 41 951 43 948 q 39 962 39 954 l 36 1054 q 52 1068 36 1066 l 260 1090 q 275 1074 273 1090 l 288 953 l 279 440 l 366 444 l 530 645 l 447 635 q 436 648 436 635 l 441 758 q 458 771 443 771 l 765 774 q 774 758 774 774 l 768 655 q 757 642 766 642 l 688 648 l 476 395 l 671 134 l 783 130 q 798 113 796 130 l 804 20 q 801 10 804 12 q 789 7 797 7 l 582 -1 q 564 14 573 -1 l 358 328 l 277 321 l 274 128 l 343 136 q 354 123 354 136 l 349 20 q 345 10 348 12 q 332 7 341 7 l 66 -3 q 54 14 56 -3 l 50 109 z "},"l":{"ha":463,"x_min":49,"x_max":443,"o":"m 85 920 q 73 935 73 920 l 77 1067 q 81 1078 77 1076 q 94 1082 85 1080 l 314 1076 q 323 1073 321 1076 q 326 1061 326 1069 l 321 953 l 332 142 l 424 149 q 435 136 433 149 l 443 14 q 438 3 441 5 q 427 0 435 1 l 58 4 q 49 20 49 4 l 49 136 q 60 149 49 149 l 188 141 l 188 928 l 85 920 z "},"m":{"ha":1272,"x_min":54,"x_max":1221,"o":"m 699 678 q 920 781 811 781 q 1110 628 1079 781 q 1120 531 1120 578 q 1119 437 1120 484 q 1116 336 1118 390 l 1112 229 q 1108 130 1110 174 l 1206 136 q 1221 120 1221 136 l 1207 7 q 1203 -4 1207 -1 q 1192 -7 1200 -6 l 989 -1 q 973 14 973 -1 q 975 149 975 88 l 977 256 q 977 342 977 302 l 977 460 q 963 575 977 549 q 929 611 949 602 q 872 621 909 621 q 726 578 807 621 q 731 505 731 545 q 730 418 731 465 q 729 319 730 371 q 727 214 728 267 q 724 121 726 162 l 813 123 q 827 106 827 123 l 821 14 q 817 3 820 5 q 805 0 813 1 l 553 5 q 539 20 539 5 l 536 115 q 551 130 537 130 l 593 126 q 594 294 594 220 l 594 460 q 579 575 594 547 q 543 613 564 603 q 490 624 523 624 q 317 555 408 624 l 317 134 l 388 137 q 399 125 399 137 l 407 20 q 392 5 404 5 l 114 12 q 98 28 98 12 l 92 132 q 106 146 94 146 l 172 146 l 172 593 l 68 593 q 55 609 55 593 l 54 739 q 70 753 56 751 l 241 747 q 256 731 253 745 l 276 641 q 529 774 406 774 q 699 678 653 774 z "},"n":{"ha":929,"x_min":81,"x_max":859,"o":"m 537 612 q 340 542 451 612 l 349 136 l 422 144 q 434 132 434 144 l 421 27 q 406 12 418 12 l 123 12 q 113 28 113 12 l 126 132 q 141 146 129 146 l 199 146 l 199 595 l 95 597 q 81 614 81 597 l 94 731 q 110 745 95 743 l 298 773 q 310 758 310 773 l 310 640 q 585 780 450 780 q 769 633 739 780 q 779 542 779 584 q 778 470 779 499 q 776 407 777 441 l 774 336 q 772 262 773 299 l 769 190 q 766 126 768 155 l 844 130 q 859 113 859 130 l 859 14 q 855 3 859 5 q 843 0 851 1 l 646 -15 q 631 0 631 -15 q 633 139 633 74 l 635 252 q 635 342 635 300 l 635 467 q 621 574 635 551 q 587 605 606 597 q 537 612 568 612 z "},"o":{"ha":810,"x_min":83,"x_max":726,"o":"m 83 381 q 103 574 83 497 q 160 697 122 651 q 390 781 231 781 q 552 758 501 781 q 633 707 604 736 q 684 634 663 679 q 726 404 726 543 q 706 190 726 265 q 648 69 687 115 q 416 -14 576 -14 q 171 68 248 -14 q 83 381 83 160 m 545 170 q 555 184 545 170 q 576 246 566 197 q 586 366 586 295 q 578 479 586 436 q 558 552 571 523 q 526 597 545 581 q 486 622 508 614 q 400 634 454 634 q 315 626 347 634 q 262 591 283 618 q 222 384 222 540 q 341 134 222 162 q 420 125 378 125 q 494 134 463 125 q 545 170 525 143 z "},"p":{"ha":810,"x_min":10,"x_max":741,"o":"m 81 -311 q 66 -294 66 -311 l 75 -182 q 79 -171 75 -174 q 90 -168 82 -169 l 136 -174 l 136 625 l 25 615 q 12 628 12 615 l 10 767 q 26 781 12 779 l 214 774 q 227 759 227 774 l 231 715 q 443 780 351 780 q 590 755 535 780 q 680 682 646 731 q 741 383 741 591 q 585 23 741 90 q 447 1 533 1 q 267 35 360 1 l 277 -181 l 404 -176 q 418 -191 418 -178 l 412 -290 q 396 -304 410 -304 l 81 -311 m 262 164 q 409 144 347 144 q 502 153 470 144 q 555 189 534 163 q 594 384 594 240 q 563 578 594 526 q 433 633 529 633 q 277 604 368 633 l 262 164 z "},"q":{"ha":810,"x_min":83,"x_max":769,"o":"m 435 -306 q 420 -291 422 -306 l 427 -186 q 439 -174 429 -176 l 546 -178 l 548 40 q 375 1 454 1 q 241 22 296 1 q 151 86 186 43 q 83 345 83 169 q 149 670 83 566 q 370 780 218 780 q 539 738 444 780 l 675 766 q 689 750 689 766 l 695 -188 l 754 -185 q 769 -199 769 -186 l 762 -290 q 751 -306 761 -306 l 435 -306 m 266 187 q 316 149 285 161 q 407 138 347 138 q 549 161 467 138 l 546 610 q 416 630 476 630 q 323 616 357 630 q 269 569 289 602 q 231 354 231 508 q 266 187 231 235 z "},"r":{"ha":694,"x_min":50,"x_max":639,"o":"m 92 -8 q 81 8 81 -8 l 81 125 q 96 140 81 140 l 176 140 l 176 599 l 79 591 q 65 607 68 591 l 50 751 q 66 766 52 764 l 275 780 q 287 764 287 780 l 277 652 q 502 765 353 737 q 588 774 547 774 q 631 752 629 774 l 639 504 q 629 490 639 492 l 501 481 q 488 484 493 481 q 484 498 484 486 l 484 618 q 328 583 395 610 l 321 135 l 439 144 q 450 132 450 144 l 458 20 q 443 5 456 7 l 92 -8 z "},"s":{"ha":694,"x_min":59,"x_max":656,"o":"m 592 578 q 334 641 409 641 q 224 601 252 641 q 212 562 212 585 q 218 522 212 539 q 237 492 223 505 q 347 452 266 465 q 489 424 429 439 q 587 385 550 409 q 640 324 624 361 q 656 230 656 288 q 639 129 656 173 q 591 54 622 85 q 416 -6 528 -6 q 239 13 339 -6 l 251 -43 q 235 -56 251 -54 l 119 -66 q 90 -39 93 -66 l 71 162 q 87 177 71 174 l 193 196 q 208 180 205 196 l 216 136 q 378 120 314 120 q 473 147 441 120 q 504 218 504 174 q 471 277 504 259 q 356 306 441 293 q 216 335 271 319 q 126 378 161 351 q 59 548 59 428 q 122 715 59 652 q 310 781 189 781 q 474 733 381 781 l 461 787 q 475 804 461 803 l 610 815 q 621 800 621 815 l 606 593 q 592 578 605 578 z "},"t":{"ha":577,"x_min":3,"x_max":543,"o":"m 412 4 q 316 2 380 2 q 213 15 253 2 q 148 56 174 28 q 97 237 97 113 q 99 392 97 318 q 103 523 102 465 q 107 636 105 580 l 17 643 q 3 661 3 644 l 3 739 q 18 754 3 754 l 113 756 q 115 823 114 791 l 121 926 q 126 967 123 962 q 138 973 130 972 l 264 988 q 279 973 279 988 q 271 875 279 951 l 261 760 l 527 768 q 542 751 542 768 l 542 641 q 527 627 542 627 l 252 638 q 241 361 241 479 q 246 209 241 243 q 264 155 251 174 q 363 123 288 123 q 402 124 385 123 q 400 160 400 148 q 413 174 400 172 l 526 187 q 541 172 541 187 l 543 -1 q 533 -14 543 -12 l 433 -31 q 415 -18 417 -29 l 412 4 z "},"u":{"ha":810,"x_min":25,"x_max":798,"o":"m 675 746 q 686 730 686 746 l 693 157 l 784 161 q 798 144 798 160 l 785 20 q 769 6 785 6 l 602 6 q 574 32 581 6 l 557 100 q 302 4 446 4 q 102 260 102 4 q 113 458 102 349 l 126 611 l 39 608 q 25 625 25 608 l 39 745 q 43 755 40 753 q 54 758 46 758 l 270 753 q 279 738 279 753 q 273 665 276 705 q 244 287 244 359 q 271 183 244 215 q 369 151 298 151 q 549 220 439 151 l 549 610 l 464 614 q 452 626 454 616 l 465 738 q 480 753 468 753 l 675 746 z "},"v":{"ha":810,"x_min":17,"x_max":793,"o":"m 17 746 q 33 760 17 760 l 340 760 q 351 756 350 760 q 353 745 353 752 l 342 636 q 338 625 341 627 q 328 622 336 622 l 256 620 l 429 134 l 580 630 l 497 621 q 486 633 486 621 l 478 745 q 493 760 480 758 l 783 773 q 793 757 793 772 l 793 633 q 779 618 791 618 l 711 618 l 501 12 q 483 -3 497 -1 l 361 -8 q 342 8 349 -7 l 94 616 l 31 615 q 17 631 17 615 l 17 746 z "},"w":{"ha":1154,"x_min":12,"x_max":1134,"o":"m 12 751 q 27 765 12 765 l 328 758 q 339 754 338 758 q 340 743 340 751 l 337 628 q 333 616 336 619 q 322 614 330 614 l 248 620 l 377 144 l 506 751 q 524 766 508 764 l 653 772 q 672 758 669 770 l 821 144 l 928 629 l 844 620 q 833 631 833 620 l 825 743 q 840 758 827 757 l 1123 772 q 1134 755 1134 771 l 1134 631 q 1119 617 1134 617 l 1052 617 l 893 10 q 875 -4 890 -4 l 747 -6 q 728 8 731 -6 l 585 581 l 452 16 q 434 1 449 3 l 313 -4 q 294 10 298 -3 l 96 620 l 33 614 q 18 630 18 614 l 12 751 z "},"x":{"ha":811,"x_min":41,"x_max":799,"o":"m 65 10 q 51 24 51 10 l 51 124 q 66 138 51 138 l 133 138 l 348 374 l 125 634 l 55 633 q 41 649 41 633 l 47 757 q 63 770 47 770 l 376 764 q 387 761 385 764 q 388 749 388 757 l 391 654 q 387 643 390 646 q 376 640 385 640 l 294 638 l 416 456 l 547 627 l 494 625 q 482 637 483 625 l 488 755 q 503 770 490 769 l 772 764 q 783 747 783 764 l 777 650 q 762 636 775 637 l 686 633 l 479 393 l 701 143 l 789 151 q 799 134 799 151 l 786 15 q 782 5 785 7 q 770 2 779 3 l 479 12 q 468 26 468 12 l 480 111 q 485 122 481 120 q 496 125 488 125 l 541 130 l 410 307 l 279 140 l 327 141 q 338 125 338 141 l 340 16 q 336 5 339 7 q 326 2 333 3 l 65 10 z "},"y":{"ha":812,"x_min":4,"x_max":806,"o":"m 11 746 q 26 760 11 760 l 334 766 q 347 751 347 766 l 350 636 q 346 625 349 627 q 335 622 343 622 l 246 620 l 422 121 l 583 623 l 490 614 q 478 626 479 614 l 484 751 q 499 766 485 766 l 795 773 q 806 757 806 772 l 800 640 q 785 625 798 625 l 725 631 l 398 -292 q 382 -308 393 -308 l 248 -271 q 233 -258 233 -269 q 235 -248 233 -253 l 384 36 l 326 34 q 311 46 317 34 l 83 616 l 18 615 q 4 631 4 615 l 11 746 z "},"z":{"ha":811,"x_min":95,"x_max":737,"o":"m 591 208 q 606 225 593 224 l 726 216 q 737 200 737 215 l 729 -27 q 715 -41 728 -41 l 618 -36 q 602 -17 603 -35 l 600 11 l 152 2 q 123 11 133 3 q 111 38 113 19 l 100 136 l 549 644 l 239 646 l 224 529 q 208 514 222 514 l 109 526 q 95 541 96 528 l 104 770 q 107 784 104 780 q 119 789 110 787 l 239 773 l 252 755 l 663 774 q 682 766 677 775 q 688 743 686 756 l 706 622 l 275 128 l 594 144 l 591 208 z "},"{":{"ha":463,"x_min":35,"x_max":427,"o":"m 48 576 q 158 646 158 576 q 157 705 158 679 q 154 756 155 730 q 150 881 150 833 q 155 974 150 929 q 182 1048 160 1018 q 366 1112 225 1112 q 424 1108 420 1112 q 427 1097 427 1104 l 420 987 q 411 971 419 971 q 311 959 330 971 q 287 929 292 947 q 281 879 281 910 l 286 650 q 248 540 286 589 q 217 512 235 523 q 280 377 280 480 q 275 278 280 324 q 267 124 267 183 q 271 50 267 66 q 286 25 275 35 q 396 11 313 -1 q 404 7 402 11 q 406 -5 405 3 l 399 -115 q 385 -127 397 -126 q 310 -131 351 -131 q 229 -114 268 -131 q 170 -71 191 -98 q 134 65 134 -25 q 142 215 134 133 q 157 378 157 349 q 149 420 157 407 q 127 439 141 433 q 54 452 104 452 q 41 468 42 452 l 35 564 q 48 576 35 576 z "},"|":{"ha":577,"x_min":222,"x_max":354,"o":"m 338 1109 q 351 1093 351 1108 l 354 -343 q 342 -356 354 -355 l 242 -363 q 229 -351 229 -363 l 222 1095 q 235 1108 222 1108 l 338 1109 z "},"}":{"ha":463,"x_min":36,"x_max":429,"o":"m 415 404 q 305 334 305 404 q 307 276 305 302 q 309 224 308 250 q 313 99 313 147 q 308 7 313 52 q 282 -68 303 -37 q 98 -131 238 -131 q 40 -127 43 -131 q 36 -116 37 -123 l 43 -7 q 52 9 44 9 q 152 21 133 9 q 176 52 171 33 q 182 102 182 70 l 177 331 q 216 441 177 392 q 246 469 229 457 q 183 604 183 500 q 187 703 183 656 q 197 856 197 798 q 192 930 197 915 q 178 956 188 946 q 123 972 159 972 q 74 971 86 972 q 60 974 61 970 q 58 986 58 977 l 64 1095 q 78 1108 66 1107 q 154 1112 112 1112 q 234 1095 195 1112 q 294 1051 273 1078 q 330 916 330 1006 q 321 766 330 848 q 307 603 307 632 q 314 561 307 574 q 336 541 322 548 q 409 529 358 529 q 422 513 420 529 l 429 417 q 415 404 429 404 z "},"~":{"ha":810,"x_min":71,"x_max":739,"o":"m 71 578 q 103 616 71 588 q 161 661 136 645 q 266 695 218 695 q 341 683 313 695 q 399 654 370 670 q 522 614 473 614 q 636 642 576 614 l 666 656 q 701 672 694 672 q 715 659 708 672 l 737 613 q 739 605 739 610 q 728 587 739 599 q 694 556 717 575 q 644 519 672 537 q 530 479 578 479 q 448 494 481 479 l 382 526 q 269 559 315 559 q 186 543 223 559 q 137 521 149 526 q 108 509 113 509 q 93 523 98 509 l 71 578 z "},"":{"ha":467,"x_min":0,"x_max":0,"o":""},"":{"ha":347,"x_min":66,"x_max":281,"o":"m 268 -277 q 252 -294 267 -291 l 104 -288 q 90 -271 90 -287 l 119 461 q 131 475 119 475 q 153 473 141 475 l 223 466 q 241 446 239 463 l 268 -277 m 82 636 q 78 645 82 636 q 70 675 74 654 q 66 713 66 695 q 78 745 66 730 q 110 769 90 760 q 189 789 151 789 q 241 777 227 789 q 264 747 255 765 q 281 681 281 713 q 266 633 281 648 q 229 609 251 618 q 155 595 192 595 q 104 607 118 595 q 82 636 90 618 z "},"":{"ha":810,"x_min":91,"x_max":728,"o":"m 579 802 q 596 818 579 818 l 695 820 q 709 805 707 818 l 720 564 q 705 545 719 547 l 606 530 q 591 545 591 530 l 591 619 q 471 634 535 629 l 467 383 l 471 132 q 595 149 543 140 l 597 187 q 611 205 598 203 l 705 201 q 715 185 714 199 l 728 -27 q 714 -41 728 -41 l 597 -41 q 586 -28 587 -41 l 588 19 q 473 3 537 10 l 477 -150 q 464 -161 477 -159 l 380 -168 q 366 -153 366 -168 l 366 -5 q 107 191 156 -3 q 91 329 91 258 q 95 450 91 401 q 111 544 100 499 q 141 626 122 588 q 191 694 161 665 q 363 768 255 757 l 361 909 q 375 925 361 924 l 464 930 q 477 920 475 930 l 474 768 q 583 755 538 764 l 581 784 q 579 802 579 797 m 240 467 q 235 364 235 425 q 244 257 235 304 q 270 183 253 211 q 366 128 300 134 l 367 399 l 364 628 q 240 467 258 600 z "},"":{"ha":925,"x_min":84,"x_max":847,"o":"m 733 1024 q 760 998 760 1024 l 760 736 q 745 718 760 720 l 618 709 q 604 724 606 709 l 622 880 q 492 899 543 899 q 415 889 441 899 q 374 860 390 880 q 347 745 347 825 q 352 562 347 667 l 522 583 q 536 566 534 583 l 550 457 q 539 444 549 444 l 358 444 q 368 122 366 273 l 690 143 l 674 253 q 690 271 674 268 l 800 294 q 828 268 825 294 l 847 -22 q 832 -39 847 -37 l 705 -42 q 690 -26 693 -42 l 692 5 l 96 -18 q 84 -2 85 -18 l 95 116 q 106 129 96 127 l 231 119 l 231 147 q 212 444 231 262 l 109 444 q 97 457 98 444 l 96 553 q 110 566 96 566 l 201 560 q 190 749 190 678 q 204 874 190 820 q 247 966 218 928 q 434 1046 309 1046 q 586 1017 515 1046 q 635 995 609 1007 q 648 1008 637 1006 l 733 1024 z "},"":{"ha":810,"x_min":28,"x_max":782,"o":"m 577 184 q 404 145 510 145 q 237 180 298 145 l 132 69 q 124 66 129 66 q 115 71 119 66 l 41 142 q 36 152 36 147 q 43 163 36 156 l 152 274 q 121 447 121 340 q 151 622 121 554 l 31 736 q 28 743 28 739 q 33 753 28 748 l 104 826 q 114 831 109 831 q 125 824 118 831 l 235 717 q 398 757 302 757 q 547 736 495 757 l 654 849 q 662 852 657 852 q 671 848 667 852 l 745 777 q 750 767 750 771 q 743 755 750 762 l 646 656 q 689 466 689 585 q 660 280 689 347 l 779 168 q 782 160 782 165 q 777 151 782 155 l 706 77 q 696 72 701 72 q 684 79 692 72 l 577 184 m 520 310 q 530 320 520 310 q 550 362 540 330 q 559 447 559 394 q 548 535 559 500 q 517 589 537 570 q 422 621 484 621 q 331 612 361 621 q 283 583 301 604 q 250 444 250 545 q 339 283 250 310 q 405 274 368 274 q 472 282 443 274 q 520 310 501 291 z "},"":{"ha":925,"x_min":58,"x_max":868,"o":"m 142 323 q 151 339 142 339 l 394 333 l 395 429 l 163 427 q 151 430 155 427 q 147 440 148 432 l 142 527 q 153 540 142 538 l 357 538 l 139 888 l 83 884 q 64 905 66 884 l 58 1019 q 62 1034 58 1031 q 79 1038 67 1038 l 359 1044 q 375 1024 374 1042 l 382 911 q 376 896 380 900 q 361 892 372 892 l 315 893 l 485 550 l 645 898 l 597 892 q 586 895 589 892 q 581 907 583 899 l 571 1017 q 591 1038 572 1036 l 853 1049 q 868 1027 868 1048 l 861 921 q 857 906 861 910 q 841 901 852 901 l 789 901 l 596 538 l 783 540 q 793 527 793 540 l 793 447 q 784 431 793 431 l 546 430 l 545 334 l 772 343 q 784 340 781 342 q 788 330 787 338 l 793 243 q 783 231 793 231 l 543 231 l 541 137 l 632 139 q 648 124 646 139 l 652 9 q 650 -3 652 1 q 640 -6 648 -6 l 307 -16 q 295 -13 298 -15 q 290 -2 291 -10 l 279 117 q 292 132 279 132 l 393 134 l 393 231 l 153 231 q 142 243 142 231 l 142 323 z "},"":{"ha":577,"x_min":220,"x_max":356,"o":"m 220 1097 q 233 1108 222 1108 l 336 1109 q 349 1093 349 1108 l 352 526 q 336 512 352 513 l 240 505 q 227 516 227 507 l 220 1097 m 233 -363 q 220 -352 220 -361 l 227 220 q 240 233 227 233 l 342 241 q 356 225 356 240 l 352 -342 q 339 -356 352 -355 l 233 -363 z "},"":{"ha":807,"x_min":103,"x_max":705,"o":"m 258 667 q 154 845 154 740 q 224 1042 154 970 q 406 1109 292 1109 q 652 1078 549 1109 q 663 1059 663 1076 l 652 933 q 638 919 651 919 q 602 931 628 919 q 557 951 575 944 q 518 964 538 958 q 438 978 473 978 q 381 974 404 978 q 342 958 359 969 q 307 870 307 932 q 352 777 307 817 q 407 740 374 758 l 480 699 q 656 579 608 631 q 705 446 705 528 q 665 303 705 365 q 554 218 626 241 q 637 161 616 186 q 672 54 672 115 q 603 -142 672 -78 q 386 -207 533 -207 q 163 -187 266 -207 q 135 -161 138 -183 l 152 -49 q 168 -34 155 -34 q 198 -41 175 -34 l 247 -53 q 390 -79 346 -79 q 457 -70 435 -79 q 494 -46 479 -62 q 521 35 521 -18 q 470 111 521 75 q 412 145 446 128 l 337 182 q 168 281 205 245 q 117 348 130 317 q 103 419 103 378 q 114 498 103 460 q 145 568 125 536 q 258 667 186 635 m 254 440 q 399 292 254 353 q 447 288 426 288 q 490 301 468 288 q 528 336 513 315 q 559 443 559 380 q 541 495 559 476 q 425 574 505 534 q 406 581 414 578 q 368 586 389 586 q 324 574 347 586 q 286 543 302 562 q 254 440 254 501 z "},"":{"ha":610,"x_min":47,"x_max":563,"o":"m 221 924 q 215 919 221 924 q 186 910 208 913 q 136 907 165 907 q 91 911 107 907 q 66 925 75 915 q 47 982 47 943 q 52 1039 47 1021 q 68 1067 56 1057 q 136 1085 90 1085 q 199 1082 183 1085 q 225 1069 215 1078 q 243 1012 243 1052 q 239 953 243 972 q 221 924 234 934 m 541 924 q 534 919 541 924 q 506 910 528 913 q 455 907 484 907 q 411 911 427 907 q 385 925 395 915 q 367 982 367 943 q 371 1039 367 1021 q 388 1067 376 1057 q 456 1085 409 1085 q 518 1082 503 1085 q 544 1069 534 1078 q 563 1012 563 1052 q 558 953 563 972 q 541 924 553 934 z "},"":{"ha":1155,"x_min":54,"x_max":1101,"o":"m 585 -64 q 348 -27 447 -64 q 184 81 250 10 q 54 494 54 222 q 410 1075 54 981 q 605 1095 487 1095 q 821 1058 724 1095 q 981 950 919 1021 q 1101 534 1101 812 q 985 98 1101 243 q 585 -64 857 -64 m 843 935 q 820 951 843 935 q 734 984 797 967 q 584 1001 671 1001 q 427 981 496 1001 q 310 925 358 960 q 233 841 262 889 q 186 737 203 793 q 157 522 157 644 q 177 314 157 400 q 243 164 196 227 q 569 30 345 30 q 979 301 904 30 q 1002 478 1002 387 q 995 635 1002 570 q 968 757 987 701 q 919 858 950 813 q 843 935 888 903 m 562 872 q 691 848 620 872 l 766 861 q 786 842 785 861 l 787 633 q 777 621 787 621 l 699 619 q 689 630 690 619 l 680 752 q 581 764 629 764 q 502 752 532 764 q 453 712 471 741 q 420 520 420 661 q 460 314 420 374 q 587 258 497 258 q 688 279 627 258 l 688 364 q 699 374 688 372 l 777 388 q 787 377 785 388 l 798 169 q 787 161 798 161 l 710 186 q 556 151 629 151 q 303 525 303 151 q 562 872 303 872 z "},"":{"ha":692,"x_min":78,"x_max":560,"o":"m 211 1019 q 368 1059 294 1059 q 489 974 465 1059 q 498 910 498 943 q 497 846 498 877 q 495 779 496 814 l 492 707 q 490 642 491 671 l 551 647 q 560 638 560 647 l 552 538 q 542 530 551 531 l 402 521 q 395 531 395 521 l 399 585 q 249 519 336 519 q 91 602 127 519 q 78 674 78 630 q 95 751 78 719 q 144 803 111 784 q 334 837 201 837 l 360 837 q 387 836 372 837 l 387 862 q 313 956 387 956 q 215 944 258 956 l 224 902 q 214 892 224 892 l 122 890 q 113 901 113 890 l 105 1059 q 115 1072 106 1072 l 205 1075 q 215 1065 215 1075 l 211 1019 m 189 680 q 275 618 189 618 q 384 638 336 618 l 386 755 q 240 744 271 755 q 199 718 209 733 q 189 680 189 703 z "},"":{"ha":1040,"x_min":61,"x_max":964,"o":"m 78 343 q 66 355 78 343 q 61 367 61 361 l 68 418 q 79 439 70 430 l 450 783 q 461 787 454 787 q 473 781 468 787 l 519 736 q 524 727 524 732 q 521 720 524 722 l 239 391 l 526 71 q 530 60 530 65 q 524 50 530 56 l 475 3 q 466 -3 470 -3 q 458 1 461 -3 l 78 343 m 512 343 l 500 355 q 495 367 495 361 l 502 418 q 513 439 504 430 l 884 783 q 895 787 888 787 q 907 781 902 787 l 954 736 q 958 727 958 732 q 955 720 958 722 l 673 391 l 960 71 q 964 60 964 65 q 958 50 964 56 l 909 3 q 900 -3 904 -3 q 892 1 895 -3 l 512 343 z "},"":{"ha":810,"x_min":113,"x_max":696,"o":"m 123 385 q 113 401 113 387 l 120 511 q 131 524 121 524 l 683 531 q 696 517 696 530 l 696 273 q 683 260 696 262 l 574 252 q 563 257 566 254 q 560 269 561 260 l 565 406 l 123 385 z "},"":{"ha":810,"x_min":120,"x_max":689,"o":"m 678 524 q 689 511 689 522 l 677 408 q 672 398 675 400 q 661 395 669 395 l 130 392 q 120 408 120 392 l 127 504 q 138 517 128 517 l 678 524 z "},"":{"ha":1155,"x_min":54,"x_max":1101,"o":"m 585 -64 q 348 -27 447 -64 q 184 81 250 10 q 54 494 54 222 q 410 1075 54 981 q 605 1095 487 1095 q 821 1058 724 1095 q 981 950 919 1021 q 1101 534 1101 812 q 985 98 1101 243 q 585 -64 857 -64 m 843 935 q 820 951 843 935 q 734 984 797 967 q 584 1001 671 1001 q 427 981 496 1001 q 310 925 358 960 q 233 841 262 889 q 186 737 203 793 q 157 522 157 644 q 177 314 157 400 q 243 164 196 227 q 569 30 345 30 q 979 301 904 30 q 1002 478 1002 387 q 995 635 1002 570 q 968 757 987 701 q 919 858 950 813 q 843 935 888 903 m 424 749 q 363 744 375 744 q 342 757 342 744 l 354 840 q 365 854 357 852 q 549 868 471 868 q 675 857 627 868 q 757 821 724 846 q 823 648 823 768 q 711 457 823 498 l 781 291 l 839 298 q 854 282 854 296 l 854 209 q 838 184 854 186 l 720 174 q 705 183 708 174 l 611 444 q 518 448 549 444 l 511 274 l 565 277 q 572 268 572 277 l 576 181 q 564 173 575 173 l 358 173 q 350 184 351 173 l 353 269 q 362 277 353 276 l 408 273 l 424 749 m 638 753 q 593 758 614 758 q 531 756 558 758 l 522 530 q 548 529 534 529 l 581 529 q 679 555 648 529 q 709 646 709 582 q 638 753 709 737 z "},"":{"ha":610,"x_min":73,"x_max":537,"o":"m 526 1093 q 537 1080 537 1091 l 525 964 q 520 953 524 956 q 509 950 517 950 l 82 954 q 73 970 73 954 l 79 1073 q 90 1086 81 1086 l 526 1093 z "},"":{"ha":577,"x_min":91,"x_max":486,"o":"m 438 1063 q 450 1050 438 1063 q 474 1001 462 1037 q 486 920 486 964 q 472 838 486 876 q 433 773 459 800 q 283 717 379 717 q 139 776 191 717 q 91 916 91 831 q 201 1101 91 1054 q 289 1118 238 1118 q 377 1103 340 1118 q 438 1063 414 1088 m 357 991 q 351 998 357 991 q 330 1013 346 1004 q 290 1021 314 1021 q 248 1012 265 1021 q 220 987 230 1002 q 201 928 201 960 q 206 879 201 897 q 221 846 211 861 q 288 812 245 812 q 372 880 352 812 q 378 921 378 900 q 373 959 378 941 q 357 991 368 977 z "},"":{"ha":810,"x_min":112,"x_max":698,"o":"m 112 517 q 123 530 113 530 l 341 533 l 336 762 q 349 777 336 776 l 458 771 q 471 755 471 770 l 465 534 l 686 537 q 698 524 698 536 l 696 415 q 692 405 696 407 q 680 401 688 402 l 463 408 l 467 161 q 451 151 467 152 l 349 155 q 336 166 336 157 l 341 408 l 128 399 q 119 415 120 399 l 112 517 m 677 110 q 688 97 688 109 l 675 -5 q 671 -16 674 -14 q 659 -19 668 -18 l 128 -22 q 119 -5 119 -22 l 125 90 q 136 103 127 103 l 677 110 z "},"":{"ha":577,"x_min":77,"x_max":444,"o":"m 164 1127 q 177 1116 176 1127 l 176 1080 q 309 1114 245 1114 q 399 1076 363 1114 q 437 973 437 1037 q 395 861 437 920 q 334 787 372 829 l 237 686 l 356 693 l 356 714 q 370 727 356 727 l 433 730 q 444 720 444 730 l 438 558 q 431 551 437 551 l 355 551 q 347 560 347 551 l 350 582 l 106 579 q 100 587 101 579 l 92 679 q 127 722 92 684 l 205 806 q 295 920 283 892 q 307 967 307 948 q 249 1021 307 1021 q 174 1003 212 1021 l 173 967 q 165 958 173 959 l 83 970 q 77 977 77 970 l 84 1114 q 94 1125 84 1124 l 164 1127 z "},"":{"ha":577,"x_min":55,"x_max":460,"o":"m 180 1081 q 296 1109 248 1109 q 367 1100 344 1109 q 404 1076 390 1091 q 433 991 433 1046 q 406 902 433 937 q 326 846 379 868 q 424 798 389 834 q 460 717 460 762 q 451 644 460 672 q 423 597 442 616 q 307 555 385 555 q 172 574 236 555 l 180 538 q 172 532 180 532 l 79 528 q 64 541 65 528 l 55 667 q 63 675 55 673 l 157 687 q 164 679 164 687 l 164 650 q 247 637 211 637 q 304 652 283 637 q 326 696 326 667 q 321 740 326 725 q 308 765 316 754 q 274 787 291 787 q 225 783 248 787 q 177 774 186 774 q 168 781 168 774 l 163 858 q 174 869 163 868 q 299 977 299 884 q 284 1016 299 1006 q 237 1027 269 1027 q 172 1004 205 1027 l 174 975 q 167 966 173 966 l 72 960 q 66 968 67 960 l 73 1105 q 83 1116 73 1116 l 172 1115 q 185 1104 184 1115 l 180 1081 z "},"":{"ha":610,"x_min":139,"x_max":525,"o":"m 522 1118 q 525 1107 525 1114 q 519 1095 525 1100 l 206 865 q 198 862 202 862 q 190 866 194 862 l 144 912 q 139 925 139 919 q 142 935 139 930 l 402 1220 q 417 1227 408 1227 q 431 1220 425 1227 l 522 1118 z "},"":{"ha":810,"x_min":81,"x_max":797,"o":"m 98 -293 q 87 -277 87 -293 l 81 748 q 97 764 81 762 l 217 771 q 231 757 231 770 l 213 293 q 289 162 215 180 q 339 157 311 157 q 392 162 367 157 q 440 178 417 168 q 532 235 480 195 l 520 754 q 535 769 522 768 l 644 773 q 658 757 658 773 l 671 142 l 773 140 q 789 124 787 140 l 797 20 q 781 6 795 9 l 579 -14 q 551 12 555 -14 l 536 108 q 326 9 439 9 q 213 40 260 9 l 231 -257 q 227 -268 231 -266 q 216 -272 224 -271 l 98 -293 z "},"":{"ha":1037,"x_min":121,"x_max":932,"o":"m 464 495 q 391 492 430 492 q 299 512 352 492 q 206 570 245 532 q 121 797 121 654 q 245 1052 121 969 q 537 1122 351 1122 q 916 1088 747 1122 q 932 1067 930 1085 l 926 972 q 909 953 922 953 q 800 963 909 953 l 812 -180 q 800 -197 812 -196 l 716 -208 q 700 -194 700 -208 l 694 970 q 640 972 669 971 l 582 973 l 576 -187 q 564 -203 576 -203 l 460 -201 q 444 -184 444 -201 l 464 495 z "},"":{"ha":347,"x_min":71,"x_max":286,"o":"m 270 496 q 274 487 270 496 q 282 458 278 478 q 286 420 286 437 q 274 388 286 402 q 242 363 262 373 q 163 344 201 344 q 111 356 125 344 q 88 385 97 368 q 71 452 71 419 q 86 500 71 485 q 123 524 101 515 q 197 538 160 538 q 248 526 234 538 q 270 496 262 514 z "},"":{"ha":610,"x_min":149,"x_max":460,"o":"m 285 -254 q 341 -207 341 -254 q 329 -173 341 -187 q 297 -159 316 -159 q 270 -160 278 -159 q 254 -161 262 -161 q 231 -164 235 -164 q 220 -156 228 -164 q 203 -136 212 -147 q 182 -100 182 -110 l 213 22 l 294 22 l 279 -76 q 338 -70 307 -70 q 393 -81 370 -70 q 430 -110 415 -92 q 460 -217 460 -147 q 293 -354 460 -354 q 163 -332 216 -354 q 149 -319 149 -326 l 163 -247 q 176 -235 165 -235 q 200 -240 181 -235 q 285 -254 254 -254 z "},"":{"ha":577,"x_min":112,"x_max":420,"o":"m 130 699 q 135 705 130 705 l 215 699 l 215 978 l 130 966 q 123 973 124 966 l 112 1043 q 119 1053 112 1049 l 242 1109 q 254 1113 248 1113 l 338 1101 q 345 1094 345 1101 l 339 1001 l 335 699 l 414 705 q 420 699 420 705 l 416 590 q 412 582 416 582 l 134 587 q 125 593 126 587 l 130 699 z "},"":{"ha":692,"x_min":86,"x_max":538,"o":"m 149 566 q 134 582 149 566 q 102 651 119 598 q 86 782 86 705 q 101 913 86 859 q 145 1001 117 967 q 302 1067 199 1067 q 471 1012 416 1067 q 538 783 538 945 q 413 519 538 564 q 319 505 372 505 q 223 519 266 505 q 149 566 180 533 m 429 760 q 429 802 429 760 q 419 880 429 844 q 392 935 409 916 q 303 961 366 961 q 218 925 240 961 q 194 808 194 887 q 203 693 194 729 q 229 639 212 658 q 323 606 256 606 q 405 639 383 606 q 429 760 429 675 z "},"":{"ha":1040,"x_min":76,"x_max":979,"o":"m 528 441 q 538 429 528 441 q 545 417 545 423 l 538 366 q 526 345 536 354 l 155 1 q 145 -3 152 -3 q 132 3 138 -3 l 86 48 q 82 57 82 52 q 85 64 82 62 l 366 393 l 80 713 q 76 723 76 718 q 81 734 76 728 l 130 781 q 140 787 136 787 q 148 783 144 787 l 528 441 m 962 441 l 972 429 q 979 417 979 423 l 972 366 q 960 345 970 354 l 589 1 q 579 -3 586 -3 q 566 3 572 -3 l 520 48 q 516 57 516 52 q 519 64 516 62 l 800 393 l 514 713 q 510 723 510 718 q 515 734 510 728 l 564 781 q 574 787 570 787 q 582 783 578 787 l 962 441 z "},"":{"ha":1040,"x_min":97,"x_max":945,"o":"m 930 8 q 924 2 930 2 l 686 2 q 681 8 681 2 l 677 76 q 682 84 677 84 l 744 83 l 747 138 l 557 136 q 540 146 543 136 l 524 200 q 524 208 524 203 q 533 236 524 212 l 644 498 q 656 526 654 521 q 667 530 659 530 l 779 507 q 785 500 785 505 q 779 480 785 496 l 645 208 l 750 212 l 755 326 q 764 334 755 334 l 880 321 q 886 314 886 321 l 873 217 l 931 219 q 937 212 936 219 l 945 146 q 938 139 945 139 l 871 138 l 871 80 l 919 79 q 927 73 926 79 l 930 8 m 860 954 q 865 945 865 950 q 862 935 865 940 l 541 500 l 210 26 q 201 20 206 20 q 190 24 195 20 l 129 67 q 123 76 123 71 q 128 88 123 81 l 466 557 l 778 999 q 786 1005 782 1005 q 796 1002 791 1005 l 860 954 m 115 631 q 120 637 115 637 l 200 631 l 200 910 l 115 898 q 109 905 109 898 l 97 975 q 104 985 97 981 l 227 1042 q 239 1045 233 1045 l 323 1034 q 330 1026 330 1033 l 324 933 l 320 631 l 399 637 q 405 631 405 637 l 401 522 q 397 514 401 514 l 119 519 q 111 526 111 519 l 115 631 z "},"":{"ha":1040,"x_min":87,"x_max":952,"o":"m 850 954 q 856 945 856 950 q 852 935 856 940 l 532 500 l 201 26 q 191 20 197 20 q 180 24 186 20 l 119 67 q 114 76 114 71 q 119 88 114 81 l 456 557 l 768 999 q 777 1005 772 1005 q 787 1002 781 1005 l 850 954 m 105 631 q 111 637 105 637 l 191 631 l 191 910 l 106 898 q 99 905 100 898 l 87 975 q 95 985 87 981 l 218 1042 q 230 1045 224 1045 l 314 1034 q 320 1026 320 1033 l 315 933 l 311 631 l 390 637 q 395 631 395 637 l 392 522 q 387 514 392 514 l 109 519 q 101 526 102 519 l 105 631 m 672 545 q 685 534 684 545 l 684 497 q 817 532 753 532 q 907 494 871 532 q 945 391 945 454 q 903 279 945 338 q 842 205 880 247 l 745 103 l 864 111 l 864 132 q 878 144 864 144 l 941 147 q 952 137 952 147 l 946 -24 q 939 -32 945 -32 l 863 -31 q 855 -22 855 -31 l 858 -1 l 614 -3 q 608 5 609 -3 l 600 96 q 636 140 600 101 l 712 222 q 803 337 791 309 q 815 385 815 366 q 757 438 815 438 q 682 420 720 438 l 681 385 q 673 376 681 376 l 591 387 q 585 395 585 388 l 592 532 q 602 543 592 541 l 672 545 z "},"":{"ha":1040,"x_min":55,"x_max":970,"o":"m 955 8 q 949 2 955 2 l 711 2 q 706 8 706 2 l 703 76 q 707 84 703 84 l 769 83 l 772 138 l 583 136 q 565 146 569 136 l 549 200 q 549 208 549 203 q 558 236 549 212 l 669 498 q 681 526 679 521 q 692 530 684 530 l 804 507 q 810 500 810 505 q 803 480 810 496 l 670 208 l 775 212 l 781 326 q 789 334 781 334 l 905 321 q 911 314 911 321 l 898 217 l 956 219 q 962 212 962 219 l 970 146 q 963 139 970 139 l 897 138 l 897 80 l 944 79 q 952 73 951 79 l 955 8 m 885 954 q 890 945 890 950 q 887 935 890 940 l 566 500 l 235 26 q 226 20 231 20 q 215 24 220 20 l 154 67 q 149 76 149 71 q 153 88 149 81 l 491 557 l 803 999 q 811 1005 807 1005 q 821 1002 816 1005 l 885 954 m 180 1040 q 296 1069 248 1069 q 367 1060 344 1069 q 404 1035 390 1050 q 433 950 433 1005 q 406 862 433 896 q 326 805 379 827 q 424 757 389 793 q 460 676 460 721 q 451 604 460 631 q 423 556 442 576 q 307 515 385 515 q 172 534 236 515 l 180 498 q 172 492 180 492 l 79 487 q 64 500 65 488 l 55 627 q 63 634 55 633 l 157 646 q 164 638 164 646 l 164 609 q 247 596 211 596 q 304 611 283 596 q 326 655 326 627 q 321 699 326 684 q 308 724 316 713 q 274 747 291 747 q 225 742 248 747 q 177 733 186 733 q 168 741 168 733 l 163 817 q 174 829 163 827 q 299 936 299 843 q 284 976 299 965 q 237 986 269 986 q 172 963 205 986 l 174 935 q 167 925 173 926 l 72 920 q 66 928 67 920 l 73 1065 q 83 1076 73 1076 l 172 1074 q 185 1063 184 1074 l 180 1040 z "},"":{"ha":694,"x_min":34,"x_max":646,"o":"m 635 22 q 646 6 645 22 l 633 -258 q 612 -280 631 -280 l 511 -277 q 486 -256 488 -276 l 487 -215 q 271 -272 378 -272 q 50 -148 97 -272 q 34 -55 34 -106 q 46 37 34 -5 q 78 118 58 79 q 124 196 98 158 l 251 374 q 299 455 287 425 q 314 489 311 486 q 324 493 317 493 l 430 477 q 439 467 439 477 q 431 430 439 458 q 336 252 416 368 l 283 176 q 193 -37 193 39 q 260 -129 193 -105 q 308 -136 281 -136 q 360 -132 336 -136 q 406 -123 384 -129 q 491 -87 440 -113 l 494 0 q 496 13 494 9 q 508 18 498 17 l 635 22 m 271 632 q 267 641 271 632 q 259 670 263 650 q 256 708 256 690 q 268 740 256 726 q 299 764 279 755 q 378 784 340 784 q 430 772 416 784 q 453 743 444 760 q 470 676 470 709 q 455 628 470 643 q 418 605 440 613 q 344 590 381 590 q 293 602 307 590 q 271 632 279 614 z "},"":{"ha":926,"x_min":23,"x_max":935,"o":"m 38 1 q 23 23 23 3 l 23 136 q 27 151 23 147 q 43 156 32 155 l 106 153 l 374 1024 q 391 1038 378 1037 l 545 1044 q 562 1028 557 1043 l 854 158 l 916 160 q 935 138 935 159 l 935 31 q 930 16 935 20 q 914 13 926 13 l 600 13 q 586 18 588 13 q 584 33 584 24 l 597 132 q 603 148 599 144 q 618 151 607 151 l 695 153 l 637 334 l 301 340 l 246 144 l 328 152 q 339 149 336 152 q 344 136 342 145 l 354 33 q 348 18 353 22 q 334 13 344 14 l 38 1 m 333 456 l 597 456 l 454 892 l 333 456 m 271 1360 q 283 1370 275 1370 q 299 1366 291 1370 l 633 1179 q 639 1171 639 1175 q 636 1160 639 1167 l 610 1098 q 602 1091 607 1091 q 592 1093 597 1091 l 231 1224 q 220 1236 220 1228 q 223 1249 220 1244 l 271 1360 z "},"":{"ha":926,"x_min":23,"x_max":935,"o":"m 38 1 q 23 23 23 3 l 23 136 q 27 151 23 147 q 43 156 32 155 l 106 153 l 374 1024 q 391 1038 378 1037 l 545 1044 q 562 1028 557 1043 l 854 158 l 916 160 q 935 138 935 159 l 935 31 q 930 16 935 20 q 914 13 926 13 l 600 13 q 586 18 588 13 q 584 33 584 24 l 597 132 q 603 148 599 144 q 618 151 607 151 l 695 153 l 637 334 l 301 340 l 246 144 l 328 152 q 339 149 336 152 q 344 136 342 145 l 354 33 q 348 18 353 22 q 334 13 344 14 l 38 1 m 333 456 l 597 456 l 454 892 l 333 456 m 698 1249 q 701 1236 701 1244 q 690 1224 701 1228 l 355 1084 q 345 1082 350 1082 q 338 1088 340 1082 l 311 1151 q 309 1162 309 1158 q 315 1169 309 1166 l 622 1366 q 638 1370 630 1370 q 650 1360 646 1370 l 698 1249 z "},"":{"ha":926,"x_min":23,"x_max":935,"o":"m 38 1 q 23 23 23 3 l 23 136 q 27 151 23 147 q 43 156 32 155 l 106 153 l 374 1024 q 391 1038 378 1037 l 545 1044 q 562 1028 557 1043 l 854 158 l 916 160 q 935 138 935 159 l 935 31 q 930 16 935 20 q 914 13 926 13 l 600 13 q 586 18 588 13 q 584 33 584 24 l 597 132 q 603 148 599 144 q 618 151 607 151 l 695 153 l 637 334 l 301 340 l 246 144 l 328 152 q 339 149 336 152 q 344 136 342 145 l 354 33 q 348 18 353 22 q 334 13 344 14 l 38 1 m 333 456 l 597 456 l 454 892 l 333 456 m 400 1346 q 431 1363 420 1362 l 495 1370 q 526 1352 506 1370 l 731 1182 q 736 1172 736 1177 q 732 1162 736 1167 l 690 1113 q 683 1109 687 1109 q 674 1112 680 1109 l 457 1219 l 256 1115 q 249 1114 253 1114 q 241 1119 245 1114 l 199 1171 q 195 1179 195 1176 q 198 1185 195 1183 l 400 1346 z "},"":{"ha":926,"x_min":23,"x_max":935,"o":"m 38 1 q 23 23 23 3 l 23 136 q 27 151 23 147 q 43 156 32 155 l 106 153 l 374 1024 q 391 1038 378 1037 l 545 1044 q 562 1028 557 1043 l 854 158 l 916 160 q 935 138 935 159 l 935 31 q 930 16 935 20 q 914 13 926 13 l 600 13 q 586 18 588 13 q 584 33 584 24 l 597 132 q 603 148 599 144 q 618 151 607 151 l 695 153 l 637 334 l 301 340 l 246 144 l 328 152 q 339 149 336 152 q 344 136 342 145 l 354 33 q 348 18 353 22 q 334 13 344 14 l 38 1 m 333 456 l 597 456 l 454 892 l 333 456 m 180 1249 q 215 1290 180 1261 q 272 1333 249 1318 q 359 1364 323 1364 q 433 1339 387 1364 q 505 1301 479 1314 q 550 1289 532 1289 q 586 1293 569 1289 q 618 1303 602 1297 q 648 1317 633 1310 l 673 1331 q 703 1343 696 1343 q 715 1331 711 1343 l 738 1278 q 739 1270 739 1274 q 707 1231 739 1261 q 651 1184 675 1200 q 564 1146 597 1146 q 504 1158 531 1146 q 450 1183 477 1170 q 359 1219 378 1219 q 327 1216 340 1219 q 300 1207 314 1213 q 273 1196 286 1202 l 247 1184 q 218 1174 225 1174 q 202 1187 207 1174 l 180 1249 z "},"":{"ha":926,"x_min":23,"x_max":935,"o":"m 38 1 q 23 23 23 3 l 23 136 q 27 151 23 147 q 43 156 32 155 l 106 153 l 374 1024 q 391 1038 378 1037 l 545 1044 q 562 1028 557 1043 l 854 158 l 916 160 q 935 138 935 159 l 935 31 q 930 16 935 20 q 914 13 926 13 l 600 13 q 586 18 588 13 q 584 33 584 24 l 597 132 q 603 148 599 144 q 618 151 607 151 l 695 153 l 637 334 l 301 340 l 246 144 l 328 152 q 339 149 336 152 q 344 136 342 145 l 354 33 q 348 18 353 22 q 334 13 344 14 l 38 1 m 333 456 l 597 456 l 454 892 l 333 456 m 378 1187 q 371 1182 378 1187 q 343 1173 365 1177 q 293 1170 321 1170 q 248 1174 264 1170 q 222 1188 232 1178 q 204 1245 204 1206 q 209 1302 204 1284 q 225 1331 213 1320 q 293 1348 246 1348 q 356 1345 340 1348 q 381 1332 372 1341 q 400 1275 400 1315 q 395 1216 400 1235 q 378 1187 391 1197 m 697 1187 q 691 1182 697 1187 q 663 1173 684 1177 q 612 1170 641 1170 q 567 1174 583 1170 q 542 1188 551 1178 q 524 1245 524 1206 q 528 1302 524 1284 q 545 1331 532 1320 q 612 1348 566 1348 q 675 1345 659 1348 q 701 1332 691 1341 q 720 1275 720 1315 q 715 1216 720 1235 q 697 1187 710 1197 z "},"":{"ha":926,"x_min":23,"x_max":935,"o":"m 655 1198 q 559 1035 655 1070 l 854 158 l 916 160 q 935 138 935 159 l 935 31 q 930 16 935 20 q 914 13 926 13 l 600 13 q 586 18 588 13 q 584 33 584 24 l 597 132 q 603 148 599 144 q 618 151 607 151 l 695 153 l 637 334 l 301 340 l 246 144 l 328 152 q 339 149 336 152 q 344 136 342 145 l 354 33 q 348 18 353 22 q 334 13 344 14 l 38 1 q 23 23 23 3 l 23 136 q 27 151 23 147 q 43 156 32 155 l 106 153 l 374 1024 l 378 1032 q 275 1184 275 1065 q 468 1363 275 1363 q 644 1270 612 1363 q 655 1198 655 1238 m 333 456 l 597 456 l 454 892 l 333 456 m 386 1192 q 465 1116 386 1116 q 544 1167 529 1116 q 549 1206 549 1182 q 531 1251 549 1230 q 478 1271 513 1271 q 426 1264 443 1271 q 401 1245 410 1257 q 386 1192 386 1227 z "},"":{"ha":1291,"x_min":23,"x_max":1265,"o":"m 1044 551 q 1062 534 1062 549 l 1053 428 q 1041 412 1052 412 l 772 408 l 772 138 l 1108 151 l 1114 233 q 1143 259 1117 258 l 1234 262 q 1255 241 1253 262 l 1265 -28 q 1251 -43 1265 -43 l 1110 -41 q 1095 -23 1095 -41 l 1098 18 l 535 1 q 519 18 520 1 l 524 139 q 536 155 524 153 l 622 144 l 633 404 l 361 397 l 261 145 l 328 152 q 339 149 336 152 q 344 136 342 145 l 354 33 q 348 18 353 22 q 334 13 344 14 l 38 1 q 23 23 23 3 l 23 136 q 27 151 23 147 q 43 156 32 155 l 112 153 l 463 1010 q 481 1025 469 1023 l 1170 1053 q 1190 1035 1190 1052 l 1183 794 q 1170 776 1183 778 l 1060 755 q 1048 760 1050 755 q 1044 773 1045 764 l 1036 915 l 787 911 l 774 531 l 1044 551 m 409 515 l 636 526 l 640 914 l 570 918 l 409 515 z "},"":{"ha":926,"x_min":88,"x_max":842,"o":"m 539 -254 q 595 -207 595 -254 q 583 -173 595 -187 q 551 -159 570 -159 q 524 -160 532 -159 q 508 -161 516 -161 q 486 -164 489 -164 q 474 -156 482 -164 q 458 -136 467 -147 q 436 -100 436 -110 l 454 -27 q 111 292 183 -19 q 88 530 88 394 q 117 765 88 667 q 197 925 145 863 q 479 1044 296 1044 q 673 1019 595 1044 l 795 1038 q 824 1011 823 1038 l 816 715 q 801 698 816 698 l 687 695 q 673 711 674 695 l 659 885 q 506 905 576 905 q 388 885 436 905 q 309 818 340 864 q 248 519 248 728 q 401 140 248 202 q 524 119 452 119 q 675 145 595 119 l 672 236 q 688 251 673 248 l 801 270 q 815 254 812 270 l 842 -10 q 827 -22 842 -21 l 710 -33 q 682 -6 683 -33 l 680 22 q 541 -22 613 -13 l 533 -76 q 593 -70 561 -70 q 647 -81 625 -70 q 685 -110 669 -92 q 715 -217 715 -147 q 547 -354 715 -354 q 418 -332 470 -354 q 404 -319 404 -326 l 418 -247 q 431 -235 420 -235 q 454 -240 435 -235 q 539 -254 509 -254 z "},"":{"ha":926,"x_min":79,"x_max":863,"o":"m 863 -28 q 848 -43 860 -43 l 721 -41 q 706 -23 706 -41 l 705 18 l 99 1 q 83 18 83 1 l 87 142 q 98 155 87 153 l 182 144 l 177 882 l 92 875 q 79 890 79 875 l 87 1013 q 103 1027 88 1026 l 781 1053 q 801 1035 801 1052 l 787 787 q 777 772 787 772 l 663 776 q 651 781 653 777 q 648 793 649 785 l 644 910 l 323 893 l 328 577 l 661 598 q 680 583 678 598 l 684 469 q 670 453 683 453 l 330 448 l 334 138 l 701 151 l 698 239 q 726 266 699 264 l 836 262 q 852 250 852 261 l 863 -28 m 275 1360 q 287 1370 279 1370 q 303 1366 295 1370 l 637 1179 q 643 1171 643 1175 q 640 1160 643 1167 l 614 1098 q 606 1091 611 1091 q 596 1093 601 1091 l 235 1224 q 224 1236 224 1228 q 227 1249 224 1244 l 275 1360 z "},"":{"ha":926,"x_min":79,"x_max":863,"o":"m 863 -28 q 848 -43 860 -43 l 721 -41 q 706 -23 706 -41 l 705 18 l 99 1 q 83 18 83 1 l 87 142 q 98 155 87 153 l 182 144 l 177 882 l 92 875 q 79 890 79 875 l 87 1013 q 103 1027 88 1026 l 781 1053 q 801 1035 801 1052 l 787 787 q 777 772 787 772 l 663 776 q 651 781 653 777 q 648 793 649 785 l 644 910 l 323 893 l 328 577 l 661 598 q 680 583 678 598 l 684 469 q 670 453 683 453 l 330 448 l 334 138 l 701 151 l 698 239 q 726 266 699 264 l 836 262 q 852 250 852 261 l 863 -28 m 702 1249 q 705 1236 705 1244 q 694 1224 705 1228 l 359 1084 q 349 1082 354 1082 q 342 1088 345 1082 l 315 1151 q 313 1162 313 1158 q 319 1169 313 1166 l 626 1366 q 642 1370 634 1370 q 654 1360 650 1370 l 702 1249 z "},"":{"ha":926,"x_min":79,"x_max":863,"o":"m 863 -28 q 848 -43 860 -43 l 721 -41 q 706 -23 706 -41 l 705 18 l 99 1 q 83 18 83 1 l 87 142 q 98 155 87 153 l 182 144 l 177 882 l 92 875 q 79 890 79 875 l 87 1013 q 103 1027 88 1026 l 781 1053 q 801 1035 801 1052 l 787 787 q 777 772 787 772 l 663 776 q 651 781 653 777 q 648 793 649 785 l 644 910 l 323 893 l 328 577 l 661 598 q 680 583 678 598 l 684 469 q 670 453 683 453 l 330 448 l 334 138 l 701 151 l 698 239 q 726 266 699 264 l 836 262 q 852 250 852 261 l 863 -28 m 404 1346 q 435 1363 424 1362 l 499 1370 q 530 1352 510 1370 l 735 1182 q 740 1172 740 1177 q 736 1162 740 1167 l 694 1113 q 687 1109 691 1109 q 678 1112 684 1109 l 461 1219 l 260 1115 q 253 1114 257 1114 q 245 1119 249 1114 l 203 1171 q 199 1179 199 1176 q 202 1185 199 1183 l 404 1346 z "},"":{"ha":926,"x_min":79,"x_max":863,"o":"m 863 -28 q 848 -43 860 -43 l 721 -41 q 706 -23 706 -41 l 705 18 l 99 1 q 83 18 83 1 l 87 142 q 98 155 87 153 l 182 144 l 177 882 l 92 875 q 79 890 79 875 l 87 1013 q 103 1027 88 1026 l 781 1053 q 801 1035 801 1052 l 787 787 q 777 772 787 772 l 663 776 q 651 781 653 777 q 648 793 649 785 l 644 910 l 323 893 l 328 577 l 661 598 q 680 583 678 598 l 684 469 q 670 453 683 453 l 330 448 l 334 138 l 701 151 l 698 239 q 726 266 699 264 l 836 262 q 852 250 852 261 l 863 -28 m 382 1187 q 375 1182 382 1187 q 347 1173 369 1177 q 297 1170 326 1170 q 252 1174 268 1170 q 227 1188 236 1178 q 208 1245 208 1206 q 213 1302 208 1284 q 229 1331 217 1320 q 297 1348 250 1348 q 360 1345 344 1348 q 385 1332 376 1341 q 404 1275 404 1315 q 399 1216 404 1235 q 382 1187 395 1197 m 701 1187 q 695 1182 701 1187 q 667 1173 688 1177 q 616 1170 645 1170 q 571 1174 587 1170 q 546 1188 555 1178 q 528 1245 528 1206 q 532 1302 528 1284 q 549 1331 536 1320 q 616 1348 570 1348 q 679 1345 663 1348 q 705 1332 695 1341 q 724 1275 724 1315 q 719 1216 724 1235 q 701 1187 714 1197 z "},"":{"ha":463,"x_min":-10,"x_max":408,"o":"m 397 142 q 408 130 408 142 l 406 9 q 389 -5 406 -5 l 75 4 q 62 20 63 4 l 57 140 q 68 153 58 151 l 162 146 l 157 885 l 64 886 q 52 901 52 886 l 62 1020 q 67 1030 63 1028 q 79 1034 71 1033 l 395 1022 q 405 1018 403 1021 q 408 1006 407 1015 l 403 899 q 387 884 401 884 l 308 884 l 306 142 l 397 142 m 40 1360 q 52 1370 44 1370 q 68 1366 60 1370 l 402 1179 q 408 1171 408 1175 q 406 1160 408 1167 l 379 1098 q 371 1091 376 1091 q 361 1093 366 1091 l 0 1224 q -10 1236 -10 1228 q -7 1249 -10 1244 l 40 1360 z "},"":{"ha":463,"x_min":52,"x_max":470,"o":"m 397 142 q 408 130 408 142 l 406 9 q 389 -5 406 -5 l 75 4 q 62 20 63 4 l 57 140 q 68 153 58 151 l 162 146 l 157 885 l 64 886 q 52 901 52 886 l 62 1020 q 67 1030 63 1028 q 79 1034 71 1033 l 395 1022 q 405 1018 403 1021 q 408 1006 407 1015 l 403 899 q 387 884 401 884 l 308 884 l 306 142 l 397 142 m 467 1249 q 470 1236 470 1244 q 460 1224 470 1228 l 125 1084 q 115 1082 119 1082 q 107 1088 110 1082 l 81 1151 q 78 1162 78 1158 q 84 1169 78 1166 l 391 1366 q 408 1370 399 1370 q 420 1360 416 1370 l 467 1249 z "},"":{"ha":463,"x_min":-36,"x_max":505,"o":"m 397 142 q 408 130 408 142 l 406 9 q 389 -5 406 -5 l 75 4 q 62 20 63 4 l 57 140 q 68 153 58 151 l 162 146 l 157 885 l 64 886 q 52 901 52 886 l 62 1020 q 67 1030 63 1028 q 79 1034 71 1033 l 395 1022 q 405 1018 403 1021 q 408 1006 407 1015 l 403 899 q 387 884 401 884 l 308 884 l 306 142 l 397 142 m 170 1346 q 200 1363 189 1362 l 264 1370 q 296 1352 275 1370 l 500 1182 q 505 1172 505 1177 q 501 1162 505 1167 l 460 1113 q 453 1109 456 1109 q 444 1112 449 1109 l 227 1219 l 25 1115 q 18 1114 22 1114 q 10 1119 14 1114 l -32 1171 q -36 1179 -36 1176 q -33 1185 -36 1183 l 170 1346 z "},"":{"ha":463,"x_min":-26,"x_max":489,"o":"m 397 142 q 408 130 408 142 l 406 9 q 389 -5 406 -5 l 75 4 q 62 20 63 4 l 57 140 q 68 153 58 151 l 162 146 l 157 885 l 64 886 q 52 901 52 886 l 62 1020 q 67 1030 63 1028 q 79 1034 71 1033 l 395 1022 q 405 1018 403 1021 q 408 1006 407 1015 l 403 899 q 387 884 401 884 l 308 884 l 306 142 l 397 142 m 147 1187 q 141 1182 147 1187 q 113 1173 134 1177 q 62 1170 91 1170 q 17 1174 33 1170 q -8 1188 1 1178 q -26 1245 -26 1206 q -22 1302 -26 1284 q -5 1331 -18 1320 q 62 1348 16 1348 q 125 1345 109 1348 q 151 1332 141 1341 q 170 1275 170 1315 q 165 1216 170 1235 q 147 1187 160 1197 m 467 1187 q 460 1182 467 1187 q 432 1173 454 1177 q 381 1170 410 1170 q 337 1174 353 1170 q 311 1188 321 1178 q 293 1245 293 1206 q 297 1302 293 1284 q 314 1331 302 1320 q 382 1348 335 1348 q 445 1345 429 1348 q 471 1332 460 1341 q 489 1275 489 1315 q 484 1216 489 1235 q 467 1187 479 1197 z "},"":{"ha":926,"x_min":49,"x_max":854,"o":"m 167 890 q 71 882 125 888 q 62 886 64 882 q 59 897 60 889 l 50 1023 q 54 1034 50 1031 q 66 1038 58 1036 q 183 1040 133 1039 q 270 1042 233 1042 q 333 1043 307 1043 q 378 1044 359 1044 q 412 1044 397 1044 l 441 1044 q 741 939 643 1044 q 854 533 854 817 q 739 122 854 265 q 437 -13 630 -13 q 68 4 235 -13 q 56 20 57 5 l 64 140 q 75 153 66 151 l 149 148 l 155 408 l 66 404 q 50 417 50 406 l 49 506 q 60 519 49 519 l 158 521 l 167 890 m 307 139 q 390 135 364 135 l 433 135 q 636 231 571 135 q 701 516 701 326 q 549 888 701 831 q 461 906 500 906 q 315 901 393 906 l 311 524 l 318 524 l 526 538 q 536 526 536 538 l 538 435 l 538 433 q 530 420 538 421 l 310 416 l 307 139 z "},"":{"ha":1042,"x_min":57,"x_max":998,"o":"m 998 899 q 983 884 998 884 l 897 886 l 895 26 q 879 7 895 8 l 715 -2 q 699 13 706 -2 l 300 898 l 316 156 l 422 163 q 433 150 432 163 l 445 16 q 429 2 444 2 l 100 4 q 88 20 91 4 l 76 134 q 87 146 77 146 l 193 149 l 193 882 l 69 877 q 60 881 62 878 q 57 892 58 884 l 64 1011 q 81 1025 66 1024 l 379 1040 q 404 1021 397 1039 l 789 157 l 771 889 l 666 892 q 656 896 659 892 q 654 907 654 899 l 658 1020 q 674 1034 659 1034 l 977 1036 q 987 1032 985 1035 q 989 1020 989 1029 l 998 899 m 239 1249 q 274 1290 239 1261 q 331 1333 308 1318 q 418 1364 382 1364 q 492 1339 446 1364 q 564 1301 538 1314 q 609 1289 591 1289 q 645 1293 628 1289 q 677 1303 661 1297 q 707 1317 692 1310 l 732 1331 q 762 1343 755 1343 q 774 1331 770 1343 l 797 1278 q 798 1270 798 1274 q 766 1231 798 1261 q 711 1184 734 1200 q 623 1146 656 1146 q 563 1158 590 1146 q 509 1183 536 1170 q 418 1219 437 1219 q 386 1216 399 1219 q 359 1207 373 1213 q 331 1196 345 1202 l 306 1184 q 277 1174 284 1174 q 261 1187 266 1174 l 239 1249 z "},"":{"ha":926,"x_min":71,"x_max":854,"o":"m 854 509 q 474 -7 854 -7 q 173 124 275 -7 q 71 509 71 254 q 286 1009 71 902 q 455 1044 358 1044 q 626 1015 551 1044 q 751 920 700 985 q 854 509 854 789 m 701 518 q 685 698 701 623 q 637 815 669 772 q 560 874 606 858 q 453 890 515 890 q 347 867 391 890 q 274 797 302 844 q 223 512 223 709 q 287 225 223 311 q 479 147 346 147 q 652 233 600 147 q 701 518 701 316 m 273 1360 q 286 1370 277 1370 q 302 1366 294 1370 l 635 1179 q 642 1171 642 1175 q 639 1160 642 1167 l 612 1098 q 605 1091 610 1091 q 595 1093 600 1091 l 233 1224 q 223 1236 223 1228 q 226 1249 223 1244 l 273 1360 z "},"":{"ha":926,"x_min":71,"x_max":854,"o":"m 854 509 q 474 -7 854 -7 q 173 124 275 -7 q 71 509 71 254 q 286 1009 71 902 q 455 1044 358 1044 q 626 1015 551 1044 q 751 920 700 985 q 854 509 854 789 m 701 518 q 685 698 701 623 q 637 815 669 772 q 560 874 606 858 q 453 890 515 890 q 347 867 391 890 q 274 797 302 844 q 223 512 223 709 q 287 225 223 311 q 479 147 346 147 q 652 233 600 147 q 701 518 701 316 m 701 1249 q 703 1236 703 1244 q 693 1224 703 1228 l 358 1084 q 348 1082 353 1082 q 340 1088 343 1082 l 314 1151 q 311 1162 311 1158 q 317 1169 311 1166 l 625 1366 q 641 1370 633 1370 q 653 1360 649 1370 l 701 1249 z "},"":{"ha":926,"x_min":71,"x_max":854,"o":"m 854 509 q 474 -7 854 -7 q 173 124 275 -7 q 71 509 71 254 q 286 1009 71 902 q 455 1044 358 1044 q 626 1015 551 1044 q 751 920 700 985 q 854 509 854 789 m 701 518 q 685 698 701 623 q 637 815 669 772 q 560 874 606 858 q 453 890 515 890 q 347 867 391 890 q 274 797 302 844 q 223 512 223 709 q 287 225 223 311 q 479 147 346 147 q 652 233 600 147 q 701 518 701 316 m 403 1346 q 433 1363 422 1362 l 498 1370 q 529 1352 509 1370 l 734 1182 q 739 1172 739 1177 q 734 1162 739 1167 l 693 1113 q 686 1109 690 1109 q 677 1112 682 1109 l 460 1219 l 258 1115 q 252 1114 256 1114 q 243 1119 248 1114 l 201 1171 q 197 1179 197 1176 q 201 1185 197 1183 l 403 1346 z "},"":{"ha":926,"x_min":71,"x_max":854,"o":"m 854 509 q 474 -7 854 -7 q 173 124 275 -7 q 71 509 71 254 q 286 1009 71 902 q 455 1044 358 1044 q 626 1015 551 1044 q 751 920 700 985 q 854 509 854 789 m 701 518 q 685 698 701 623 q 637 815 669 772 q 560 874 606 858 q 453 890 515 890 q 347 867 391 890 q 274 797 302 844 q 223 512 223 709 q 287 225 223 311 q 479 147 346 147 q 652 233 600 147 q 701 518 701 316 m 183 1249 q 217 1290 183 1261 q 275 1333 252 1318 q 361 1364 326 1364 q 436 1339 390 1364 q 508 1301 481 1314 q 553 1289 534 1289 q 588 1293 572 1289 q 621 1303 605 1297 q 650 1317 636 1310 l 676 1331 q 706 1343 699 1343 q 718 1331 713 1343 l 741 1278 q 742 1270 742 1274 q 710 1231 742 1261 q 654 1184 677 1200 q 567 1146 600 1146 q 507 1158 534 1146 q 453 1183 480 1170 q 362 1219 381 1219 q 330 1216 343 1219 q 303 1207 317 1213 q 275 1196 289 1202 l 250 1184 q 220 1174 228 1174 q 205 1187 210 1174 l 183 1249 z "},"":{"ha":926,"x_min":71,"x_max":854,"o":"m 854 509 q 474 -7 854 -7 q 173 124 275 -7 q 71 509 71 254 q 286 1009 71 902 q 455 1044 358 1044 q 626 1015 551 1044 q 751 920 700 985 q 854 509 854 789 m 701 518 q 685 698 701 623 q 637 815 669 772 q 560 874 606 858 q 453 890 515 890 q 347 867 391 890 q 274 797 302 844 q 223 512 223 709 q 287 225 223 311 q 479 147 346 147 q 652 233 600 147 q 701 518 701 316 m 380 1187 q 374 1182 380 1187 q 346 1173 368 1177 q 295 1170 324 1170 q 251 1174 267 1170 q 225 1188 235 1178 q 207 1245 207 1206 q 211 1302 207 1284 q 228 1331 216 1320 q 296 1348 249 1348 q 358 1345 342 1348 q 384 1332 374 1341 q 403 1275 403 1315 q 398 1216 403 1235 q 380 1187 393 1197 m 700 1187 q 693 1182 700 1187 q 665 1173 687 1177 q 615 1170 644 1170 q 570 1174 586 1170 q 545 1188 554 1178 q 526 1245 526 1206 q 531 1302 526 1284 q 547 1331 535 1320 q 615 1348 568 1348 q 678 1345 662 1348 q 704 1332 694 1341 q 722 1275 722 1315 q 718 1216 722 1235 q 700 1187 713 1197 z "},"":{"ha":810,"x_min":116,"x_max":695,"o":"m 689 603 q 694 593 694 598 q 687 582 694 589 l 485 395 l 692 215 q 695 208 695 212 q 691 197 695 203 l 612 108 q 604 102 608 102 q 591 110 599 102 l 401 310 l 219 99 q 210 94 215 94 q 199 100 204 94 l 122 184 q 117 193 117 189 q 121 200 117 197 l 320 391 l 121 576 q 116 585 116 581 q 121 595 116 589 l 197 682 q 206 688 202 688 q 214 683 210 688 l 402 477 l 590 690 q 600 694 595 694 q 609 690 605 694 l 689 603 z "},"":{"ha":926,"x_min":72,"x_max":855,"o":"m 855 509 q 475 -7 855 -7 q 336 13 399 -7 l 286 -132 q 276 -142 282 -142 q 267 -141 269 -142 l 187 -109 q 176 -98 176 -105 q 177 -90 176 -92 l 238 61 q 72 509 72 183 q 287 1009 72 902 q 449 1044 359 1044 q 605 1022 538 1044 l 652 1154 q 662 1165 656 1165 q 671 1164 668 1165 l 751 1135 q 762 1124 762 1132 q 760 1116 762 1122 l 700 971 q 855 509 855 849 m 553 877 q 454 890 515 890 q 347 867 392 890 q 275 797 302 844 q 224 512 224 709 q 298 212 224 293 l 437 553 l 553 877 m 636 817 l 513 518 l 387 158 q 484 147 427 147 q 584 169 541 147 q 652 233 627 190 q 702 523 702 316 q 636 817 702 730 z "},"":{"ha":1043,"x_min":52,"x_max":970,"o":"m 960 136 q 970 123 970 136 l 962 2 q 945 -12 960 -12 l 713 -16 q 697 0 697 -16 l 698 154 q 566 46 640 85 q 421 8 493 8 q 300 32 350 8 q 217 100 251 55 q 149 365 149 192 q 159 684 149 548 l 175 886 l 64 877 q 55 880 56 877 q 52 892 53 883 l 59 1018 q 75 1032 60 1031 l 368 1042 q 380 1027 380 1041 l 371 907 q 355 892 369 892 l 323 892 q 316 777 319 828 l 311 686 q 303 422 303 553 q 455 167 303 167 q 647 227 551 167 q 699 264 676 244 l 703 868 l 630 865 q 621 880 621 865 l 625 1006 q 641 1021 626 1021 l 945 1029 q 957 1013 957 1027 l 959 892 q 943 877 959 877 l 848 873 l 848 125 l 960 136 m 328 1360 q 340 1370 332 1370 q 357 1366 349 1370 l 690 1179 q 696 1171 696 1175 q 694 1160 696 1167 l 667 1098 q 660 1091 665 1091 q 650 1093 654 1091 l 288 1224 q 278 1236 278 1228 q 281 1249 278 1244 l 328 1360 z "},"":{"ha":1043,"x_min":52,"x_max":970,"o":"m 960 136 q 970 123 970 136 l 962 2 q 945 -12 960 -12 l 713 -16 q 697 0 697 -16 l 698 154 q 566 46 640 85 q 421 8 493 8 q 300 32 350 8 q 217 100 251 55 q 149 365 149 192 q 159 684 149 548 l 175 886 l 64 877 q 55 880 56 877 q 52 892 53 883 l 59 1018 q 75 1032 60 1031 l 368 1042 q 380 1027 380 1041 l 371 907 q 355 892 369 892 l 323 892 q 316 777 319 828 l 311 686 q 303 422 303 553 q 455 167 303 167 q 647 227 551 167 q 699 264 676 244 l 703 868 l 630 865 q 621 880 621 865 l 625 1006 q 641 1021 626 1021 l 945 1029 q 957 1013 957 1027 l 959 892 q 943 877 959 877 l 848 873 l 848 125 l 960 136 m 755 1249 q 758 1236 758 1244 q 748 1224 758 1228 l 413 1084 q 403 1082 408 1082 q 395 1088 398 1082 l 369 1151 q 366 1162 366 1158 q 372 1169 366 1166 l 680 1366 q 696 1370 688 1370 q 708 1360 704 1370 l 755 1249 z "},"":{"ha":1043,"x_min":52,"x_max":970,"o":"m 960 136 q 970 123 970 136 l 962 2 q 945 -12 960 -12 l 713 -16 q 697 0 697 -16 l 698 154 q 566 46 640 85 q 421 8 493 8 q 300 32 350 8 q 217 100 251 55 q 149 365 149 192 q 159 684 149 548 l 175 886 l 64 877 q 55 880 56 877 q 52 892 53 883 l 59 1018 q 75 1032 60 1031 l 368 1042 q 380 1027 380 1041 l 371 907 q 355 892 369 892 l 323 892 q 316 777 319 828 l 311 686 q 303 422 303 553 q 455 167 303 167 q 647 227 551 167 q 699 264 676 244 l 703 868 l 630 865 q 621 880 621 865 l 625 1006 q 641 1021 626 1021 l 945 1029 q 957 1013 957 1027 l 959 892 q 943 877 959 877 l 848 873 l 848 125 l 960 136 m 458 1346 q 488 1363 477 1362 l 553 1370 q 584 1352 564 1370 l 789 1182 q 793 1172 793 1177 q 789 1162 793 1167 l 748 1113 q 741 1109 745 1109 q 732 1112 737 1109 l 515 1219 l 313 1115 q 307 1114 311 1114 q 298 1119 302 1114 l 256 1171 q 252 1179 252 1176 q 256 1185 252 1183 l 458 1346 z "},"":{"ha":1043,"x_min":52,"x_max":970,"o":"m 960 136 q 970 123 970 136 l 962 2 q 945 -12 960 -12 l 713 -16 q 697 0 697 -16 l 698 154 q 566 46 640 85 q 421 8 493 8 q 300 32 350 8 q 217 100 251 55 q 149 365 149 192 q 159 684 149 548 l 175 886 l 64 877 q 55 880 56 877 q 52 892 53 883 l 59 1018 q 75 1032 60 1031 l 368 1042 q 380 1027 380 1041 l 371 907 q 355 892 369 892 l 323 892 q 316 777 319 828 l 311 686 q 303 422 303 553 q 455 167 303 167 q 647 227 551 167 q 699 264 676 244 l 703 868 l 630 865 q 621 880 621 865 l 625 1006 q 641 1021 626 1021 l 945 1029 q 957 1013 957 1027 l 959 892 q 943 877 959 877 l 848 873 l 848 125 l 960 136 m 435 1187 q 429 1182 435 1187 q 401 1173 422 1177 q 350 1170 379 1170 q 306 1174 321 1170 q 280 1188 290 1178 q 262 1245 262 1206 q 266 1302 262 1284 q 283 1331 271 1320 q 351 1348 304 1348 q 413 1345 397 1348 q 439 1332 429 1341 q 458 1275 458 1315 q 453 1216 458 1235 q 435 1187 448 1197 m 755 1187 q 748 1182 755 1187 q 720 1173 742 1177 q 670 1170 699 1170 q 625 1174 641 1170 q 600 1188 609 1178 q 581 1245 581 1206 q 586 1302 581 1284 q 602 1331 590 1320 q 670 1348 623 1348 q 733 1345 717 1348 q 758 1332 749 1341 q 777 1275 777 1315 q 772 1216 777 1235 q 755 1187 768 1197 z "},"":{"ha":926,"x_min":19,"x_max":912,"o":"m 652 146 q 665 131 665 146 l 654 12 q 649 1 653 3 q 637 -3 646 -1 l 277 7 q 267 11 269 7 q 264 23 265 14 l 269 138 q 285 153 271 153 l 391 151 l 393 379 l 103 886 l 45 882 q 26 904 26 882 l 19 1019 q 24 1034 19 1031 q 40 1038 28 1038 l 368 1038 q 382 1032 380 1038 q 384 1017 384 1027 l 377 905 q 372 890 376 894 q 357 886 368 887 l 282 889 l 484 483 l 680 884 l 593 882 q 582 885 585 882 q 578 897 579 888 l 568 1010 q 588 1031 569 1031 l 897 1036 q 912 1014 912 1034 l 905 904 q 901 889 905 893 q 885 884 897 884 l 826 884 l 545 378 l 540 148 l 652 146 m 703 1249 q 705 1236 705 1244 q 695 1224 705 1228 l 360 1084 q 350 1082 355 1082 q 342 1088 345 1082 l 316 1151 q 313 1162 313 1158 q 319 1169 313 1166 l 627 1366 q 643 1370 635 1370 q 655 1360 651 1370 l 703 1249 z "},"":{"ha":926,"x_min":76,"x_max":899,"o":"m 77 1025 q 89 1040 77 1040 l 427 1046 q 439 1042 435 1044 q 444 1031 443 1040 l 437 912 q 435 900 437 903 q 425 897 433 897 l 332 898 l 332 793 q 541 815 454 815 q 690 801 627 815 q 799 753 753 786 q 899 538 899 684 q 795 312 899 381 q 496 248 699 248 q 326 261 415 248 l 325 140 l 454 149 q 467 136 467 149 l 472 16 q 456 2 471 2 l 104 -3 q 88 14 90 -3 l 76 134 q 87 146 77 144 l 167 142 l 184 895 l 95 890 q 79 905 79 890 l 77 1025 m 328 399 q 509 385 450 385 q 608 391 568 385 q 677 415 648 398 q 741 536 741 452 q 613 678 741 659 q 527 684 575 684 q 330 668 443 684 l 328 399 z "},"":{"ha":925,"x_min":50,"x_max":912,"o":"m 159 888 q 533 1116 159 1116 q 748 1067 678 1116 q 817 915 817 1018 q 781 772 817 828 q 728 709 761 742 l 648 631 q 609 588 625 608 q 593 541 593 567 q 625 494 593 515 q 717 451 658 474 q 813 408 776 429 q 873 360 851 387 q 912 205 912 312 q 779 7 912 50 q 678 -6 737 -6 q 432 22 584 -6 q 404 48 406 26 l 416 157 q 435 172 419 172 q 482 159 444 172 q 540 140 520 146 q 579 130 559 134 q 667 120 624 120 q 742 145 711 120 q 773 211 773 171 q 757 272 773 251 q 688 311 741 293 l 585 349 q 456 445 484 387 q 441 515 441 476 q 452 582 441 555 q 479 635 462 610 q 548 719 506 677 q 609 782 589 760 q 642 823 629 804 q 667 904 667 860 q 634 967 667 948 q 553 986 601 986 q 476 985 505 986 q 421 979 448 983 q 372 964 395 974 q 334 936 350 954 q 298 825 298 897 q 300 744 298 782 l 304 678 q 308 621 306 649 l 308 140 l 296 14 q 291 3 294 5 q 279 0 288 1 l 87 4 q 78 20 78 4 l 71 123 q 82 136 71 136 l 170 137 l 170 602 l 64 595 q 50 607 52 597 l 56 726 q 71 741 58 741 l 165 741 q 159 834 159 802 l 159 888 z "},"":{"ha":811,"x_min":71,"x_max":783,"o":"m 490 781 q 690 531 690 781 q 688 378 690 472 l 683 245 q 680 170 682 205 l 677 105 l 718 109 q 768 113 740 110 q 783 100 783 113 l 770 -7 q 755 -21 768 -20 l 559 -33 q 550 -18 550 -33 l 559 61 q 313 -26 446 -26 q 142 34 210 -26 q 71 205 71 98 q 168 403 71 346 q 450 453 254 453 q 536 451 490 453 q 537 484 537 469 l 537 509 q 421 642 537 642 q 272 605 361 642 l 275 579 q 276 559 276 566 q 261 544 276 544 l 146 542 q 133 557 134 544 l 121 751 q 136 769 121 767 l 250 784 q 264 769 264 784 l 264 713 q 490 781 385 781 m 361 102 q 532 146 439 102 q 534 245 534 191 q 536 352 534 299 q 288 321 357 352 q 224 227 224 293 q 361 102 224 102 m 294 1220 q 308 1227 300 1227 q 323 1220 317 1227 l 583 935 q 586 925 586 930 q 581 912 586 919 l 535 866 q 526 862 531 862 q 519 865 522 862 l 205 1095 q 200 1107 200 1100 q 203 1118 200 1114 l 294 1220 z "},"":{"ha":811,"x_min":71,"x_max":783,"o":"m 490 781 q 690 531 690 781 q 688 378 690 472 l 683 245 q 680 170 682 205 l 677 105 l 718 109 q 768 113 740 110 q 783 100 783 113 l 770 -7 q 755 -21 768 -20 l 559 -33 q 550 -18 550 -33 l 559 61 q 313 -26 446 -26 q 142 34 210 -26 q 71 205 71 98 q 168 403 71 346 q 450 453 254 453 q 536 451 490 453 q 537 484 537 469 l 537 509 q 421 642 537 642 q 272 605 361 642 l 275 579 q 276 559 276 566 q 261 544 276 544 l 146 542 q 133 557 134 544 l 121 751 q 136 769 121 767 l 250 784 q 264 769 264 784 l 264 713 q 490 781 385 781 m 361 102 q 532 146 439 102 q 534 245 534 191 q 536 352 534 299 q 288 321 357 352 q 224 227 224 293 q 361 102 224 102 m 644 1118 q 647 1107 647 1114 q 642 1095 647 1100 l 328 865 q 320 862 324 862 q 312 866 316 862 l 267 912 q 261 925 261 919 q 264 935 261 930 l 524 1220 q 539 1227 530 1227 q 553 1220 547 1227 l 644 1118 z "},"":{"ha":811,"x_min":71,"x_max":783,"o":"m 490 781 q 690 531 690 781 q 688 378 690 472 l 683 245 q 680 170 682 205 l 677 105 l 718 109 q 768 113 740 110 q 783 100 783 113 l 770 -7 q 755 -21 768 -20 l 559 -33 q 550 -18 550 -33 l 559 61 q 313 -26 446 -26 q 142 34 210 -26 q 71 205 71 98 q 168 403 71 346 q 450 453 254 453 q 536 451 490 453 q 537 484 537 469 l 537 509 q 421 642 537 642 q 272 605 361 642 l 275 579 q 276 559 276 566 q 261 544 276 544 l 146 542 q 133 557 134 544 l 121 751 q 136 769 121 767 l 250 784 q 264 769 264 784 l 264 713 q 490 781 385 781 m 361 102 q 532 146 439 102 q 534 245 534 191 q 536 352 534 299 q 288 321 357 352 q 224 227 224 293 q 361 102 224 102 m 369 1183 q 397 1200 384 1198 l 466 1207 q 498 1187 481 1207 l 700 928 q 703 917 703 924 q 698 905 703 911 l 652 859 q 644 855 648 855 q 636 858 639 855 l 426 1048 l 223 860 q 213 856 218 856 q 203 861 208 856 l 155 910 q 150 920 150 916 q 153 928 150 924 l 369 1183 z "},"":{"ha":811,"x_min":71,"x_max":783,"o":"m 490 781 q 690 531 690 781 q 688 378 690 472 l 683 245 q 680 170 682 205 l 677 105 l 718 109 q 768 113 740 110 q 783 100 783 113 l 770 -7 q 755 -21 768 -20 l 559 -33 q 550 -18 550 -33 l 559 61 q 313 -26 446 -26 q 142 34 210 -26 q 71 205 71 98 q 168 403 71 346 q 450 453 254 453 q 536 451 490 453 q 537 484 537 469 l 537 509 q 421 642 537 642 q 272 605 361 642 l 275 579 q 276 559 276 566 q 261 544 276 544 l 146 542 q 133 557 134 544 l 121 751 q 136 769 121 767 l 250 784 q 264 769 264 784 l 264 713 q 490 781 385 781 m 361 102 q 532 146 439 102 q 534 245 534 191 q 536 352 534 299 q 288 321 357 352 q 224 227 224 293 q 361 102 224 102 m 161 991 q 194 1031 161 1002 q 249 1075 227 1061 q 325 1107 298 1107 q 376 1095 353 1107 q 425 1068 400 1082 q 509 1031 487 1031 q 548 1036 530 1031 q 582 1047 566 1040 q 612 1063 598 1055 l 636 1077 q 657 1086 650 1086 q 669 1073 664 1086 l 691 1020 q 692 1012 692 1017 q 681 994 692 1006 l 650 962 q 515 888 575 888 q 418 925 484 888 q 330 962 352 962 q 262 944 296 962 q 200 916 208 916 q 182 930 187 916 l 161 991 z "},"":{"ha":811,"x_min":71,"x_max":783,"o":"m 490 781 q 690 531 690 781 q 688 378 690 472 l 683 245 q 680 170 682 205 l 677 105 l 718 109 q 768 113 740 110 q 783 100 783 113 l 770 -7 q 755 -21 768 -20 l 559 -33 q 550 -18 550 -33 l 559 61 q 313 -26 446 -26 q 142 34 210 -26 q 71 205 71 98 q 168 403 71 346 q 450 453 254 453 q 536 451 490 453 q 537 484 537 469 l 537 509 q 421 642 537 642 q 272 605 361 642 l 275 579 q 276 559 276 566 q 261 544 276 544 l 146 542 q 133 557 134 544 l 121 751 q 136 769 121 767 l 250 784 q 264 769 264 784 l 264 713 q 490 781 385 781 m 361 102 q 532 146 439 102 q 534 245 534 191 q 536 352 534 299 q 288 321 357 352 q 224 227 224 293 q 361 102 224 102 m 342 924 q 336 919 342 924 q 308 910 330 913 q 257 907 286 907 q 213 911 229 907 q 187 925 197 915 q 169 982 169 943 q 173 1039 169 1021 q 190 1067 178 1057 q 258 1085 211 1085 q 320 1082 304 1085 q 346 1069 336 1078 q 365 1012 365 1052 q 360 953 365 972 q 342 924 355 934 m 662 924 q 655 919 662 924 q 627 910 649 913 q 577 907 606 907 q 532 911 548 907 q 507 925 516 915 q 488 982 488 943 q 493 1039 488 1021 q 509 1067 497 1057 q 577 1085 530 1085 q 640 1082 624 1085 q 666 1069 656 1078 q 684 1012 684 1052 q 680 953 684 972 q 662 924 675 934 z "},"":{"ha":811,"x_min":71,"x_max":783,"o":"m 490 781 q 690 531 690 781 q 688 378 690 472 l 683 245 q 680 170 682 205 l 677 105 l 718 109 q 768 113 740 110 q 783 100 783 113 l 770 -7 q 755 -21 768 -20 l 559 -33 q 550 -18 550 -33 l 559 61 q 313 -26 446 -26 q 142 34 210 -26 q 71 205 71 98 q 168 403 71 346 q 450 453 254 453 q 536 451 490 453 q 537 484 537 469 l 537 509 q 421 642 537 642 q 272 605 361 642 l 275 579 q 276 559 276 566 q 261 544 276 544 l 146 542 q 133 557 134 544 l 121 751 q 136 769 121 767 l 250 784 q 264 769 264 784 l 264 713 q 490 781 385 781 m 361 102 q 532 146 439 102 q 534 245 534 191 q 536 352 534 299 q 288 321 357 352 q 224 227 224 293 q 361 102 224 102 m 613 1036 q 423 859 613 859 q 233 1023 233 859 q 426 1202 233 1202 q 602 1108 570 1202 q 613 1036 613 1077 m 344 1030 q 423 955 344 955 q 502 1006 487 955 q 507 1045 507 1021 q 489 1089 507 1069 q 436 1109 471 1109 q 384 1102 401 1109 q 359 1084 368 1095 q 344 1030 344 1065 z "},"":{"ha":1201,"x_min":71,"x_max":1119,"o":"m 614 686 q 869 782 706 782 q 1051 725 994 782 q 1108 543 1108 667 q 1004 355 1108 398 q 864 328 943 330 q 747 326 785 326 l 690 326 q 653 328 672 326 q 707 151 662 197 q 833 113 743 113 q 972 126 905 113 l 975 169 q 978 180 975 177 q 989 184 981 182 l 1087 206 q 1104 193 1103 206 l 1119 -17 q 1089 -47 1119 -43 l 977 -60 q 962 -45 962 -60 q 964 4 962 -23 q 771 -18 882 -18 q 568 73 630 -18 q 473 4 512 21 q 328 -26 399 -26 q 214 -12 256 -26 q 140 31 172 3 q 71 194 71 93 q 157 376 71 320 q 422 433 243 433 q 512 431 465 433 q 510 509 512 486 q 478 609 505 577 q 394 642 452 642 q 245 605 334 642 q 249 560 249 576 q 234 544 249 544 l 119 542 q 106 557 107 544 l 94 751 q 109 769 94 767 l 222 784 q 237 769 237 784 l 237 712 q 465 776 358 776 q 614 686 572 776 m 532 149 q 509 332 510 220 q 237 258 275 332 q 224 205 224 234 q 235 157 224 176 q 263 125 245 138 q 353 101 298 101 q 532 149 449 101 m 890 440 q 906 445 890 440 q 937 475 921 451 q 954 534 954 499 q 948 589 954 568 q 930 624 943 610 q 845 653 905 653 q 691 595 730 653 q 651 426 654 540 q 729 424 686 424 q 817 426 773 424 q 890 440 860 429 z "},"":{"ha":694,"x_min":64,"x_max":625,"o":"m 380 -254 q 436 -207 436 -254 q 424 -173 436 -187 q 392 -159 411 -159 q 365 -160 373 -159 q 349 -161 357 -161 q 326 -164 330 -164 q 315 -156 323 -164 q 298 -136 307 -147 q 277 -100 277 -110 l 301 -3 q 121 91 178 6 q 64 351 64 175 q 75 538 64 476 q 102 642 85 600 q 149 715 119 684 q 328 782 212 782 q 473 762 394 782 l 600 786 q 614 771 612 784 l 625 530 q 610 511 624 513 l 497 496 q 483 511 483 496 l 483 626 q 390 636 439 636 q 303 620 340 636 q 244 571 265 604 q 208 375 208 514 q 293 137 208 166 q 355 127 320 127 q 472 140 406 127 l 475 187 q 489 205 476 203 l 596 201 q 607 185 606 199 l 619 -27 q 606 -41 619 -41 l 475 -41 q 464 -28 465 -41 l 466 10 q 385 -2 410 0 l 374 -76 q 433 -70 401 -70 q 488 -81 465 -70 q 525 -110 510 -92 q 555 -217 555 -147 q 388 -354 555 -354 q 258 -332 311 -354 q 244 -319 244 -326 l 258 -247 q 271 -235 260 -235 q 295 -240 276 -235 q 380 -254 349 -254 z "},"":{"ha":811,"x_min":92,"x_max":729,"o":"m 574 4 q 354 -18 488 -18 q 156 66 218 -18 q 92 344 92 154 q 146 642 92 543 q 346 774 209 750 q 452 782 393 782 q 634 720 577 782 q 691 532 691 659 q 662 404 691 449 q 636 372 652 390 q 576 340 620 354 q 476 319 532 326 q 235 308 389 308 q 292 152 244 193 q 416 119 328 119 q 583 134 500 119 l 585 169 q 588 180 585 177 q 600 184 591 182 l 697 206 q 714 193 712 206 q 718 148 716 182 q 722 90 720 115 q 726 43 724 66 l 728 5 q 729 -23 729 -12 q 699 -47 729 -43 l 587 -60 q 572 -45 572 -60 l 574 4 m 511 448 q 533 485 529 464 q 536 533 536 505 q 531 583 536 562 q 514 621 526 605 q 428 653 488 653 q 274 595 313 653 q 233 408 237 541 q 511 448 470 411 m 277 1220 q 292 1227 283 1227 q 307 1220 300 1227 l 566 935 q 570 925 570 930 q 564 912 570 919 l 519 866 q 510 862 515 862 q 503 865 505 862 l 189 1095 q 184 1107 184 1100 q 187 1118 184 1114 l 277 1220 z "},"":{"ha":811,"x_min":92,"x_max":729,"o":"m 574 4 q 354 -18 488 -18 q 156 66 218 -18 q 92 344 92 154 q 146 642 92 543 q 346 774 209 750 q 452 782 393 782 q 634 720 577 782 q 691 532 691 659 q 662 404 691 449 q 636 372 652 390 q 576 340 620 354 q 476 319 532 326 q 235 308 389 308 q 292 152 244 193 q 416 119 328 119 q 583 134 500 119 l 585 169 q 588 180 585 177 q 600 184 591 182 l 697 206 q 714 193 712 206 q 718 148 716 182 q 722 90 720 115 q 726 43 724 66 l 728 5 q 729 -23 729 -12 q 699 -47 729 -43 l 587 -60 q 572 -45 572 -60 l 574 4 m 511 448 q 533 485 529 464 q 536 533 536 505 q 531 583 536 562 q 514 621 526 605 q 428 653 488 653 q 274 595 313 653 q 233 408 237 541 q 511 448 470 411 m 627 1118 q 631 1107 631 1114 q 625 1095 631 1100 l 312 865 q 304 862 308 862 q 296 866 300 862 l 250 912 q 245 925 245 919 q 248 935 245 930 l 508 1220 q 523 1227 514 1227 q 537 1220 531 1227 l 627 1118 z "},"":{"ha":811,"x_min":92,"x_max":729,"o":"m 574 4 q 354 -18 488 -18 q 156 66 218 -18 q 92 344 92 154 q 146 642 92 543 q 346 774 209 750 q 452 782 393 782 q 634 720 577 782 q 691 532 691 659 q 662 404 691 449 q 636 372 652 390 q 576 340 620 354 q 476 319 532 326 q 235 308 389 308 q 292 152 244 193 q 416 119 328 119 q 583 134 500 119 l 585 169 q 588 180 585 177 q 600 184 591 182 l 697 206 q 714 193 712 206 q 718 148 716 182 q 722 90 720 115 q 726 43 724 66 l 728 5 q 729 -23 729 -12 q 699 -47 729 -43 l 587 -60 q 572 -45 572 -60 l 574 4 m 511 448 q 533 485 529 464 q 536 533 536 505 q 531 583 536 562 q 514 621 526 605 q 428 653 488 653 q 274 595 313 653 q 233 408 237 541 q 511 448 470 411 m 353 1183 q 381 1200 368 1198 l 450 1207 q 481 1187 465 1207 l 684 928 q 687 917 687 924 q 682 905 687 911 l 636 859 q 627 855 632 855 q 620 858 623 855 l 410 1048 l 207 860 q 197 856 201 856 q 186 861 192 856 l 139 910 q 134 920 134 916 q 137 928 134 924 l 353 1183 z "},"":{"ha":811,"x_min":92,"x_max":729,"o":"m 574 4 q 354 -18 488 -18 q 156 66 218 -18 q 92 344 92 154 q 146 642 92 543 q 346 774 209 750 q 452 782 393 782 q 634 720 577 782 q 691 532 691 659 q 662 404 691 449 q 636 372 652 390 q 576 340 620 354 q 476 319 532 326 q 235 308 389 308 q 292 152 244 193 q 416 119 328 119 q 583 134 500 119 l 585 169 q 588 180 585 177 q 600 184 591 182 l 697 206 q 714 193 712 206 q 718 148 716 182 q 722 90 720 115 q 726 43 724 66 l 728 5 q 729 -23 729 -12 q 699 -47 729 -43 l 587 -60 q 572 -45 572 -60 l 574 4 m 511 448 q 533 485 529 464 q 536 533 536 505 q 531 583 536 562 q 514 621 526 605 q 428 653 488 653 q 274 595 313 653 q 233 408 237 541 q 511 448 470 411 m 326 924 q 320 919 326 924 q 292 910 313 913 q 241 907 270 907 q 196 911 212 907 q 171 925 180 915 q 153 982 153 943 q 157 1039 153 1021 q 174 1067 161 1057 q 241 1085 195 1085 q 304 1082 288 1085 q 330 1069 320 1078 q 349 1012 349 1052 q 344 953 349 972 q 326 924 339 934 m 646 924 q 639 919 646 924 q 611 910 633 913 q 561 907 589 907 q 516 911 532 907 q 490 925 500 915 q 472 982 472 943 q 476 1039 472 1021 q 493 1067 481 1057 q 561 1085 514 1085 q 624 1082 608 1085 q 650 1069 640 1078 q 668 1012 668 1052 q 663 953 668 972 q 646 924 659 934 z "},"":{"ha":463,"x_min":19,"x_max":424,"o":"m 102 -9 q 92 7 92 -9 l 92 109 q 103 122 92 122 l 184 122 l 190 596 l 80 608 q 68 623 68 609 l 83 734 q 99 749 85 747 l 317 771 q 326 767 324 771 q 329 755 328 764 l 338 632 l 336 122 l 413 122 q 424 109 424 122 l 412 20 q 407 10 410 12 q 395 7 404 7 l 102 -9 m 113 1220 q 127 1227 119 1227 q 142 1220 136 1227 l 401 935 q 405 925 405 930 q 399 912 405 919 l 354 866 q 345 862 350 862 q 338 865 340 862 l 24 1095 q 19 1107 19 1100 q 22 1118 19 1114 l 113 1220 z "},"":{"ha":463,"x_min":68,"x_max":466,"o":"m 102 -9 q 92 7 92 -9 l 92 109 q 103 122 92 122 l 184 122 l 190 596 l 80 608 q 68 623 68 609 l 83 734 q 99 749 85 747 l 317 771 q 326 767 324 771 q 329 755 328 764 l 338 632 l 336 122 l 413 122 q 424 109 424 122 l 412 20 q 407 10 410 12 q 395 7 404 7 l 102 -9 m 463 1118 q 466 1107 466 1114 q 460 1095 466 1100 l 147 865 q 139 862 143 862 q 131 866 135 862 l 85 912 q 80 925 80 919 q 83 935 80 930 l 343 1220 q 358 1227 349 1227 q 372 1220 366 1227 l 463 1118 z "},"":{"ha":463,"x_min":-31,"x_max":522,"o":"m 102 -9 q 92 7 92 -9 l 92 109 q 103 122 92 122 l 184 122 l 190 596 l 80 608 q 68 623 68 609 l 83 734 q 99 749 85 747 l 317 771 q 326 767 324 771 q 329 755 328 764 l 338 632 l 336 122 l 413 122 q 424 109 424 122 l 412 20 q 407 10 410 12 q 395 7 404 7 l 102 -9 m 188 1183 q 216 1200 203 1198 l 285 1207 q 317 1187 300 1207 l 519 928 q 522 917 522 924 q 517 905 522 911 l 471 859 q 463 855 467 855 q 455 858 458 855 l 245 1048 l 42 860 q 32 856 37 856 q 22 861 27 856 l -26 910 q -31 920 -31 916 q -28 928 -31 924 l 188 1183 z "},"":{"ha":463,"x_min":-12,"x_max":503,"o":"m 102 -9 q 92 7 92 -9 l 92 109 q 103 122 92 122 l 184 122 l 190 596 l 80 608 q 68 623 68 609 l 83 734 q 99 749 85 747 l 317 771 q 326 767 324 771 q 329 755 328 764 l 338 632 l 336 122 l 413 122 q 424 109 424 122 l 412 20 q 407 10 410 12 q 395 7 404 7 l 102 -9 m 161 924 q 155 919 161 924 q 127 910 149 913 q 76 907 105 907 q 32 911 47 907 q 6 925 16 915 q -12 982 -12 943 q -8 1039 -12 1021 q 9 1067 -3 1057 q 77 1085 30 1085 q 139 1082 123 1085 q 165 1069 155 1078 q 184 1012 184 1052 q 179 953 184 972 q 161 924 174 934 m 481 924 q 474 919 481 924 q 446 910 468 913 q 396 907 425 907 q 351 911 367 907 q 326 925 335 915 q 307 982 307 943 q 312 1039 307 1021 q 328 1067 316 1057 q 396 1085 349 1085 q 459 1082 443 1085 q 484 1069 475 1078 q 503 1012 503 1052 q 498 953 503 972 q 481 924 494 934 z "},"":{"ha":810,"x_min":82,"x_max":725,"o":"m 576 961 q 725 460 725 820 q 537 12 725 92 q 402 -14 475 -14 q 272 6 329 -14 q 172 69 215 26 q 82 340 82 161 q 170 587 82 504 q 363 659 245 659 q 570 622 479 659 q 479 848 547 778 l 390 737 q 379 732 385 732 q 369 735 373 732 l 300 785 q 295 794 295 789 q 298 804 295 800 l 382 906 q 307 918 341 918 q 230 913 260 918 q 191 909 200 909 q 182 918 182 909 l 191 1016 q 206 1030 192 1027 q 236 1035 220 1032 q 271 1039 252 1037 q 365 1042 311 1042 q 469 1025 418 1042 l 543 1133 q 556 1139 547 1139 q 572 1133 565 1139 l 648 1063 q 652 1052 652 1059 q 646 1039 652 1046 l 576 961 m 583 391 q 581 500 583 465 q 382 529 488 529 q 235 419 271 529 q 222 326 222 378 q 233 238 222 274 q 266 178 244 203 q 391 124 310 124 q 536 186 494 124 q 583 391 583 252 z "},"":{"ha":929,"x_min":81,"x_max":859,"o":"m 537 612 q 340 542 451 612 l 349 136 l 422 144 q 434 132 434 144 l 421 27 q 406 12 418 12 l 123 12 q 113 28 113 12 l 126 132 q 141 146 129 146 l 199 146 l 199 595 l 95 597 q 81 614 81 597 l 94 731 q 110 745 95 743 l 298 773 q 310 758 310 773 l 310 640 q 585 780 450 780 q 769 633 739 780 q 779 542 779 584 q 778 470 779 499 q 776 407 777 441 l 774 336 q 772 262 773 299 l 769 190 q 766 126 768 155 l 844 130 q 859 113 859 130 l 859 14 q 855 3 859 5 q 843 0 851 1 l 646 -15 q 631 0 631 -15 q 633 139 633 74 l 635 252 q 635 342 635 300 l 635 467 q 621 574 635 551 q 587 605 606 597 q 537 612 568 612 m 201 991 q 234 1031 201 1002 q 289 1075 267 1061 q 365 1107 338 1107 q 416 1095 393 1107 q 464 1068 440 1082 q 549 1031 527 1031 q 588 1036 570 1031 q 622 1047 606 1040 q 652 1063 638 1055 l 676 1077 q 697 1086 690 1086 q 709 1073 704 1086 l 731 1020 q 732 1012 732 1017 q 721 994 732 1006 l 690 962 q 555 888 615 888 q 458 925 524 888 q 370 962 392 962 q 302 944 336 962 q 240 916 248 916 q 222 930 227 916 l 201 991 z "},"":{"ha":810,"x_min":83,"x_max":726,"o":"m 83 381 q 103 574 83 497 q 160 697 122 651 q 390 781 231 781 q 552 758 501 781 q 633 707 604 736 q 684 634 663 679 q 726 404 726 543 q 706 190 726 265 q 648 69 687 115 q 416 -14 576 -14 q 171 68 248 -14 q 83 381 83 160 m 545 170 q 555 184 545 170 q 576 246 566 197 q 586 366 586 295 q 578 479 586 436 q 558 552 571 523 q 526 597 545 581 q 486 622 508 614 q 400 634 454 634 q 315 626 347 634 q 262 591 283 618 q 222 384 222 540 q 341 134 222 162 q 420 125 378 125 q 494 134 463 125 q 545 170 525 143 m 271 1220 q 286 1227 277 1227 q 300 1220 294 1227 l 560 935 q 564 925 564 930 q 558 912 564 919 l 513 866 q 504 862 509 862 q 496 865 499 862 l 183 1095 q 178 1107 178 1100 q 181 1118 178 1114 l 271 1220 z "},"":{"ha":810,"x_min":83,"x_max":726,"o":"m 83 381 q 103 574 83 497 q 160 697 122 651 q 390 781 231 781 q 552 758 501 781 q 633 707 604 736 q 684 634 663 679 q 726 404 726 543 q 706 190 726 265 q 648 69 687 115 q 416 -14 576 -14 q 171 68 248 -14 q 83 381 83 160 m 545 170 q 555 184 545 170 q 576 246 566 197 q 586 366 586 295 q 578 479 586 436 q 558 552 571 523 q 526 597 545 581 q 486 622 508 614 q 400 634 454 634 q 315 626 347 634 q 262 591 283 618 q 222 384 222 540 q 341 134 222 162 q 420 125 378 125 q 494 134 463 125 q 545 170 525 143 m 621 1118 q 625 1107 625 1114 q 619 1095 625 1100 l 306 865 q 298 862 302 862 q 290 866 294 862 l 244 912 q 239 925 239 919 q 242 935 239 930 l 502 1220 q 516 1227 508 1227 q 531 1220 525 1227 l 621 1118 z "},"":{"ha":810,"x_min":83,"x_max":726,"o":"m 83 381 q 103 574 83 497 q 160 697 122 651 q 390 781 231 781 q 552 758 501 781 q 633 707 604 736 q 684 634 663 679 q 726 404 726 543 q 706 190 726 265 q 648 69 687 115 q 416 -14 576 -14 q 171 68 248 -14 q 83 381 83 160 m 545 170 q 555 184 545 170 q 576 246 566 197 q 586 366 586 295 q 578 479 586 436 q 558 552 571 523 q 526 597 545 581 q 486 622 508 614 q 400 634 454 634 q 315 626 347 634 q 262 591 283 618 q 222 384 222 540 q 341 134 222 162 q 420 125 378 125 q 494 134 463 125 q 545 170 525 143 m 347 1183 q 375 1200 361 1198 l 444 1207 q 475 1187 459 1207 l 677 928 q 681 917 681 924 q 675 905 681 911 l 630 859 q 621 855 626 855 q 614 858 616 855 l 404 1048 l 201 860 q 191 856 195 856 q 180 861 186 856 l 133 910 q 127 920 127 916 q 131 928 127 924 l 347 1183 z "},"":{"ha":810,"x_min":83,"x_max":726,"o":"m 83 381 q 103 574 83 497 q 160 697 122 651 q 390 781 231 781 q 552 758 501 781 q 633 707 604 736 q 684 634 663 679 q 726 404 726 543 q 706 190 726 265 q 648 69 687 115 q 416 -14 576 -14 q 171 68 248 -14 q 83 381 83 160 m 545 170 q 555 184 545 170 q 576 246 566 197 q 586 366 586 295 q 578 479 586 436 q 558 552 571 523 q 526 597 545 581 q 486 622 508 614 q 400 634 454 634 q 315 626 347 634 q 262 591 283 618 q 222 384 222 540 q 341 134 222 162 q 420 125 378 125 q 494 134 463 125 q 545 170 525 143 m 138 991 q 172 1031 138 1002 q 227 1075 205 1061 q 303 1107 275 1107 q 354 1095 330 1107 q 401 1068 378 1082 q 486 1031 465 1031 q 526 1036 508 1031 q 559 1047 543 1040 q 590 1063 576 1055 l 614 1077 q 635 1086 628 1086 q 646 1073 642 1086 l 669 1020 q 670 1012 670 1017 q 659 994 670 1006 l 627 962 q 492 888 553 888 q 395 925 461 888 q 307 962 330 962 q 240 944 274 962 q 178 916 186 916 q 160 930 165 916 l 138 991 z "},"":{"ha":810,"x_min":83,"x_max":726,"o":"m 83 381 q 103 574 83 497 q 160 697 122 651 q 390 781 231 781 q 552 758 501 781 q 633 707 604 736 q 684 634 663 679 q 726 404 726 543 q 706 190 726 265 q 648 69 687 115 q 416 -14 576 -14 q 171 68 248 -14 q 83 381 83 160 m 545 170 q 555 184 545 170 q 576 246 566 197 q 586 366 586 295 q 578 479 586 436 q 558 552 571 523 q 526 597 545 581 q 486 622 508 614 q 400 634 454 634 q 315 626 347 634 q 262 591 283 618 q 222 384 222 540 q 341 134 222 162 q 420 125 378 125 q 494 134 463 125 q 545 170 525 143 m 320 924 q 314 919 320 924 q 286 910 307 913 q 235 907 264 907 q 190 911 206 907 q 165 925 174 915 q 146 982 146 943 q 151 1039 146 1021 q 168 1067 155 1057 q 235 1085 189 1085 q 298 1082 282 1085 q 324 1069 314 1078 q 342 1012 342 1052 q 338 953 342 972 q 320 924 333 934 m 640 924 q 633 919 640 924 q 605 910 627 913 q 554 907 583 907 q 510 911 526 907 q 484 925 494 915 q 466 982 466 943 q 470 1039 466 1021 q 487 1067 475 1057 q 555 1085 508 1085 q 617 1082 602 1085 q 643 1069 633 1078 q 662 1012 662 1052 q 657 953 662 972 q 640 924 652 934 z "},"":{"ha":810,"x_min":123,"x_max":686,"o":"m 686 347 q 676 331 686 331 l 396 339 l 145 334 q 133 337 136 334 q 129 347 130 339 l 123 450 q 134 463 123 461 l 408 452 l 675 456 q 686 443 684 456 l 686 347 m 496 677 q 500 669 496 677 q 507 643 504 661 q 510 609 510 625 q 499 580 510 593 q 472 558 489 567 q 402 541 437 541 q 356 551 368 541 q 335 578 343 562 q 320 637 320 607 q 333 681 320 667 q 366 701 347 694 q 432 714 399 714 q 477 704 465 714 q 496 677 489 693 m 496 216 q 500 208 496 216 q 507 182 504 200 q 510 148 510 163 q 499 119 510 132 q 472 97 489 106 q 402 79 437 79 q 356 90 368 79 q 335 117 343 100 q 320 176 320 146 q 333 219 320 206 q 366 240 347 233 q 432 253 399 253 q 477 242 465 253 q 496 216 489 232 z "},"":{"ha":810,"x_min":83,"x_max":726,"o":"m 203 40 q 83 380 83 123 q 160 697 83 605 q 390 781 231 781 q 502 771 457 781 l 551 899 q 561 911 555 911 q 570 910 567 911 l 637 881 q 647 871 647 877 q 646 862 647 865 l 592 739 q 726 378 726 657 q 648 69 726 159 q 416 -14 576 -14 q 296 -1 348 -14 l 240 -151 q 230 -161 237 -161 q 221 -160 224 -161 l 149 -128 q 138 -117 138 -124 q 138 -109 138 -111 l 203 40 m 345 132 q 420 125 378 125 q 494 134 463 125 q 545 170 525 143 q 586 374 586 224 q 530 593 586 537 l 435 374 l 345 132 m 448 631 q 384 634 420 634 q 315 626 347 634 q 262 591 283 618 q 222 384 222 540 q 265 185 222 244 l 362 409 l 448 631 z "},"":{"ha":810,"x_min":25,"x_max":798,"o":"m 675 746 q 686 730 686 746 l 693 157 l 784 161 q 798 144 798 160 l 785 20 q 769 6 785 6 l 602 6 q 574 32 581 6 l 557 100 q 302 4 446 4 q 102 260 102 4 q 113 458 102 349 l 126 611 l 39 608 q 25 625 25 608 l 39 745 q 43 755 40 753 q 54 758 46 758 l 270 753 q 279 738 279 753 q 273 665 276 705 q 244 287 244 359 q 271 183 244 215 q 369 151 298 151 q 549 220 439 151 l 549 610 l 464 614 q 452 626 454 616 l 465 738 q 480 753 468 753 l 675 746 m 264 1220 q 279 1227 271 1227 q 294 1220 288 1227 l 553 935 q 557 925 557 930 q 551 912 557 919 l 506 866 q 497 862 502 862 q 490 865 492 862 l 176 1095 q 171 1107 171 1100 q 174 1118 171 1114 l 264 1220 z "},"":{"ha":810,"x_min":25,"x_max":798,"o":"m 675 746 q 686 730 686 746 l 693 157 l 784 161 q 798 144 798 160 l 785 20 q 769 6 785 6 l 602 6 q 574 32 581 6 l 557 100 q 302 4 446 4 q 102 260 102 4 q 113 458 102 349 l 126 611 l 39 608 q 25 625 25 608 l 39 745 q 43 755 40 753 q 54 758 46 758 l 270 753 q 279 738 279 753 q 273 665 276 705 q 244 287 244 359 q 271 183 244 215 q 369 151 298 151 q 549 220 439 151 l 549 610 l 464 614 q 452 626 454 616 l 465 738 q 480 753 468 753 l 675 746 m 614 1118 q 618 1107 618 1114 q 612 1095 618 1100 l 299 865 q 291 862 295 862 q 283 866 287 862 l 237 912 q 232 925 232 919 q 235 935 232 930 l 495 1220 q 510 1227 501 1227 q 524 1220 518 1227 l 614 1118 z "},"":{"ha":810,"x_min":25,"x_max":798,"o":"m 675 746 q 686 730 686 746 l 693 157 l 784 161 q 798 144 798 160 l 785 20 q 769 6 785 6 l 602 6 q 574 32 581 6 l 557 100 q 302 4 446 4 q 102 260 102 4 q 113 458 102 349 l 126 611 l 39 608 q 25 625 25 608 l 39 745 q 43 755 40 753 q 54 758 46 758 l 270 753 q 279 738 279 753 q 273 665 276 705 q 244 287 244 359 q 271 183 244 215 q 369 151 298 151 q 549 220 439 151 l 549 610 l 464 614 q 452 626 454 616 l 465 738 q 480 753 468 753 l 675 746 m 340 1183 q 368 1200 355 1198 l 437 1207 q 469 1187 452 1207 l 671 928 q 674 917 674 924 q 669 905 674 911 l 623 859 q 614 855 619 855 q 607 858 610 855 l 397 1048 l 194 860 q 184 856 189 856 q 174 861 179 856 l 126 910 q 121 920 121 916 q 124 928 121 924 l 340 1183 z "},"":{"ha":810,"x_min":25,"x_max":798,"o":"m 675 746 q 686 730 686 746 l 693 157 l 784 161 q 798 144 798 160 l 785 20 q 769 6 785 6 l 602 6 q 574 32 581 6 l 557 100 q 302 4 446 4 q 102 260 102 4 q 113 458 102 349 l 126 611 l 39 608 q 25 625 25 608 l 39 745 q 43 755 40 753 q 54 758 46 758 l 270 753 q 279 738 279 753 q 273 665 276 705 q 244 287 244 359 q 271 183 244 215 q 369 151 298 151 q 549 220 439 151 l 549 610 l 464 614 q 452 626 454 616 l 465 738 q 480 753 468 753 l 675 746 m 313 924 q 307 919 313 924 q 279 910 300 913 q 228 907 257 907 q 183 911 199 907 q 158 925 168 915 q 140 982 140 943 q 144 1039 140 1021 q 161 1067 149 1057 q 229 1085 182 1085 q 291 1082 275 1085 q 317 1069 307 1078 q 336 1012 336 1052 q 331 953 336 972 q 313 924 326 934 m 633 924 q 626 919 633 924 q 598 910 620 913 q 548 907 576 907 q 503 911 519 907 q 477 925 487 915 q 459 982 459 943 q 464 1039 459 1021 q 480 1067 468 1057 q 548 1085 501 1085 q 611 1082 595 1085 q 636 1069 627 1078 q 655 1012 655 1052 q 650 953 655 972 q 633 924 646 934 z "},"":{"ha":812,"x_min":4,"x_max":806,"o":"m 11 746 q 26 760 11 760 l 334 766 q 347 751 347 766 l 350 636 q 346 625 349 627 q 335 622 343 622 l 246 620 l 422 121 l 583 623 l 490 614 q 478 626 479 614 l 484 751 q 499 766 485 766 l 795 773 q 806 757 806 772 l 800 640 q 785 625 798 625 l 725 631 l 398 -292 q 382 -308 393 -308 l 248 -271 q 233 -258 233 -269 q 235 -248 233 -253 l 384 36 l 326 34 q 311 46 317 34 l 83 616 l 18 615 q 4 631 4 615 l 11 746 m 642 1118 q 645 1107 645 1114 q 640 1095 645 1100 l 326 865 q 318 862 322 862 q 310 866 314 862 l 264 912 q 259 925 259 919 q 262 935 259 930 l 522 1220 q 537 1227 528 1227 q 551 1220 545 1227 l 642 1118 z "},"":{"ha":810,"x_min":2,"x_max":732,"o":"m 257 1082 q 269 1066 269 1082 l 258 739 l 298 753 q 454 781 381 781 q 582 756 527 781 q 671 682 637 732 q 732 389 732 593 q 664 90 732 186 q 454 -6 595 -6 q 254 30 347 -6 l 263 -181 l 391 -176 q 405 -191 405 -178 l 398 -290 q 382 -304 397 -304 l 66 -311 q 53 -294 54 -311 l 47 -182 q 52 -171 49 -174 q 62 -168 55 -169 l 123 -175 l 123 939 l 24 934 q 10 947 11 935 l 2 1052 q 18 1065 5 1064 l 257 1082 m 547 183 q 557 198 547 183 q 576 261 567 212 q 586 382 586 311 q 579 502 586 454 q 555 579 572 550 q 425 634 521 634 q 254 606 346 634 l 245 425 l 249 152 q 398 130 334 130 q 494 142 462 130 q 547 183 526 154 z "},"":{"ha":812,"x_min":4,"x_max":806,"o":"m 11 746 q 26 760 11 760 l 334 766 q 347 751 347 766 l 350 636 q 346 625 349 627 q 335 622 343 622 l 246 620 l 422 121 l 583 623 l 490 614 q 478 626 479 614 l 484 751 q 499 766 485 766 l 795 773 q 806 757 806 772 l 800 640 q 785 625 798 625 l 725 631 l 398 -292 q 382 -308 393 -308 l 248 -271 q 233 -258 233 -269 q 235 -248 233 -253 l 384 36 l 326 34 q 311 46 317 34 l 83 616 l 18 615 q 4 631 4 615 l 11 746 m 340 924 q 334 919 340 924 q 306 910 328 913 q 255 907 284 907 q 211 911 227 907 q 185 925 195 915 q 167 982 167 943 q 171 1039 167 1021 q 188 1067 176 1057 q 256 1085 209 1085 q 318 1082 302 1085 q 345 1069 334 1078 q 363 1012 363 1052 q 358 953 363 972 q 340 924 353 934 m 660 924 q 653 919 660 924 q 625 910 647 913 q 575 907 604 907 q 530 911 546 907 q 505 925 514 915 q 486 982 486 943 q 491 1039 486 1021 q 507 1067 495 1057 q 575 1085 528 1085 q 638 1082 622 1085 q 663 1069 654 1078 q 682 1012 682 1052 q 677 953 682 972 q 660 924 673 934 z "},"":{"ha":926,"x_min":23,"x_max":935,"o":"m 38 1 q 23 23 23 3 l 23 136 q 27 151 23 147 q 43 156 32 155 l 106 153 l 374 1024 q 391 1038 378 1037 l 545 1044 q 562 1028 557 1043 l 854 158 l 916 160 q 935 138 935 159 l 935 31 q 930 16 935 20 q 914 13 926 13 l 600 13 q 586 18 588 13 q 584 33 584 24 l 597 132 q 603 148 599 144 q 618 151 607 151 l 695 153 l 637 334 l 301 340 l 246 144 l 328 152 q 339 149 336 152 q 344 136 342 145 l 354 33 q 348 18 353 22 q 334 13 344 14 l 38 1 m 333 456 l 597 456 l 454 892 l 333 456 m 679 1337 q 690 1324 690 1335 l 677 1208 q 673 1197 676 1200 q 661 1194 670 1194 l 238 1198 q 225 1215 225 1198 l 232 1317 q 245 1330 233 1330 l 679 1337 z "},"":{"ha":811,"x_min":71,"x_max":783,"o":"m 490 781 q 690 531 690 781 q 688 378 690 472 l 683 245 q 680 170 682 205 l 677 105 l 718 109 q 768 113 740 110 q 783 100 783 113 l 770 -7 q 755 -21 768 -20 l 559 -33 q 550 -18 550 -33 l 559 61 q 313 -26 446 -26 q 142 34 210 -26 q 71 205 71 98 q 168 403 71 346 q 450 453 254 453 q 536 451 490 453 q 537 484 537 469 l 537 509 q 421 642 537 642 q 272 605 361 642 l 275 579 q 276 559 276 566 q 261 544 276 544 l 146 542 q 133 557 134 544 l 121 751 q 136 769 121 767 l 250 784 q 264 769 264 784 l 264 713 q 490 781 385 781 m 361 102 q 532 146 439 102 q 534 245 534 191 q 536 352 534 299 q 288 321 357 352 q 224 227 224 293 q 361 102 224 102 m 646 1093 q 657 1080 657 1091 l 645 964 q 641 953 644 956 q 629 950 637 950 l 202 954 q 193 970 193 954 l 199 1073 q 210 1086 201 1086 l 646 1093 z "},"":{"ha":926,"x_min":23,"x_max":935,"o":"m 38 1 q 23 23 23 3 l 23 136 q 27 151 23 147 q 43 156 32 155 l 106 153 l 374 1024 q 391 1038 378 1037 l 545 1044 q 562 1028 557 1043 l 854 158 l 916 160 q 935 138 935 159 l 935 31 q 930 16 935 20 q 914 13 926 13 l 600 13 q 586 18 588 13 q 584 33 584 24 l 597 132 q 603 148 599 144 q 618 151 607 151 l 695 153 l 637 334 l 301 340 l 246 144 l 328 152 q 339 149 336 152 q 344 136 342 145 l 354 33 q 348 18 353 22 q 334 13 344 14 l 38 1 m 333 456 l 597 456 l 454 892 l 333 456 m 701 1360 q 717 1345 717 1360 q 652 1182 717 1249 q 471 1111 584 1111 q 280 1173 355 1111 q 203 1345 203 1236 q 220 1361 203 1361 l 317 1370 q 331 1348 330 1370 q 344 1305 333 1326 q 373 1267 355 1283 q 466 1235 411 1235 q 589 1347 569 1235 q 604 1363 592 1363 l 701 1360 z "},"":{"ha":811,"x_min":71,"x_max":783,"o":"m 490 781 q 690 531 690 781 q 688 378 690 472 l 683 245 q 680 170 682 205 l 677 105 l 718 109 q 768 113 740 110 q 783 100 783 113 l 770 -7 q 755 -21 768 -20 l 559 -33 q 550 -18 550 -33 l 559 61 q 313 -26 446 -26 q 142 34 210 -26 q 71 205 71 98 q 168 403 71 346 q 450 453 254 453 q 536 451 490 453 q 537 484 537 469 l 537 509 q 421 642 537 642 q 272 605 361 642 l 275 579 q 276 559 276 566 q 261 544 276 544 l 146 542 q 133 557 134 544 l 121 751 q 136 769 121 767 l 250 784 q 264 769 264 784 l 264 713 q 490 781 385 781 m 361 102 q 532 146 439 102 q 534 245 534 191 q 536 352 534 299 q 288 321 357 352 q 224 227 224 293 q 361 102 224 102 m 674 1152 q 690 1136 690 1152 q 627 973 690 1040 q 444 902 557 902 q 254 964 328 902 q 177 1137 177 1027 q 193 1152 177 1151 l 290 1161 q 305 1139 303 1161 q 318 1096 307 1118 q 347 1059 329 1074 q 439 1026 385 1026 q 563 1138 543 1026 q 577 1154 566 1154 l 674 1152 z "},"":{"ha":926,"x_min":23,"x_max":951,"o":"m 38 1 q 23 23 23 3 l 23 136 q 27 151 23 147 q 43 156 32 155 l 106 153 l 374 1024 q 391 1038 378 1037 l 545 1044 q 562 1028 557 1043 l 854 158 l 916 160 q 935 138 935 159 l 935 31 q 930 16 935 20 q 914 13 926 13 l 810 13 q 741 -123 741 -73 q 806 -166 741 -166 q 883 -153 845 -166 q 926 -139 920 -139 q 937 -151 935 -139 l 951 -263 q 936 -278 951 -273 q 766 -305 850 -305 q 620 -184 620 -305 q 693 13 620 -97 l 600 13 q 586 18 588 13 q 584 33 584 24 l 597 132 q 603 148 599 144 q 618 151 607 151 l 695 153 l 637 334 l 301 340 l 246 144 l 328 152 q 339 149 336 152 q 344 136 342 145 l 354 33 q 348 18 353 22 q 334 13 344 14 l 38 1 m 333 456 l 597 456 l 454 892 l 333 456 z "},"":{"ha":811,"x_min":71,"x_max":783,"o":"m 490 781 q 690 531 690 781 q 688 378 690 472 l 683 245 q 680 170 682 205 l 677 105 l 718 109 q 768 113 740 110 q 783 100 783 113 l 770 -7 q 755 -21 768 -20 l 610 -30 q 572 -123 572 -87 q 637 -166 572 -166 q 714 -153 677 -166 q 758 -139 752 -139 q 768 -151 767 -139 l 783 -263 q 768 -278 783 -273 q 597 -305 682 -305 q 452 -184 452 -305 q 559 61 452 -76 q 313 -26 446 -26 q 142 34 210 -26 q 71 205 71 98 q 168 403 71 346 q 450 453 254 453 q 536 451 490 453 q 537 484 537 469 l 537 509 q 421 642 537 642 q 272 605 361 642 l 275 579 q 276 559 276 566 q 261 544 276 544 l 146 542 q 133 557 134 544 l 121 751 q 136 769 121 767 l 250 784 q 264 769 264 784 l 264 713 q 490 781 385 781 m 361 102 q 532 146 439 102 q 534 245 534 191 q 536 352 534 299 q 288 321 357 352 q 224 227 224 293 q 361 102 224 102 z "},"":{"ha":926,"x_min":88,"x_max":842,"o":"m 795 1038 q 824 1011 823 1038 l 816 715 q 801 698 816 698 l 687 695 q 673 711 674 695 l 659 885 q 506 905 576 905 q 388 885 436 905 q 309 818 340 864 q 248 519 248 728 q 401 140 248 202 q 524 119 452 119 q 675 145 595 119 l 672 236 q 688 251 673 248 l 801 270 q 815 254 812 270 l 842 -10 q 827 -22 842 -21 l 710 -33 q 682 -6 683 -33 l 680 22 q 481 -28 586 -28 q 305 8 376 -28 q 185 114 233 44 q 88 526 88 256 q 197 925 88 795 q 479 1044 296 1044 q 673 1019 595 1044 l 795 1038 m 741 1249 q 743 1236 743 1244 q 733 1224 743 1228 l 398 1084 q 388 1082 393 1082 q 380 1088 383 1082 l 354 1151 q 351 1162 351 1158 q 357 1169 351 1166 l 665 1366 q 681 1370 673 1370 q 693 1360 689 1370 l 741 1249 z "},"":{"ha":694,"x_min":64,"x_max":625,"o":"m 149 715 q 163 730 149 715 q 222 764 178 746 q 330 782 266 782 q 473 762 394 782 l 600 786 q 614 771 612 784 l 625 530 q 610 511 624 513 l 497 496 q 483 511 483 496 l 483 626 q 390 636 439 636 q 303 620 340 636 q 244 571 265 604 q 208 375 208 514 q 293 137 208 166 q 355 127 320 127 q 472 140 406 127 l 475 187 q 489 205 476 203 l 596 201 q 607 185 606 199 l 619 -27 q 606 -41 619 -41 l 475 -41 q 464 -28 465 -41 l 466 10 q 129 79 220 -38 q 64 351 64 163 q 75 538 64 476 q 102 642 85 600 q 149 715 119 684 m 581 1118 q 584 1107 584 1114 q 578 1095 584 1100 l 265 865 q 257 862 261 862 q 249 866 253 862 l 203 912 q 198 925 198 919 q 201 935 198 930 l 461 1220 q 476 1227 467 1227 q 490 1220 484 1227 l 581 1118 z "},"":{"ha":926,"x_min":88,"x_max":842,"o":"m 795 1038 q 824 1011 823 1038 l 816 715 q 801 698 816 698 l 687 695 q 673 711 674 695 l 659 885 q 506 905 576 905 q 388 885 436 905 q 309 818 340 864 q 248 519 248 728 q 401 140 248 202 q 524 119 452 119 q 675 145 595 119 l 672 236 q 688 251 673 248 l 801 270 q 815 254 812 270 l 842 -10 q 827 -22 842 -21 l 710 -33 q 682 -6 683 -33 l 680 22 q 481 -28 586 -28 q 305 8 376 -28 q 185 114 233 44 q 88 526 88 256 q 197 925 88 795 q 479 1044 296 1044 q 673 1019 595 1044 l 795 1038 m 443 1346 q 473 1363 463 1362 l 538 1370 q 569 1352 549 1370 l 774 1182 q 779 1172 779 1177 q 774 1162 779 1167 l 733 1113 q 726 1109 730 1109 q 717 1112 722 1109 l 500 1219 l 298 1115 q 292 1114 296 1114 q 283 1119 288 1114 l 241 1171 q 237 1179 237 1176 q 241 1185 237 1183 l 443 1346 z "},"":{"ha":694,"x_min":64,"x_max":640,"o":"m 149 715 q 163 730 149 715 q 222 764 178 746 q 330 782 266 782 q 473 762 394 782 l 600 786 q 614 771 612 784 l 625 530 q 610 511 624 513 l 497 496 q 483 511 483 496 l 483 626 q 390 636 439 636 q 303 620 340 636 q 244 571 265 604 q 208 375 208 514 q 293 137 208 166 q 355 127 320 127 q 472 140 406 127 l 475 187 q 489 205 476 203 l 596 201 q 607 185 606 199 l 619 -27 q 606 -41 619 -41 l 475 -41 q 464 -28 465 -41 l 466 10 q 129 79 220 -38 q 64 351 64 163 q 75 538 64 476 q 102 642 85 600 q 149 715 119 684 m 306 1183 q 334 1200 321 1198 l 403 1207 q 435 1187 418 1207 l 637 928 q 640 917 640 924 q 635 905 640 911 l 589 859 q 581 855 585 855 q 573 858 576 855 l 363 1048 l 160 860 q 150 856 155 856 q 140 861 145 856 l 92 910 q 87 920 87 916 q 90 928 87 924 l 306 1183 z "},"":{"ha":926,"x_min":88,"x_max":842,"o":"m 795 1038 q 824 1011 823 1038 l 816 715 q 801 698 816 698 l 687 695 q 673 711 674 695 l 659 885 q 506 905 576 905 q 388 885 436 905 q 309 818 340 864 q 248 519 248 728 q 401 140 248 202 q 524 119 452 119 q 675 145 595 119 l 672 236 q 688 251 673 248 l 801 270 q 815 254 812 270 l 842 -10 q 827 -22 842 -21 l 710 -33 q 682 -6 683 -33 l 680 22 q 481 -28 586 -28 q 305 8 376 -28 q 185 114 233 44 q 88 526 88 256 q 197 925 88 795 q 479 1044 296 1044 q 673 1019 595 1044 l 795 1038 m 577 1187 q 570 1182 577 1187 q 541 1173 564 1177 q 479 1170 518 1170 q 422 1189 440 1170 q 405 1246 405 1208 q 409 1302 405 1284 q 426 1331 414 1320 q 517 1348 447 1348 q 578 1335 564 1348 q 601 1274 601 1314 q 595 1216 601 1235 q 577 1187 590 1197 z "},"":{"ha":694,"x_min":64,"x_max":625,"o":"m 149 715 q 163 730 149 715 q 222 764 178 746 q 330 782 266 782 q 473 762 394 782 l 600 786 q 614 771 612 784 l 625 530 q 610 511 624 513 l 497 496 q 483 511 483 496 l 483 626 q 390 636 439 636 q 303 620 340 636 q 244 571 265 604 q 208 375 208 514 q 293 137 208 166 q 355 127 320 127 q 472 140 406 127 l 475 187 q 489 205 476 203 l 596 201 q 607 185 606 199 l 619 -27 q 606 -41 619 -41 l 475 -41 q 464 -28 465 -41 l 466 10 q 129 79 220 -38 q 64 351 64 163 q 75 538 64 476 q 102 642 85 600 q 149 715 119 684 m 439 924 q 433 919 439 924 q 405 910 427 913 q 353 907 383 907 q 307 910 323 907 q 282 922 291 913 q 266 980 266 939 q 270 1039 266 1021 q 287 1067 275 1057 q 356 1085 308 1085 q 420 1083 404 1085 q 446 1072 436 1080 q 462 1015 462 1057 q 457 953 462 972 q 439 924 452 934 z "},"":{"ha":926,"x_min":88,"x_max":842,"o":"m 795 1038 q 824 1011 823 1038 l 816 715 q 801 698 816 698 l 687 695 q 673 711 674 695 l 659 885 q 506 905 576 905 q 388 885 436 905 q 309 818 340 864 q 248 519 248 728 q 401 140 248 202 q 524 119 452 119 q 675 145 595 119 l 672 236 q 688 251 673 248 l 801 270 q 815 254 812 270 l 842 -10 q 827 -22 842 -21 l 710 -33 q 682 -6 683 -33 l 680 22 q 481 -28 586 -28 q 305 8 376 -28 q 185 114 233 44 q 88 526 88 256 q 197 925 88 795 q 479 1044 296 1044 q 673 1019 595 1044 l 795 1038 m 560 1114 q 532 1097 541 1098 l 465 1091 q 434 1108 454 1091 l 221 1297 q 216 1306 216 1301 q 220 1316 216 1311 l 262 1366 q 269 1370 264 1370 q 278 1367 273 1370 l 503 1242 l 705 1365 q 717 1369 713 1369 q 725 1364 721 1369 l 766 1315 q 771 1303 771 1308 q 768 1297 771 1300 l 560 1114 z "},"":{"ha":694,"x_min":64,"x_max":640,"o":"m 149 715 q 163 730 149 715 q 222 764 178 746 q 330 782 266 782 q 473 762 394 782 l 600 786 q 614 771 612 784 l 625 530 q 610 511 624 513 l 497 496 q 483 511 483 496 l 483 626 q 390 636 439 636 q 303 620 340 636 q 244 571 265 604 q 208 375 208 514 q 293 137 208 166 q 355 127 320 127 q 472 140 406 127 l 475 187 q 489 205 476 203 l 596 201 q 607 185 606 199 l 619 -27 q 606 -41 619 -41 l 475 -41 q 464 -28 465 -41 l 466 10 q 129 79 220 -38 q 64 351 64 163 q 75 538 64 476 q 102 642 85 600 q 149 715 119 684 m 421 879 q 393 862 406 864 l 324 855 q 292 876 309 855 l 90 1134 q 87 1145 87 1139 q 92 1157 87 1152 l 138 1203 q 146 1207 142 1207 q 154 1204 151 1207 l 364 1015 l 567 1202 q 576 1206 571 1206 q 587 1201 582 1206 l 635 1152 q 640 1143 640 1147 q 637 1135 640 1138 l 421 879 z "},"":{"ha":926,"x_min":50,"x_max":854,"o":"m 167 890 q 71 882 125 888 q 62 886 64 882 q 59 897 60 889 l 50 1023 q 54 1034 50 1031 q 66 1038 58 1036 q 183 1040 133 1039 q 270 1042 233 1042 q 333 1043 307 1043 q 378 1044 359 1044 q 412 1044 397 1044 l 441 1044 q 741 939 643 1044 q 854 533 854 817 q 739 122 854 265 q 437 -13 630 -13 q 68 4 235 -13 q 56 20 57 5 l 64 140 q 75 153 66 151 l 149 148 l 167 890 m 307 139 q 390 135 364 135 l 433 135 q 636 231 571 135 q 701 516 701 326 q 549 888 701 831 q 461 906 500 906 q 315 901 393 906 l 307 139 m 518 1114 q 490 1097 499 1098 l 423 1091 q 392 1108 412 1091 l 179 1297 q 174 1306 174 1301 q 178 1316 174 1311 l 220 1366 q 227 1370 222 1370 q 236 1367 231 1370 l 460 1242 l 663 1365 q 675 1369 671 1369 q 683 1364 679 1369 l 724 1315 q 729 1303 729 1308 q 726 1297 729 1300 l 518 1114 z "},"":{"ha":922,"x_min":83,"x_max":927,"o":"m 787 820 q 798 937 798 890 q 790 1013 798 983 q 774 1064 783 1042 q 759 1103 766 1086 q 751 1131 751 1119 q 761 1154 751 1143 q 785 1172 770 1164 q 854 1187 817 1187 q 927 1080 927 1187 q 867 805 927 930 l 787 820 m 446 960 q 433 976 433 960 l 439 1084 q 455 1098 441 1098 l 688 1085 q 700 1069 700 1084 l 700 117 l 771 125 q 785 112 785 125 l 772 7 q 757 -7 770 -5 l 589 -34 q 576 -19 576 -34 l 581 48 q 377 1 467 1 q 233 26 288 1 q 144 99 178 50 q 83 397 83 189 q 238 761 83 699 q 380 782 290 782 q 569 744 469 782 l 560 958 l 446 960 m 573 606 q 415 630 476 630 q 321 621 353 630 q 269 585 289 611 q 229 390 229 534 q 260 196 229 247 q 390 141 294 141 q 559 168 469 141 l 573 606 z "},"":{"ha":926,"x_min":50,"x_max":854,"o":"m 167 890 q 71 882 125 888 q 62 886 64 882 q 59 897 60 889 l 50 1023 q 54 1034 50 1031 q 66 1038 58 1036 q 183 1040 133 1039 q 270 1042 233 1042 q 333 1043 307 1043 q 378 1044 359 1044 q 412 1044 397 1044 l 441 1044 q 741 939 643 1044 q 854 533 854 817 q 739 122 854 265 q 437 -13 630 -13 q 68 4 235 -13 q 56 20 57 5 l 64 140 q 75 153 66 151 l 149 148 l 155 408 l 78 404 q 62 417 62 406 l 60 506 q 71 519 60 519 l 158 521 l 167 890 m 307 139 q 390 135 364 135 l 433 135 q 636 231 571 135 q 701 516 701 326 q 549 888 701 831 q 461 906 500 906 q 315 901 393 906 l 311 523 l 537 538 q 548 526 548 538 l 550 433 q 541 420 550 420 l 317 416 l 310 416 l 307 139 z "},"":{"ha":810,"x_min":83,"x_max":803,"o":"m 446 960 q 433 976 433 960 l 439 1084 q 455 1098 441 1098 l 688 1085 q 700 1069 700 1084 l 700 915 l 792 914 q 803 900 803 914 l 790 819 q 773 806 788 806 l 700 814 l 700 117 l 771 125 q 785 112 785 125 l 772 7 q 757 -7 770 -5 l 589 -34 q 576 -19 576 -34 l 581 48 q 377 1 467 1 q 233 26 288 1 q 144 99 178 50 q 83 397 83 189 q 238 761 83 699 q 380 782 290 782 q 569 744 469 782 l 566 824 l 407 820 q 399 831 399 821 l 406 905 q 409 915 407 912 q 417 917 411 917 l 562 916 l 560 958 l 446 960 m 573 606 q 415 630 476 630 q 321 621 353 630 q 269 585 289 611 q 229 390 229 534 q 260 196 229 247 q 390 141 294 141 q 559 168 469 141 l 573 606 z "},"":{"ha":926,"x_min":79,"x_max":863,"o":"m 863 -28 q 848 -43 860 -43 l 721 -41 q 706 -23 706 -41 l 705 18 l 99 1 q 83 18 83 1 l 87 142 q 98 155 87 153 l 182 144 l 177 882 l 92 875 q 79 890 79 875 l 87 1013 q 103 1027 88 1026 l 781 1053 q 801 1035 801 1052 l 787 787 q 777 772 787 772 l 663 776 q 651 781 653 777 q 648 793 649 785 l 644 910 l 323 893 l 328 577 l 661 598 q 680 583 678 598 l 684 469 q 670 453 683 453 l 330 448 l 334 138 l 701 151 l 698 239 q 726 266 699 264 l 836 262 q 852 250 852 261 l 863 -28 m 683 1337 q 694 1324 694 1335 l 682 1208 q 677 1197 680 1200 q 665 1194 674 1194 l 242 1198 q 229 1215 229 1198 l 236 1317 q 250 1330 237 1330 l 683 1337 z "},"":{"ha":811,"x_min":92,"x_max":729,"o":"m 574 4 q 354 -18 488 -18 q 156 66 218 -18 q 92 344 92 154 q 146 642 92 543 q 346 774 209 750 q 452 782 393 782 q 634 720 577 782 q 691 532 691 659 q 662 404 691 449 q 636 372 652 390 q 576 340 620 354 q 476 319 532 326 q 235 308 389 308 q 292 152 244 193 q 416 119 328 119 q 583 134 500 119 l 585 169 q 588 180 585 177 q 600 184 591 182 l 697 206 q 714 193 712 206 q 718 148 716 182 q 722 90 720 115 q 726 43 724 66 l 728 5 q 729 -23 729 -12 q 699 -47 729 -43 l 587 -60 q 572 -45 572 -60 l 574 4 m 511 448 q 533 485 529 464 q 536 533 536 505 q 531 583 536 562 q 514 621 526 605 q 428 653 488 653 q 274 595 313 653 q 233 408 237 541 q 511 448 470 411 m 630 1093 q 641 1080 641 1091 l 629 964 q 624 953 627 956 q 612 950 621 950 l 186 954 q 176 970 176 954 l 183 1073 q 194 1086 184 1086 l 630 1093 z "},"":{"ha":926,"x_min":79,"x_max":863,"o":"m 863 -28 q 848 -43 860 -43 l 721 -41 q 706 -23 706 -41 l 705 18 l 99 1 q 83 18 83 1 l 87 142 q 98 155 87 153 l 182 144 l 177 882 l 92 875 q 79 890 79 875 l 87 1013 q 103 1027 88 1026 l 781 1053 q 801 1035 801 1052 l 787 787 q 777 772 787 772 l 663 776 q 651 781 653 777 q 648 793 649 785 l 644 910 l 323 893 l 328 577 l 661 598 q 680 583 678 598 l 684 469 q 670 453 683 453 l 330 448 l 334 138 l 701 151 l 698 239 q 726 266 699 264 l 836 262 q 852 250 852 261 l 863 -28 m 705 1360 q 721 1345 721 1360 q 656 1182 721 1249 q 475 1111 588 1111 q 284 1173 359 1111 q 208 1345 208 1236 q 224 1361 208 1361 l 321 1370 q 335 1348 334 1370 q 348 1305 337 1326 q 377 1267 359 1283 q 470 1235 415 1235 q 593 1347 573 1235 q 608 1363 596 1363 l 705 1360 z "},"":{"ha":811,"x_min":92,"x_max":729,"o":"m 574 4 q 354 -18 488 -18 q 156 66 218 -18 q 92 344 92 154 q 146 642 92 543 q 346 774 209 750 q 452 782 393 782 q 634 720 577 782 q 691 532 691 659 q 662 404 691 449 q 636 372 652 390 q 576 340 620 354 q 476 319 532 326 q 235 308 389 308 q 292 152 244 193 q 416 119 328 119 q 583 134 500 119 l 585 169 q 588 180 585 177 q 600 184 591 182 l 697 206 q 714 193 712 206 q 718 148 716 182 q 722 90 720 115 q 726 43 724 66 l 728 5 q 729 -23 729 -12 q 699 -47 729 -43 l 587 -60 q 572 -45 572 -60 l 574 4 m 511 448 q 533 485 529 464 q 536 533 536 505 q 531 583 536 562 q 514 621 526 605 q 428 653 488 653 q 274 595 313 653 q 233 408 237 541 q 511 448 470 411 m 658 1152 q 674 1136 674 1152 q 610 973 674 1040 q 428 902 541 902 q 237 964 312 902 q 161 1137 161 1027 q 177 1152 161 1151 l 274 1161 q 289 1139 287 1161 q 301 1096 290 1118 q 331 1059 313 1074 q 423 1026 368 1026 q 547 1138 526 1026 q 561 1154 549 1154 l 658 1152 z "},"":{"ha":926,"x_min":79,"x_max":863,"o":"m 863 -28 q 848 -43 860 -43 l 721 -41 q 706 -23 706 -41 l 705 18 l 99 1 q 83 18 83 1 l 87 142 q 98 155 87 153 l 182 144 l 177 882 l 92 875 q 79 890 79 875 l 87 1013 q 103 1027 88 1026 l 781 1053 q 801 1035 801 1052 l 787 787 q 777 772 787 772 l 663 776 q 651 781 653 777 q 648 793 649 785 l 644 910 l 323 893 l 328 577 l 661 598 q 680 583 678 598 l 684 469 q 670 453 683 453 l 330 448 l 334 138 l 701 151 l 698 239 q 726 266 699 264 l 836 262 q 852 250 852 261 l 863 -28 m 538 1187 q 532 1182 538 1187 q 502 1173 525 1177 q 440 1170 479 1170 q 384 1189 401 1170 q 366 1246 366 1208 q 371 1302 366 1284 q 387 1331 375 1320 q 479 1348 408 1348 q 539 1335 525 1348 q 562 1274 562 1314 q 557 1216 562 1235 q 538 1187 551 1197 z "},"":{"ha":811,"x_min":92,"x_max":729,"o":"m 574 4 q 354 -18 488 -18 q 156 66 218 -18 q 92 344 92 154 q 146 642 92 543 q 346 774 209 750 q 452 782 393 782 q 634 720 577 782 q 691 532 691 659 q 662 404 691 449 q 636 372 652 390 q 576 340 620 354 q 476 319 532 326 q 235 308 389 308 q 292 152 244 193 q 416 119 328 119 q 583 134 500 119 l 585 169 q 588 180 585 177 q 600 184 591 182 l 697 206 q 714 193 712 206 q 718 148 716 182 q 722 90 720 115 q 726 43 724 66 l 728 5 q 729 -23 729 -12 q 699 -47 729 -43 l 587 -60 q 572 -45 572 -60 l 574 4 m 511 448 q 533 485 529 464 q 536 533 536 505 q 531 583 536 562 q 514 621 526 605 q 428 653 488 653 q 274 595 313 653 q 233 408 237 541 q 511 448 470 411 m 486 924 q 480 919 486 924 q 452 910 473 913 q 400 907 430 907 q 354 910 370 907 q 328 922 338 913 q 313 980 313 939 q 317 1039 313 1021 q 334 1067 321 1057 q 402 1085 355 1085 q 467 1083 450 1085 q 492 1072 483 1080 q 509 1015 509 1057 q 504 953 509 972 q 486 924 499 934 z "},"":{"ha":926,"x_min":79,"x_max":863,"o":"m 863 -28 q 848 -43 860 -43 l 721 -41 q 706 -23 706 -41 l 705 1 q 645 -121 645 -77 q 710 -166 645 -166 q 787 -153 749 -166 q 830 -139 825 -139 q 841 -151 840 -139 l 855 -263 q 840 -278 855 -273 q 670 -305 754 -305 q 524 -184 524 -305 q 599 15 524 -97 l 99 1 q 83 18 83 1 l 87 142 q 98 155 87 153 l 182 144 l 177 882 l 92 875 q 79 890 79 875 l 87 1013 q 103 1027 88 1026 l 781 1053 q 801 1035 801 1052 l 787 787 q 777 772 787 772 l 663 776 q 651 781 653 777 q 648 793 649 785 l 644 910 l 323 893 l 328 577 l 661 598 q 680 583 678 598 l 684 469 q 670 453 683 453 l 330 448 l 334 138 l 701 151 l 698 239 q 726 266 699 264 l 836 262 q 852 250 852 261 l 863 -28 z "},"":{"ha":811,"x_min":92,"x_max":729,"o":"m 445 -14 q 337 -18 387 -18 q 237 3 287 -18 q 156 66 188 23 q 92 344 92 154 q 146 642 92 543 q 346 774 209 750 q 452 782 393 782 q 634 720 577 782 q 691 532 691 659 q 662 404 691 449 q 636 372 652 390 q 576 340 620 354 q 476 319 532 326 q 235 308 389 308 q 292 152 244 193 q 416 119 328 119 q 581 133 482 119 q 583 173 582 156 q 585 197 585 191 q 600 212 585 208 l 697 233 q 713 224 712 233 q 718 190 715 214 l 722 138 q 729 50 729 66 q 699 21 729 24 l 571 4 q 509 -123 509 -74 q 574 -166 509 -166 q 651 -153 614 -166 q 694 -139 689 -139 q 705 -151 704 -139 l 720 -263 q 705 -278 720 -273 q 534 -305 618 -305 q 389 -184 389 -305 q 445 -14 389 -108 m 511 448 q 533 485 529 464 q 536 533 536 505 q 531 583 536 562 q 514 621 526 605 q 428 653 488 653 q 274 595 313 653 q 233 408 237 541 q 511 448 470 411 z "},"":{"ha":926,"x_min":79,"x_max":863,"o":"m 863 -28 q 848 -43 860 -43 l 721 -41 q 706 -23 706 -41 l 705 18 l 99 1 q 83 18 83 1 l 87 142 q 98 155 87 153 l 182 144 l 177 882 l 92 875 q 79 890 79 875 l 87 1013 q 103 1027 88 1026 l 781 1053 q 801 1035 801 1052 l 787 787 q 777 772 787 772 l 663 776 q 651 781 653 777 q 648 793 649 785 l 644 910 l 323 893 l 328 577 l 661 598 q 680 583 678 598 l 684 469 q 670 453 683 453 l 330 448 l 334 138 l 701 151 l 698 239 q 726 266 699 264 l 836 262 q 852 250 852 261 l 863 -28 m 522 1114 q 493 1097 503 1098 l 427 1091 q 395 1108 415 1091 l 182 1297 q 178 1306 178 1301 q 182 1316 178 1311 l 223 1366 q 230 1370 226 1370 q 239 1367 234 1370 l 464 1242 l 666 1365 q 678 1369 674 1369 q 686 1364 682 1369 l 727 1315 q 732 1303 732 1308 q 729 1297 732 1300 l 522 1114 z "},"":{"ha":811,"x_min":92,"x_max":729,"o":"m 574 4 q 354 -18 488 -18 q 156 66 218 -18 q 92 344 92 154 q 146 642 92 543 q 346 774 209 750 q 452 782 393 782 q 634 720 577 782 q 691 532 691 659 q 662 404 691 449 q 636 372 652 390 q 576 340 620 354 q 476 319 532 326 q 235 308 389 308 q 292 152 244 193 q 416 119 328 119 q 583 134 500 119 l 585 169 q 588 180 585 177 q 600 184 591 182 l 697 206 q 714 193 712 206 q 718 148 716 182 q 722 90 720 115 q 726 43 724 66 l 728 5 q 729 -23 729 -12 q 699 -47 729 -43 l 587 -60 q 572 -45 572 -60 l 574 4 m 511 448 q 533 485 529 464 q 536 533 536 505 q 531 583 536 562 q 514 621 526 605 q 428 653 488 653 q 274 595 313 653 q 233 408 237 541 q 511 448 470 411 m 468 879 q 439 862 453 864 l 371 855 q 339 876 355 855 l 137 1134 q 134 1145 134 1139 q 139 1157 134 1152 l 184 1203 q 193 1207 189 1207 q 201 1204 198 1207 l 411 1015 l 614 1202 q 623 1206 618 1206 q 634 1201 629 1206 l 682 1152 q 686 1143 686 1147 q 684 1135 686 1138 l 468 879 z "},"":{"ha":926,"x_min":65,"x_max":856,"o":"m 494 404 q 479 418 479 407 l 481 539 q 499 554 481 553 l 829 576 q 856 547 854 574 l 852 431 q 848 419 852 423 q 840 415 844 415 l 805 414 l 817 10 q 800 -9 816 -9 q 671 38 762 -9 q 474 -15 580 -15 q 293 17 368 -15 q 168 115 218 48 q 65 536 65 251 q 289 1017 65 933 q 448 1044 360 1044 q 655 979 574 1044 l 669 1061 q 684 1078 671 1078 l 790 1088 q 806 1072 806 1088 l 814 824 q 800 809 814 811 l 671 791 q 598 866 630 846 q 481 901 541 901 q 371 884 420 901 q 286 825 321 867 q 212 533 212 737 q 377 149 212 204 q 505 131 429 131 q 663 161 580 131 l 659 409 l 494 404 m 370 1346 q 401 1363 390 1362 l 465 1370 q 496 1352 476 1370 l 701 1182 q 706 1172 706 1177 q 702 1162 706 1167 l 661 1113 q 653 1109 657 1109 q 644 1112 650 1109 l 427 1219 l 226 1115 q 219 1114 223 1114 q 211 1119 215 1114 l 169 1171 q 165 1179 165 1176 q 168 1185 165 1183 l 370 1346 z "},"":{"ha":811,"x_min":81,"x_max":763,"o":"m 743 774 q 763 749 762 774 l 754 643 q 739 629 753 629 l 616 652 q 689 513 689 575 q 672 400 689 450 q 618 315 656 349 q 382 244 543 244 q 267 258 318 244 q 250 197 250 220 q 254 163 250 173 q 267 146 257 153 q 323 135 286 135 q 394 137 361 135 q 532 141 480 141 q 626 124 584 141 q 693 79 667 107 q 743 -68 743 23 q 654 -251 743 -180 q 380 -329 557 -329 q 165 -292 233 -329 q 88 -162 88 -250 q 166 27 88 -75 q 112 126 112 58 q 191 289 112 194 q 81 508 81 353 q 171 716 81 644 q 393 781 252 781 q 527 779 466 781 q 743 774 669 774 m 544 459 q 551 517 551 486 q 542 575 551 549 q 514 621 533 602 q 397 662 473 662 q 237 579 275 662 q 224 507 224 549 q 397 368 224 368 q 544 459 517 368 m 484 7 l 298 1 q 250 3 271 1 q 227 -104 227 -52 q 269 -178 227 -157 q 380 -199 310 -199 q 490 -190 451 -199 q 555 -167 528 -182 q 608 -85 608 -136 q 590 -26 608 -43 q 484 7 557 7 m 364 1183 q 393 1200 379 1198 l 461 1207 q 493 1187 477 1207 l 695 928 q 699 917 699 924 q 693 905 699 911 l 648 859 q 639 855 644 855 q 631 858 634 855 l 421 1048 l 218 860 q 208 856 213 856 q 198 861 203 856 l 151 910 q 145 920 145 916 q 149 928 145 924 l 364 1183 z "},"":{"ha":926,"x_min":65,"x_max":856,"o":"m 494 404 q 479 418 479 407 l 481 539 q 499 554 481 553 l 829 576 q 856 547 854 574 l 852 431 q 848 419 852 423 q 840 415 844 415 l 805 414 l 817 10 q 800 -9 816 -9 q 671 38 762 -9 q 474 -15 580 -15 q 293 17 368 -15 q 168 115 218 48 q 65 536 65 251 q 289 1017 65 933 q 448 1044 360 1044 q 655 979 574 1044 l 669 1061 q 684 1078 671 1078 l 790 1088 q 806 1072 806 1088 l 814 824 q 800 809 814 811 l 671 791 q 598 866 630 846 q 481 901 541 901 q 371 884 420 901 q 286 825 321 867 q 212 533 212 737 q 377 149 212 204 q 505 131 429 131 q 663 161 580 131 l 659 409 l 494 404 m 671 1360 q 687 1345 687 1360 q 623 1182 687 1249 q 441 1111 554 1111 q 250 1173 325 1111 q 174 1345 174 1236 q 190 1361 174 1361 l 287 1370 q 301 1348 300 1370 q 314 1305 303 1326 q 343 1267 326 1283 q 436 1235 381 1235 q 559 1347 539 1235 q 574 1363 562 1363 l 671 1360 z "},"":{"ha":811,"x_min":81,"x_max":763,"o":"m 743 774 q 763 749 762 774 l 754 643 q 739 629 753 629 l 616 652 q 689 513 689 575 q 672 400 689 450 q 618 315 656 349 q 382 244 543 244 q 267 258 318 244 q 250 197 250 220 q 254 163 250 173 q 267 146 257 153 q 323 135 286 135 q 394 137 361 135 q 532 141 480 141 q 626 124 584 141 q 693 79 667 107 q 743 -68 743 23 q 654 -251 743 -180 q 380 -329 557 -329 q 165 -292 233 -329 q 88 -162 88 -250 q 166 27 88 -75 q 112 126 112 58 q 191 289 112 194 q 81 508 81 353 q 171 716 81 644 q 393 781 252 781 q 527 779 466 781 q 743 774 669 774 m 544 459 q 551 517 551 486 q 542 575 551 549 q 514 621 533 602 q 397 662 473 662 q 237 579 275 662 q 224 507 224 549 q 397 368 224 368 q 544 459 517 368 m 484 7 l 298 1 q 250 3 271 1 q 227 -104 227 -52 q 269 -178 227 -157 q 380 -199 310 -199 q 490 -190 451 -199 q 555 -167 528 -182 q 608 -85 608 -136 q 590 -26 608 -43 q 484 7 557 7 m 669 1152 q 686 1136 686 1152 q 621 973 686 1040 q 439 902 553 902 q 249 964 323 902 q 172 1137 172 1027 q 189 1152 172 1151 l 286 1161 q 300 1139 298 1161 q 313 1096 302 1118 q 342 1059 324 1074 q 435 1026 380 1026 q 558 1138 538 1026 q 572 1154 561 1154 l 669 1152 z "},"":{"ha":926,"x_min":65,"x_max":856,"o":"m 494 404 q 479 418 479 407 l 481 539 q 499 554 481 553 l 829 576 q 856 547 854 574 l 852 431 q 848 419 852 423 q 840 415 844 415 l 805 414 l 817 10 q 800 -9 816 -9 q 671 38 762 -9 q 474 -15 580 -15 q 293 17 368 -15 q 168 115 218 48 q 65 536 65 251 q 289 1017 65 933 q 448 1044 360 1044 q 655 979 574 1044 l 669 1061 q 684 1078 671 1078 l 790 1088 q 806 1072 806 1088 l 814 824 q 800 809 814 811 l 671 791 q 598 866 630 846 q 481 901 541 901 q 371 884 420 901 q 286 825 321 867 q 212 533 212 737 q 377 149 212 204 q 505 131 429 131 q 663 161 580 131 l 659 409 l 494 404 m 504 1187 q 498 1182 504 1187 q 468 1173 491 1177 q 407 1170 446 1170 q 350 1189 368 1170 q 332 1246 332 1208 q 337 1302 332 1284 q 353 1331 341 1320 q 445 1348 374 1348 q 505 1335 491 1348 q 528 1274 528 1314 q 523 1216 528 1235 q 504 1187 517 1197 z "},"":{"ha":811,"x_min":81,"x_max":763,"o":"m 743 774 q 763 749 762 774 l 754 643 q 739 629 753 629 l 616 652 q 689 513 689 575 q 672 400 689 450 q 618 315 656 349 q 382 244 543 244 q 267 258 318 244 q 250 197 250 220 q 254 163 250 173 q 267 146 257 153 q 323 135 286 135 q 394 137 361 135 q 532 141 480 141 q 626 124 584 141 q 693 79 667 107 q 743 -68 743 23 q 654 -251 743 -180 q 380 -329 557 -329 q 165 -292 233 -329 q 88 -162 88 -250 q 166 27 88 -75 q 112 126 112 58 q 191 289 112 194 q 81 508 81 353 q 171 716 81 644 q 393 781 252 781 q 527 779 466 781 q 743 774 669 774 m 544 459 q 551 517 551 486 q 542 575 551 549 q 514 621 533 602 q 397 662 473 662 q 237 579 275 662 q 224 507 224 549 q 397 368 224 368 q 544 459 517 368 m 484 7 l 298 1 q 250 3 271 1 q 227 -104 227 -52 q 269 -178 227 -157 q 380 -199 310 -199 q 490 -190 451 -199 q 555 -167 528 -182 q 608 -85 608 -136 q 590 -26 608 -43 q 484 7 557 7 m 491 924 q 485 919 491 924 q 456 910 478 913 q 405 907 435 907 q 358 910 374 907 q 334 922 342 913 q 317 980 317 939 q 322 1039 317 1021 q 338 1067 326 1057 q 407 1085 359 1085 q 471 1083 455 1085 q 497 1072 488 1080 q 513 1015 513 1057 q 509 953 513 972 q 491 924 504 934 z "},"":{"ha":926,"x_min":65,"x_max":856,"o":"m 494 404 q 479 418 479 407 l 481 539 q 499 554 481 553 l 829 576 q 856 547 854 574 l 852 431 q 848 419 852 423 q 840 415 844 415 l 805 414 l 817 10 q 800 -9 816 -9 q 671 38 762 -9 q 474 -15 580 -15 q 293 17 368 -15 q 168 115 218 48 q 65 536 65 251 q 289 1017 65 933 q 448 1044 360 1044 q 655 979 574 1044 l 669 1061 q 684 1078 671 1078 l 790 1088 q 806 1072 806 1088 l 814 824 q 800 809 814 811 l 671 791 q 598 866 630 846 q 481 901 541 901 q 371 884 420 901 q 286 825 321 867 q 212 533 212 737 q 377 149 212 204 q 505 131 429 131 q 663 161 580 131 l 659 409 l 494 404 m 466 -366 l 401 -342 q 392 -334 392 -338 q 395 -322 392 -329 q 404 -302 399 -315 q 414 -276 410 -289 q 425 -233 425 -247 q 401 -197 425 -214 q 377 -163 377 -178 q 387 -131 377 -149 q 411 -100 396 -114 q 473 -68 444 -68 q 518 -77 502 -68 q 545 -99 535 -85 q 564 -160 564 -125 q 557 -219 564 -194 q 537 -269 549 -245 q 496 -336 519 -307 q 466 -366 474 -366 z "},"":{"ha":811,"x_min":81,"x_max":763,"o":"m 743 774 q 763 749 762 774 l 754 643 q 739 629 753 629 l 616 652 q 689 513 689 575 q 672 400 689 450 q 618 315 656 349 q 382 244 543 244 q 267 258 318 244 q 250 197 250 220 q 254 163 250 173 q 267 146 257 153 q 323 135 286 135 q 394 137 361 135 q 532 141 480 141 q 626 124 584 141 q 693 79 667 107 q 743 -68 743 23 q 654 -251 743 -180 q 380 -329 557 -329 q 165 -292 233 -329 q 88 -162 88 -250 q 166 27 88 -75 q 112 126 112 58 q 191 289 112 194 q 81 508 81 353 q 171 716 81 644 q 393 781 252 781 q 527 779 466 781 q 743 774 669 774 m 544 459 q 551 517 551 486 q 542 575 551 549 q 514 621 533 602 q 397 662 473 662 q 237 579 275 662 q 224 507 224 549 q 397 368 224 368 q 544 459 517 368 m 484 7 l 298 1 q 250 3 271 1 q 227 -104 227 -52 q 269 -178 227 -157 q 380 -199 310 -199 q 490 -190 451 -199 q 555 -167 528 -182 q 608 -85 608 -136 q 590 -26 608 -43 q 484 7 557 7 m 469 1261 q 458 1149 458 1192 q 462 1085 458 1107 q 472 1044 466 1063 q 484 1009 477 1025 l 496 981 q 505 951 505 963 q 493 928 505 939 q 465 909 482 917 q 390 894 430 894 q 317 1002 317 894 q 389 1276 317 1127 l 469 1261 z "},"":{"ha":1043,"x_min":85,"x_max":977,"o":"m 450 163 q 461 150 461 163 l 452 22 q 436 9 451 9 l 121 4 q 109 20 110 4 l 111 140 q 121 153 111 151 l 194 151 l 194 884 l 104 884 q 94 887 96 884 q 92 899 92 890 l 85 1018 q 90 1028 86 1026 q 102 1032 94 1031 l 440 1027 q 452 1011 452 1025 l 450 892 q 434 877 450 877 l 345 882 l 345 582 l 712 587 l 712 897 l 619 899 q 610 903 612 899 q 607 914 608 906 l 611 1027 q 627 1041 612 1041 l 944 1042 q 954 1039 951 1042 q 956 1027 956 1036 l 965 905 q 949 890 965 890 l 863 892 l 861 139 l 966 142 q 977 130 977 142 l 968 9 q 951 -5 966 -5 l 630 4 q 618 20 618 4 l 619 134 q 630 146 619 144 l 712 140 l 712 450 l 344 447 l 343 155 l 450 163 m 465 1346 q 496 1363 485 1362 l 560 1370 q 591 1352 571 1370 l 796 1182 q 801 1172 801 1177 q 797 1162 801 1167 l 755 1113 q 748 1109 752 1109 q 739 1112 745 1109 l 522 1219 l 321 1115 q 314 1114 318 1114 q 306 1119 310 1114 l 264 1171 q 260 1179 260 1176 q 263 1185 260 1183 l 465 1346 z "},"":{"ha":929,"x_min":78,"x_max":851,"o":"m 622 477 q 514 628 622 628 q 374 596 453 628 q 330 576 350 587 l 328 129 l 410 121 q 420 109 420 119 l 408 21 q 393 7 406 7 l 106 2 q 96 18 96 2 l 109 138 q 113 148 111 145 q 125 151 116 151 l 176 145 l 176 669 l 190 918 l 93 910 q 78 926 78 910 l 78 1030 q 94 1044 78 1042 l 324 1053 q 340 1037 338 1053 l 323 702 q 568 781 446 781 q 761 604 732 781 q 770 441 770 548 q 755 138 770 334 l 837 142 q 851 128 851 141 l 851 28 q 836 15 851 15 l 544 8 q 533 24 533 8 l 548 116 q 552 127 549 125 q 563 130 555 130 l 620 132 q 621 222 621 173 l 621 321 q 622 411 622 369 l 622 477 m 395 1346 q 425 1363 414 1362 l 490 1370 q 521 1352 500 1370 l 726 1182 q 730 1172 730 1177 q 726 1162 730 1167 l 685 1113 q 678 1109 682 1109 q 669 1112 674 1109 l 452 1219 l 250 1115 q 243 1114 248 1114 q 235 1119 239 1114 l 193 1171 q 189 1179 189 1176 q 193 1185 189 1183 l 395 1346 z "},"":{"ha":1043,"x_min":56,"x_max":992,"o":"m 450 163 q 461 150 461 163 l 452 22 q 436 9 451 9 l 121 4 q 109 20 110 4 l 111 140 q 121 153 111 151 l 194 151 l 194 685 l 70 679 q 56 692 56 680 l 64 781 q 76 794 64 793 l 194 789 l 194 884 l 104 884 q 94 887 96 884 q 92 899 92 890 l 85 1018 q 90 1028 86 1026 q 102 1032 94 1031 l 440 1027 q 452 1011 452 1025 l 450 892 q 434 877 450 877 l 345 882 l 345 785 l 712 783 l 712 897 l 619 899 q 610 903 612 899 q 607 914 608 906 l 611 1027 q 627 1041 612 1041 l 944 1042 q 954 1039 951 1042 q 956 1027 956 1036 l 965 905 q 949 890 965 890 l 863 892 l 863 784 l 975 787 q 985 774 984 787 l 992 692 q 977 676 989 676 l 863 683 l 861 139 l 966 142 q 977 130 977 142 l 968 9 q 951 -5 966 -5 l 630 4 q 618 20 618 4 l 619 134 q 630 146 619 144 l 712 140 l 712 450 l 344 447 l 343 155 l 450 163 m 712 587 l 712 689 l 345 691 l 345 582 l 712 587 z "},"":{"ha":929,"x_min":48,"x_max":851,"o":"m 622 477 q 514 628 622 628 q 374 596 453 628 q 330 576 350 587 l 328 129 l 410 121 q 420 109 420 119 l 408 21 q 393 7 406 7 l 106 2 q 96 18 96 2 l 109 138 q 113 148 111 145 q 125 151 116 151 l 176 145 l 176 709 l 180 790 l 66 767 q 54 779 55 767 l 48 873 q 56 885 48 884 l 186 901 l 190 958 l 93 951 q 78 967 78 951 l 78 1071 q 94 1084 78 1083 l 324 1094 q 340 1078 338 1094 l 333 925 l 484 955 q 502 942 500 955 l 507 854 q 496 840 507 842 l 328 816 l 323 702 q 568 781 446 781 q 761 604 732 781 q 770 441 770 548 q 755 138 770 334 l 837 142 q 851 128 851 141 l 851 28 q 836 15 851 15 l 544 8 q 533 24 533 8 l 548 116 q 552 127 549 125 q 563 130 555 130 l 620 132 q 621 222 621 173 l 621 321 q 622 411 622 369 l 622 477 z "},"":{"ha":463,"x_min":-50,"x_max":509,"o":"m 397 142 q 408 130 408 142 l 406 9 q 389 -5 406 -5 l 75 4 q 62 20 63 4 l 57 140 q 68 153 58 151 l 162 146 l 157 885 l 64 886 q 52 901 52 886 l 62 1020 q 67 1030 63 1028 q 79 1034 71 1033 l 395 1022 q 405 1018 403 1021 q 408 1006 407 1015 l 403 899 q 387 884 401 884 l 308 884 l 306 142 l 397 142 m -50 1249 q -16 1290 -50 1261 q 41 1333 18 1318 q 128 1364 93 1364 q 202 1339 157 1364 q 275 1301 248 1314 q 320 1289 301 1289 q 355 1293 338 1289 q 387 1303 372 1297 q 417 1317 403 1310 l 443 1331 q 473 1343 465 1343 q 485 1331 480 1343 l 507 1278 q 509 1270 509 1274 q 476 1231 509 1261 q 420 1184 444 1200 q 333 1146 366 1146 q 274 1158 300 1146 q 220 1183 247 1170 q 129 1219 148 1219 q 97 1216 110 1219 q 70 1207 83 1213 q 42 1196 56 1202 l 16 1184 q -13 1174 -5 1174 q -28 1187 -24 1174 l -50 1249 z "},"":{"ha":463,"x_min":-20,"x_max":511,"o":"m 102 -9 q 92 7 92 -9 l 92 109 q 103 122 92 122 l 184 122 l 190 596 l 80 608 q 68 623 68 609 l 83 734 q 99 749 85 747 l 317 771 q 326 767 324 771 q 329 755 328 764 l 338 632 l 336 122 l 413 122 q 424 109 424 122 l 412 20 q 407 10 410 12 q 395 7 404 7 l 102 -9 m -20 991 q 13 1031 -20 1002 q 68 1075 46 1061 q 144 1107 117 1107 q 195 1095 172 1107 q 243 1068 219 1082 q 328 1031 306 1031 q 367 1036 349 1031 q 401 1047 385 1040 q 431 1063 417 1055 l 455 1077 q 476 1086 469 1086 q 488 1073 483 1086 l 510 1020 q 511 1012 511 1017 q 500 994 511 1006 l 469 962 q 334 888 394 888 q 237 925 302 888 q 149 962 171 962 q 81 944 115 962 q 19 916 27 916 q 1 930 6 916 l -20 991 z "},"":{"ha":463,"x_min":-5,"x_max":459,"o":"m 397 142 q 408 130 408 142 l 406 9 q 389 -5 406 -5 l 75 4 q 62 20 63 4 l 57 140 q 68 153 58 151 l 162 146 l 157 885 l 64 886 q 52 901 52 886 l 62 1020 q 67 1030 63 1028 q 79 1034 71 1033 l 395 1022 q 405 1018 403 1021 q 408 1006 407 1015 l 403 899 q 387 884 401 884 l 308 884 l 306 142 l 397 142 m 448 1337 q 459 1324 459 1335 l 447 1208 q 443 1197 446 1200 q 431 1194 439 1194 l 7 1198 q -5 1215 -5 1198 l 1 1317 q 15 1330 2 1330 l 448 1337 z "},"":{"ha":463,"x_min":12,"x_max":476,"o":"m 102 -9 q 92 7 92 -9 l 92 109 q 103 122 92 122 l 184 122 l 190 596 l 80 608 q 68 623 68 609 l 83 734 q 99 749 85 747 l 317 771 q 326 767 324 771 q 329 755 328 764 l 338 632 l 336 122 l 413 122 q 424 109 424 122 l 412 20 q 407 10 410 12 q 395 7 404 7 l 102 -9 m 465 1093 q 476 1080 476 1091 l 464 964 q 459 953 463 956 q 448 950 456 950 l 21 954 q 12 970 12 954 l 18 1073 q 29 1086 20 1086 l 465 1093 z "},"":{"ha":463,"x_min":-27,"x_max":486,"o":"m 397 142 q 408 130 408 142 l 406 9 q 389 -5 406 -5 l 75 4 q 62 20 63 4 l 57 140 q 68 153 58 151 l 162 146 l 157 885 l 64 886 q 52 901 52 886 l 62 1020 q 67 1030 63 1028 q 79 1034 71 1033 l 395 1022 q 405 1018 403 1021 q 408 1006 407 1015 l 403 899 q 387 884 401 884 l 308 884 l 306 142 l 397 142 m 470 1360 q 486 1345 486 1360 q 422 1182 486 1249 q 240 1111 353 1111 q 50 1173 124 1111 q -27 1345 -27 1236 q -11 1361 -27 1361 l 86 1370 q 101 1348 99 1370 q 114 1305 102 1326 q 142 1267 125 1283 q 235 1235 180 1235 q 359 1347 338 1235 q 373 1363 361 1363 l 470 1360 z "},"":{"ha":463,"x_min":-4,"x_max":509,"o":"m 102 -9 q 92 7 92 -9 l 92 109 q 103 122 92 122 l 184 122 l 190 596 l 80 608 q 68 623 68 609 l 83 734 q 99 749 85 747 l 317 771 q 326 767 324 771 q 329 755 328 764 l 338 632 l 336 122 l 413 122 q 424 109 424 122 l 412 20 q 407 10 410 12 q 395 7 404 7 l 102 -9 m 493 1152 q 509 1136 509 1152 q 445 973 509 1040 q 263 902 376 902 q 73 964 147 902 q -4 1137 -4 1027 q 12 1152 -4 1151 l 109 1161 q 124 1139 122 1161 q 137 1096 125 1118 q 165 1059 148 1074 q 258 1026 203 1026 q 382 1138 361 1026 q 396 1154 385 1154 l 493 1152 z "},"":{"ha":463,"x_min":52,"x_max":414,"o":"m 397 142 q 408 130 408 142 l 406 9 q 389 -5 406 -5 l 291 -2 l 266 -30 q 224 -117 224 -78 q 289 -166 224 -166 q 355 -153 325 -166 q 392 -139 385 -139 q 399 -151 398 -139 l 414 -263 q 399 -278 414 -273 q 249 -305 314 -305 q 103 -184 103 -305 q 178 1 103 -115 l 75 4 q 62 20 63 4 l 57 140 q 68 153 58 151 l 162 146 l 157 885 l 64 886 q 52 901 52 886 l 62 1020 q 67 1030 63 1028 q 79 1034 71 1033 l 395 1022 q 405 1018 403 1021 q 408 1006 407 1015 l 403 899 q 387 884 401 884 l 308 884 l 306 142 l 397 142 z "},"":{"ha":463,"x_min":68,"x_max":436,"o":"m 102 -9 q 92 7 92 -9 l 92 109 q 103 122 92 122 l 184 122 l 190 596 l 80 608 q 68 623 68 609 l 83 734 q 99 749 85 747 l 317 771 q 326 767 324 771 q 329 755 328 764 l 338 632 l 336 122 l 413 122 q 424 109 424 122 l 412 20 q 407 10 410 12 q 395 7 404 7 l 306 1 q 239 -117 239 -75 q 304 -166 239 -166 q 374 -153 341 -166 q 414 -139 408 -139 q 422 -151 420 -139 l 436 -263 q 421 -278 436 -273 q 264 -305 335 -305 q 119 -184 119 -305 q 186 -5 119 -115 l 102 -9 m 313 924 q 306 919 313 924 q 278 910 300 913 q 226 907 256 907 q 180 910 196 907 q 155 922 164 913 q 139 980 139 939 q 143 1039 139 1021 q 160 1067 148 1057 q 229 1085 181 1085 q 293 1083 277 1085 q 319 1072 309 1080 q 335 1015 335 1057 q 330 953 335 972 q 313 924 326 934 z "},"":{"ha":463,"x_min":52,"x_max":408,"o":"m 397 142 q 408 130 408 142 l 406 9 q 389 -5 406 -5 l 75 4 q 62 20 63 4 l 57 140 q 68 153 58 151 l 162 146 l 157 885 l 64 886 q 52 901 52 886 l 62 1020 q 67 1030 63 1028 q 79 1034 71 1033 l 395 1022 q 405 1018 403 1021 q 408 1006 407 1015 l 403 899 q 387 884 401 884 l 308 884 l 306 142 l 397 142 m 303 1187 q 297 1182 303 1187 q 268 1173 290 1177 q 206 1170 245 1170 q 149 1189 167 1170 q 132 1246 132 1208 q 136 1302 132 1284 q 153 1331 140 1320 q 244 1348 174 1348 q 304 1335 290 1348 q 328 1274 328 1314 q 322 1216 328 1235 q 303 1187 317 1197 z "},"":{"ha":463,"x_min":68,"x_max":424,"o":"m 102 -9 q 92 7 92 -9 l 92 109 q 103 122 92 122 l 184 122 l 190 596 l 80 608 q 68 623 68 609 l 83 734 q 99 749 85 747 l 317 771 q 326 767 324 771 q 329 755 328 764 l 338 632 l 336 122 l 413 122 q 424 109 424 122 l 412 20 q 407 10 410 12 q 395 7 404 7 l 102 -9 z "},"":{"ha":1040,"x_min":52,"x_max":1034,"o":"m 922 892 q 952 176 952 545 q 892 -60 952 9 q 694 -127 833 -127 l 686 -127 l 696 -195 q 680 -212 696 -210 l 576 -222 q 548 -196 551 -222 l 529 100 q 544 118 529 117 l 638 127 q 652 112 650 127 l 669 -7 l 672 -7 q 776 44 746 -7 q 806 216 806 95 q 774 888 806 452 l 634 880 q 623 893 623 880 l 618 1021 q 623 1031 619 1029 q 635 1034 626 1034 l 1016 1046 q 1028 1031 1027 1046 l 1034 903 q 1023 890 1032 892 l 922 892 m 397 142 q 408 130 408 142 l 406 9 q 389 -5 406 -5 l 75 4 q 62 20 63 4 l 57 140 q 68 153 58 151 l 162 146 l 157 885 l 64 886 q 52 901 52 886 l 62 1020 q 67 1030 63 1028 q 79 1034 71 1033 l 395 1022 q 405 1018 403 1021 q 408 1006 407 1015 l 403 899 q 387 884 401 884 l 308 884 l 306 142 l 397 142 z "},"":{"ha":926,"x_min":68,"x_max":813,"o":"m 102 -9 q 92 7 92 -9 l 92 109 q 103 122 92 122 l 184 122 l 190 596 l 80 608 q 68 623 68 609 l 83 734 q 99 749 85 747 l 317 771 q 326 767 324 771 q 329 755 328 764 l 338 632 l 336 122 l 413 122 q 424 109 424 122 l 412 20 q 407 10 410 12 q 395 7 404 7 l 102 -9 m 313 924 q 306 919 313 924 q 278 910 300 913 q 226 907 256 907 q 180 910 196 907 q 155 922 164 913 q 139 980 139 939 q 143 1039 139 1021 q 160 1067 148 1057 q 229 1085 181 1085 q 293 1083 277 1085 q 319 1072 309 1080 q 335 1015 335 1057 q 330 953 335 972 q 313 924 326 934 m 520 -163 q 668 -51 668 -163 q 667 50 668 -4 l 667 163 q 666 281 667 220 q 662 606 663 522 l 544 601 q 532 616 533 602 l 522 739 q 538 756 522 755 l 785 771 q 800 755 797 770 l 795 627 q 798 549 796 593 q 802 454 800 505 l 806 347 q 813 51 813 160 q 803 -120 813 -59 q 764 -221 793 -180 q 541 -304 704 -304 q 525 -288 528 -304 l 505 -177 q 520 -163 505 -163 m 805 1025 q 729 905 805 905 q 602 970 602 905 q 678 1087 602 1087 q 805 1025 805 1087 z "},"":{"ha":578,"x_min":26,"x_max":650,"o":"m 460 892 q 490 242 490 563 q 429 7 490 75 q 232 -60 371 -60 q 210 -59 220 -60 l 187 -56 l 193 -93 q 177 -105 193 -104 l 73 -115 q 45 -89 47 -115 l 26 208 q 41 225 27 223 l 135 235 q 149 219 146 235 l 170 64 q 217 59 189 59 q 272 71 246 59 q 313 110 298 83 q 343 282 343 161 q 331 623 343 450 l 312 888 l 172 880 q 161 893 161 880 l 156 1021 q 160 1031 157 1029 q 172 1034 163 1034 l 553 1046 q 566 1029 564 1046 l 571 903 q 560 890 570 892 l 460 892 m 314 1346 q 345 1363 334 1362 l 409 1370 q 440 1352 420 1370 l 645 1182 q 650 1172 650 1177 q 646 1162 650 1167 l 604 1113 q 597 1109 601 1109 q 588 1112 593 1109 l 371 1219 l 170 1115 q 163 1114 167 1114 q 155 1119 159 1114 l 113 1171 q 109 1179 109 1176 q 112 1185 109 1183 l 314 1346 z "},"":{"ha":463,"x_min":-46,"x_max":507,"o":"m 57 -163 q 205 -51 205 -163 q 205 50 205 -4 l 203 163 q 203 281 203 220 q 199 606 200 522 l 81 601 q 68 616 70 602 l 58 739 q 75 756 59 755 l 322 771 q 336 755 334 770 l 332 627 q 335 549 334 593 q 350 59 350 176 q 340 -120 350 -59 q 300 -221 330 -180 q 77 -304 241 -304 q 62 -288 64 -304 l 41 -177 q 57 -163 41 -163 m 173 1183 q 201 1200 188 1198 l 270 1207 q 302 1187 286 1207 l 504 928 q 507 917 507 924 q 502 905 507 911 l 456 859 q 448 855 452 855 q 440 858 443 855 l 230 1048 l 27 860 q 17 856 22 856 q 7 861 12 856 l -41 910 q -46 920 -46 916 q -43 928 -46 924 l 173 1183 z "},"":{"ha":926,"x_min":56,"x_max":916,"o":"m 579 892 q 567 907 567 892 l 578 1034 q 594 1048 578 1045 l 877 1042 q 889 1027 889 1041 l 891 905 q 876 890 891 890 l 800 891 l 522 496 l 776 151 l 892 142 q 915 119 915 141 l 916 20 q 890 -11 916 -9 l 713 -16 q 689 -2 698 -14 l 408 427 l 326 425 l 326 149 l 397 149 q 408 136 408 149 l 412 9 q 396 -5 411 -5 l 81 -3 q 69 14 70 -3 l 64 147 q 75 160 65 158 l 174 154 l 174 895 l 77 886 q 68 889 70 886 q 65 901 66 892 l 56 1034 q 72 1048 57 1048 l 395 1049 q 405 1045 403 1048 q 408 1034 407 1042 l 396 905 q 380 890 394 890 l 326 894 l 326 541 l 412 547 l 642 892 l 579 892 m 484 -366 l 420 -342 q 410 -334 410 -338 q 414 -322 410 -329 q 422 -302 417 -315 q 433 -276 428 -289 q 444 -233 444 -247 q 420 -197 444 -214 q 395 -163 395 -178 q 405 -131 395 -149 q 429 -100 414 -114 q 491 -68 462 -68 q 537 -77 520 -68 q 564 -99 553 -85 q 583 -160 583 -125 q 575 -219 583 -194 q 556 -269 568 -245 q 515 -336 537 -307 q 484 -366 492 -366 z "},"":{"ha":810,"x_min":36,"x_max":804,"o":"m 50 109 q 60 122 51 122 l 148 122 l 148 934 l 51 947 q 41 951 43 948 q 39 962 39 954 l 36 1054 q 52 1068 36 1066 l 260 1090 q 275 1074 273 1090 l 288 953 l 279 440 l 366 444 l 530 645 l 447 635 q 436 648 436 635 l 441 758 q 458 771 443 771 l 765 774 q 774 758 774 774 l 768 655 q 757 642 766 642 l 688 648 l 476 395 l 671 134 l 783 130 q 798 113 796 130 l 804 20 q 801 10 804 12 q 789 7 797 7 l 582 -1 q 564 14 573 -1 l 358 328 l 277 321 l 274 128 l 343 136 q 354 123 354 136 l 349 20 q 345 10 348 12 q 332 7 341 7 l 66 -3 q 54 14 56 -3 l 50 109 m 425 -366 l 361 -342 q 351 -334 351 -338 q 355 -322 351 -329 q 363 -302 358 -315 q 374 -276 369 -289 q 385 -233 385 -247 q 361 -197 385 -214 q 336 -163 336 -178 q 346 -131 336 -149 q 370 -100 355 -114 q 432 -68 403 -68 q 478 -77 461 -68 q 505 -99 494 -85 q 524 -160 524 -125 q 516 -219 524 -194 q 496 -269 509 -245 q 456 -336 478 -307 q 425 -366 433 -366 z "},"":{"ha":810,"x_min":35,"x_max":808,"o":"m 56 -3 q 46 14 46 -3 l 53 102 q 64 115 54 115 l 139 115 l 150 635 l 47 648 q 38 652 40 650 q 35 663 35 655 l 46 751 q 62 770 49 768 l 264 798 q 279 782 276 798 q 292 663 292 711 l 283 443 l 378 439 l 545 648 l 457 642 q 446 655 446 642 l 458 771 q 463 782 460 779 q 475 785 466 784 l 765 774 q 778 758 777 774 l 785 655 q 774 642 785 642 l 698 649 l 479 393 l 664 126 l 793 136 q 808 120 808 136 l 801 20 q 797 10 800 12 q 785 7 793 7 l 585 -8 q 567 7 576 -8 l 374 324 l 279 324 l 271 118 l 347 122 q 357 109 357 122 l 352 7 q 348 -4 351 -1 q 336 -7 345 -6 l 56 -3 z "},"":{"ha":811,"x_min":56,"x_max":779,"o":"m 657 -29 q 643 -14 646 -29 l 640 19 l 68 -5 q 56 12 56 -5 l 66 130 q 77 142 68 140 l 171 138 l 177 884 l 85 876 q 75 879 77 876 q 73 890 73 882 l 66 1013 q 83 1028 67 1028 l 412 1034 q 427 1018 425 1032 l 439 899 q 435 887 439 889 q 424 884 431 884 l 325 887 l 323 142 l 625 157 l 613 276 q 629 290 613 289 l 739 300 q 767 274 766 300 l 779 5 q 764 -13 778 -11 l 657 -29 m 559 1249 q 562 1236 562 1244 q 551 1224 562 1228 l 216 1084 q 206 1082 211 1082 q 199 1088 201 1082 l 172 1151 q 170 1162 170 1158 q 176 1169 170 1166 l 483 1366 q 499 1370 491 1370 q 511 1360 507 1370 l 559 1249 z "},"":{"ha":463,"x_min":49,"x_max":443,"o":"m 433 1249 q 435 1236 435 1244 q 425 1224 435 1228 l 150 1101 q 140 1099 144 1099 q 132 1105 135 1099 l 106 1168 q 103 1179 103 1175 q 109 1186 103 1183 l 357 1366 q 372 1370 362 1370 q 385 1360 381 1370 l 433 1249 m 85 852 q 73 867 73 852 l 77 1000 q 81 1010 77 1008 q 94 1014 85 1013 l 314 1008 q 323 1005 321 1008 q 326 993 326 1001 l 321 885 l 332 142 l 424 149 q 435 136 433 149 l 443 14 q 438 3 441 5 q 427 0 435 1 l 58 4 q 49 20 49 4 l 49 136 q 60 149 49 149 l 188 141 l 188 860 l 85 852 z "},"":{"ha":810,"x_min":56,"x_max":779,"o":"m 657 -29 q 643 -14 646 -29 l 640 19 l 68 -5 q 56 12 56 -5 l 66 130 q 77 142 68 140 l 171 138 l 177 884 l 85 876 q 75 879 77 876 q 73 890 73 882 l 66 1013 q 83 1028 67 1028 l 412 1034 q 427 1018 425 1032 l 439 899 q 435 887 439 889 q 424 884 431 884 l 325 887 l 323 142 l 625 157 l 613 276 q 629 290 613 289 l 739 300 q 767 274 766 300 l 779 5 q 764 -13 778 -11 l 657 -29 m 422 -366 l 357 -342 q 348 -334 348 -338 q 351 -322 348 -329 q 360 -302 355 -315 q 370 -276 366 -289 q 381 -233 381 -247 q 357 -197 381 -214 q 333 -163 333 -178 q 342 -131 333 -149 q 366 -100 352 -114 q 429 -68 399 -68 q 474 -77 458 -68 q 501 -99 491 -85 q 520 -160 520 -125 q 513 -219 520 -194 q 494 -269 505 -245 q 452 -336 475 -307 q 422 -366 430 -366 z "},"":{"ha":463,"x_min":49,"x_max":443,"o":"m 85 920 q 73 935 73 920 l 77 1067 q 81 1078 77 1076 q 94 1082 85 1080 l 314 1076 q 323 1073 321 1076 q 326 1061 326 1069 l 321 953 l 332 142 l 424 149 q 435 136 433 149 l 443 14 q 438 3 441 5 q 427 0 435 1 l 58 4 q 49 20 49 4 l 49 136 q 60 149 49 149 l 188 141 l 188 928 l 85 920 m 251 -366 l 186 -342 q 177 -334 177 -338 q 180 -322 177 -329 q 189 -302 184 -315 q 199 -276 195 -289 q 210 -233 210 -247 q 186 -197 210 -214 q 162 -163 162 -178 q 172 -131 162 -149 q 195 -100 181 -114 q 258 -68 229 -68 q 303 -77 287 -68 q 330 -99 320 -85 q 349 -160 349 -125 q 342 -219 349 -194 q 323 -269 334 -245 q 281 -336 304 -307 q 251 -366 259 -366 z "},"":{"ha":811,"x_min":-12,"x_max":779,"o":"m 657 -29 q 643 -14 646 -29 l 640 19 l 68 -5 q 56 12 56 -5 l 66 130 q 77 142 68 140 l 171 138 l 177 884 l 85 876 q 75 879 77 876 q 73 890 73 882 l 66 1013 q 83 1028 67 1028 l 412 1034 q 427 1018 425 1032 l 439 899 q 435 887 439 889 q 424 884 431 884 l 325 887 l 323 142 l 625 157 l 613 276 q 629 290 613 289 l 739 300 q 767 274 766 300 l 779 5 q 764 -13 778 -11 l 657 -29 m 332 1114 q 304 1097 313 1098 l 237 1091 q 206 1108 226 1091 l -7 1297 q -12 1306 -12 1301 q -7 1316 -12 1311 l 34 1366 q 41 1370 37 1370 q 50 1367 45 1370 l 275 1242 l 477 1365 q 489 1369 485 1369 q 497 1364 493 1369 l 538 1315 q 543 1303 543 1308 q 540 1297 543 1300 l 332 1114 z "},"":{"ha":577,"x_min":49,"x_max":543,"o":"m 404 820 q 414 937 414 890 q 407 1013 414 983 q 391 1064 399 1042 q 375 1103 382 1086 q 368 1131 368 1119 q 377 1154 368 1143 q 401 1172 387 1164 q 471 1187 433 1187 q 543 1080 543 1187 q 483 805 543 930 l 404 820 m 85 920 q 73 935 73 920 l 77 1067 q 81 1078 77 1076 q 94 1082 85 1080 l 314 1076 q 323 1073 321 1076 q 326 1061 326 1069 l 321 953 l 332 142 l 424 149 q 435 136 433 149 l 443 14 q 438 3 441 5 q 427 0 435 1 l 58 4 q 49 20 49 4 l 49 136 q 60 149 49 149 l 188 141 l 188 928 l 85 920 z "},"":{"ha":811,"x_min":56,"x_max":783,"o":"m 657 -29 q 643 -14 646 -29 l 640 19 l 68 -5 q 56 12 56 -5 l 66 130 q 77 142 68 140 l 171 138 l 177 884 l 85 876 q 75 879 77 876 q 73 890 73 882 l 66 1013 q 83 1028 67 1028 l 412 1034 q 427 1018 425 1032 l 439 899 q 435 887 439 889 q 424 884 431 884 l 325 887 l 323 142 l 625 157 l 613 276 q 629 290 613 289 l 739 300 q 767 274 766 300 l 779 5 q 764 -13 778 -11 l 657 -29 m 768 638 q 772 630 768 638 q 780 600 776 621 q 783 562 783 580 q 771 530 783 545 q 740 506 760 515 q 661 486 699 486 q 609 498 623 486 q 586 528 595 510 q 569 594 569 562 q 584 642 569 627 q 621 666 599 657 q 695 680 658 680 q 746 668 732 680 q 768 638 760 656 z "},"":{"ha":581,"x_min":49,"x_max":610,"o":"m 85 920 q 73 935 73 920 l 77 1067 q 81 1078 77 1076 q 94 1082 85 1080 l 314 1076 q 323 1073 321 1076 q 326 1061 326 1069 l 321 953 l 332 142 l 424 149 q 435 136 433 149 l 443 14 q 438 3 441 5 q 427 0 435 1 l 58 4 q 49 20 49 4 l 49 136 q 60 149 49 149 l 188 141 l 188 928 l 85 920 m 595 496 q 599 487 595 496 q 607 458 603 478 q 610 420 610 437 q 598 388 610 402 q 567 363 587 373 q 488 344 526 344 q 436 356 450 344 q 413 385 422 368 q 396 452 396 419 q 411 500 396 485 q 448 524 426 515 q 522 538 485 538 q 573 526 559 538 q 595 496 587 514 z "},"":{"ha":810,"x_min":36,"x_max":779,"o":"m 657 -29 q 643 -14 646 -29 l 640 19 l 68 -5 q 56 12 56 -5 l 66 130 q 77 142 68 140 l 171 138 l 173 384 l 95 347 q 85 345 91 345 q 75 352 79 345 l 37 448 q 36 455 36 452 q 42 462 36 458 l 174 513 l 177 884 l 85 876 q 75 879 77 876 q 73 890 73 882 l 66 1013 q 83 1028 67 1028 l 412 1034 q 427 1018 425 1032 l 439 899 q 435 887 439 889 q 424 884 431 884 l 325 887 l 324 579 l 524 685 q 534 688 529 688 q 544 677 540 688 l 586 581 q 587 572 587 576 q 580 564 587 567 l 323 454 l 323 142 l 625 157 l 613 276 q 629 290 613 289 l 739 300 q 767 274 766 300 l 779 5 q 764 -13 778 -11 l 657 -29 z "},"":{"ha":463,"x_min":43,"x_max":471,"o":"m 85 920 q 73 935 73 920 l 77 1067 q 81 1078 77 1076 q 94 1082 85 1080 l 314 1076 q 323 1073 321 1076 q 326 1061 326 1069 l 321 953 l 325 655 l 415 699 q 426 701 420 701 q 435 691 431 701 l 471 594 q 471 587 471 592 q 465 578 471 581 l 327 528 l 332 142 l 424 149 q 435 136 433 149 l 443 14 q 438 3 441 5 q 427 0 435 1 l 58 4 q 49 20 49 4 l 49 136 q 60 149 49 149 l 188 141 l 188 465 l 102 421 q 92 419 98 419 q 82 427 85 419 l 44 523 q 43 530 43 527 q 49 536 43 533 l 188 593 l 188 928 l 85 920 z "},"":{"ha":1042,"x_min":57,"x_max":998,"o":"m 998 899 q 983 884 998 884 l 897 886 l 895 26 q 879 7 895 8 l 715 -2 q 699 13 706 -2 l 300 898 l 316 156 l 422 163 q 433 150 432 163 l 445 16 q 429 2 444 2 l 100 4 q 88 20 91 4 l 76 134 q 87 146 77 146 l 193 149 l 193 882 l 69 877 q 60 881 62 878 q 57 892 58 884 l 64 1011 q 81 1025 66 1024 l 379 1040 q 404 1021 397 1039 l 789 157 l 771 889 l 666 892 q 656 896 659 892 q 654 907 654 899 l 658 1020 q 674 1034 659 1034 l 977 1036 q 987 1032 985 1035 q 989 1020 989 1029 l 998 899 m 757 1249 q 760 1236 760 1244 q 749 1224 760 1228 l 414 1084 q 404 1082 409 1082 q 397 1088 399 1082 l 370 1151 q 368 1162 368 1158 q 374 1169 368 1166 l 681 1366 q 697 1370 689 1370 q 709 1360 705 1370 l 757 1249 z "},"":{"ha":929,"x_min":81,"x_max":859,"o":"m 537 612 q 340 542 451 612 l 349 136 l 422 144 q 434 132 434 144 l 421 27 q 406 12 418 12 l 123 12 q 113 28 113 12 l 126 132 q 141 146 129 146 l 199 146 l 199 595 l 95 597 q 81 614 81 597 l 94 731 q 110 745 95 743 l 298 773 q 310 758 310 773 l 310 640 q 585 780 450 780 q 769 633 739 780 q 779 542 779 584 q 778 470 779 499 q 776 407 777 441 l 774 336 q 772 262 773 299 l 769 190 q 766 126 768 155 l 844 130 q 859 113 859 130 l 859 14 q 855 3 859 5 q 843 0 851 1 l 646 -15 q 631 0 631 -15 q 633 139 633 74 l 635 252 q 635 342 635 300 l 635 467 q 621 574 635 551 q 587 605 606 597 q 537 612 568 612 m 684 1118 q 687 1107 687 1114 q 682 1095 687 1100 l 368 865 q 360 862 364 862 q 352 866 356 862 l 307 912 q 301 925 301 919 q 304 935 301 930 l 564 1220 q 579 1227 570 1227 q 593 1220 587 1227 l 684 1118 z "},"":{"ha":1042,"x_min":57,"x_max":998,"o":"m 998 899 q 983 884 998 884 l 897 886 l 895 26 q 879 7 895 8 l 715 -2 q 699 13 706 -2 l 300 898 l 316 156 l 422 163 q 433 150 432 163 l 445 16 q 429 2 444 2 l 100 4 q 88 20 91 4 l 76 134 q 87 146 77 146 l 193 149 l 193 882 l 69 877 q 60 881 62 878 q 57 892 58 884 l 64 1011 q 81 1025 66 1024 l 379 1040 q 404 1021 397 1039 l 789 157 l 771 889 l 666 892 q 656 896 659 892 q 654 907 654 899 l 658 1020 q 674 1034 659 1034 l 977 1036 q 987 1032 985 1035 q 989 1020 989 1029 l 998 899 m 524 -366 l 460 -342 q 450 -334 450 -338 q 454 -322 450 -329 q 463 -302 457 -315 q 473 -276 468 -289 q 484 -233 484 -247 q 460 -197 484 -214 q 435 -163 435 -178 q 445 -131 435 -149 q 469 -100 454 -114 q 531 -68 502 -68 q 577 -77 560 -68 q 604 -99 593 -85 q 623 -160 623 -125 q 615 -219 623 -194 q 595 -269 608 -245 q 555 -336 577 -307 q 524 -366 532 -366 z "},"":{"ha":929,"x_min":81,"x_max":859,"o":"m 537 612 q 340 542 451 612 l 349 136 l 422 144 q 434 132 434 144 l 421 27 q 406 12 418 12 l 123 12 q 113 28 113 12 l 126 132 q 141 146 129 146 l 199 146 l 199 595 l 95 597 q 81 614 81 597 l 94 731 q 110 745 95 743 l 298 773 q 310 758 310 773 l 310 640 q 585 780 450 780 q 769 633 739 780 q 779 542 779 584 q 778 470 779 499 q 776 407 777 441 l 774 336 q 772 262 773 299 l 769 190 q 766 126 768 155 l 844 130 q 859 113 859 130 l 859 14 q 855 3 859 5 q 843 0 851 1 l 646 -15 q 631 0 631 -15 q 633 139 633 74 l 635 252 q 635 342 635 300 l 635 467 q 621 574 635 551 q 587 605 606 597 q 537 612 568 612 m 472 -366 l 408 -342 q 398 -334 398 -338 q 401 -322 398 -329 q 410 -302 405 -315 q 420 -276 416 -289 q 431 -233 431 -247 q 408 -197 431 -214 q 383 -163 383 -178 q 393 -131 383 -149 q 416 -100 402 -114 q 479 -68 450 -68 q 525 -77 508 -68 q 551 -99 541 -85 q 570 -160 570 -125 q 563 -219 570 -194 q 544 -269 555 -245 q 503 -336 525 -307 q 472 -366 480 -366 z "},"":{"ha":1042,"x_min":57,"x_max":998,"o":"m 998 899 q 983 884 998 884 l 897 886 l 895 26 q 879 7 895 8 l 715 -2 q 699 13 706 -2 l 300 898 l 316 156 l 422 163 q 433 150 432 163 l 445 16 q 429 2 444 2 l 100 4 q 88 20 91 4 l 76 134 q 87 146 77 146 l 193 149 l 193 882 l 69 877 q 60 881 62 878 q 57 892 58 884 l 64 1011 q 81 1025 66 1024 l 379 1040 q 404 1021 397 1039 l 789 157 l 771 889 l 666 892 q 656 896 659 892 q 654 907 654 899 l 658 1020 q 674 1034 659 1034 l 977 1036 q 987 1032 985 1035 q 989 1020 989 1029 l 998 899 m 576 1114 q 548 1097 557 1098 l 481 1091 q 450 1108 470 1091 l 237 1297 q 233 1306 233 1301 q 237 1316 233 1311 l 278 1366 q 285 1370 281 1370 q 294 1367 289 1370 l 519 1242 l 721 1365 q 733 1369 729 1369 q 741 1364 737 1369 l 782 1315 q 787 1303 787 1308 q 784 1297 787 1300 l 576 1114 z "},"":{"ha":929,"x_min":81,"x_max":859,"o":"m 537 612 q 340 542 451 612 l 349 136 l 422 144 q 434 132 434 144 l 421 27 q 406 12 418 12 l 123 12 q 113 28 113 12 l 126 132 q 141 146 129 146 l 199 146 l 199 595 l 95 597 q 81 614 81 597 l 94 731 q 110 745 95 743 l 298 773 q 310 758 310 773 l 310 640 q 585 780 450 780 q 769 633 739 780 q 779 542 779 584 q 778 470 779 499 q 776 407 777 441 l 774 336 q 772 262 773 299 l 769 190 q 766 126 768 155 l 844 130 q 859 113 859 130 l 859 14 q 855 3 859 5 q 843 0 851 1 l 646 -15 q 631 0 631 -15 q 633 139 633 74 l 635 252 q 635 342 635 300 l 635 467 q 621 574 635 551 q 587 605 606 597 q 537 612 568 612 m 524 879 q 496 862 509 864 l 427 855 q 395 876 412 855 l 193 1134 q 190 1145 190 1139 q 195 1157 190 1152 l 241 1203 q 250 1207 245 1207 q 257 1204 254 1207 l 467 1015 l 670 1202 q 680 1206 674 1206 q 690 1201 685 1206 l 738 1152 q 743 1143 743 1147 q 740 1135 743 1138 l 524 879 z "},"":{"ha":1042,"x_min":48,"x_max":989,"o":"m 498 -359 q 470 -333 470 -359 l 492 -104 q 507 -87 494 -89 l 601 -77 q 615 -93 615 -77 l 616 -193 q 624 -194 620 -194 l 633 -194 q 727 -152 697 -194 q 765 1 758 -109 l 292 898 l 307 156 l 411 163 q 425 150 422 163 l 436 16 q 420 2 435 2 l 92 4 q 79 20 82 4 l 67 134 q 78 146 68 146 l 184 149 l 184 882 l 60 877 q 51 881 53 878 q 48 892 50 884 l 56 1011 q 72 1025 57 1024 l 370 1040 q 395 1021 387 1040 l 777 269 l 762 889 l 657 892 q 648 896 650 892 q 645 907 646 899 l 649 1020 q 665 1034 650 1034 l 968 1036 q 978 1032 976 1035 q 981 1020 980 1029 l 989 899 q 974 884 989 884 l 888 886 l 886 20 q 838 -220 886 -142 q 650 -311 782 -311 q 617 -310 633 -311 l 618 -337 q 602 -349 618 -348 l 498 -359 z "},"":{"ha":929,"x_min":81,"x_max":812,"o":"m 551 612 q 341 541 457 612 l 349 136 l 422 144 q 434 132 434 144 l 421 27 q 406 12 418 12 l 123 12 q 113 28 113 12 l 126 132 q 141 146 129 146 l 199 146 l 199 595 l 95 597 q 81 614 81 597 l 94 731 q 110 745 95 743 l 298 773 q 310 758 310 773 l 310 640 q 519 768 404 733 q 598 780 559 780 q 812 519 812 780 q 808 341 812 427 q 803 216 804 256 q 800 31 800 115 q 788 -114 800 -54 q 747 -216 777 -174 q 541 -304 686 -304 q 525 -288 527 -304 l 505 -177 q 520 -163 505 -163 q 616 -137 581 -163 q 654 -60 650 -111 q 660 41 657 -9 q 663 143 662 92 q 666 247 665 195 q 667 341 667 298 q 669 468 669 428 q 662 535 669 507 q 641 581 655 563 q 551 612 614 612 z "},"":{"ha":926,"x_min":71,"x_max":854,"o":"m 854 509 q 474 -7 854 -7 q 173 124 275 -7 q 71 509 71 254 q 286 1009 71 902 q 455 1044 358 1044 q 626 1015 551 1044 q 751 920 700 985 q 854 509 854 789 m 701 518 q 685 698 701 623 q 637 815 669 772 q 560 874 606 858 q 453 890 515 890 q 347 867 391 890 q 274 797 302 844 q 223 512 223 709 q 287 225 223 311 q 479 147 346 147 q 652 233 600 147 q 701 518 701 316 m 682 1337 q 692 1324 692 1335 l 680 1208 q 676 1197 679 1200 q 664 1194 673 1194 l 241 1198 q 228 1215 228 1198 l 235 1317 q 248 1330 235 1330 l 682 1337 z "},"":{"ha":810,"x_min":83,"x_max":726,"o":"m 83 381 q 103 574 83 497 q 160 697 122 651 q 390 781 231 781 q 552 758 501 781 q 633 707 604 736 q 684 634 663 679 q 726 404 726 543 q 706 190 726 265 q 648 69 687 115 q 416 -14 576 -14 q 171 68 248 -14 q 83 381 83 160 m 545 170 q 555 184 545 170 q 576 246 566 197 q 586 366 586 295 q 578 479 586 436 q 558 552 571 523 q 526 597 545 581 q 486 622 508 614 q 400 634 454 634 q 315 626 347 634 q 262 591 283 618 q 222 384 222 540 q 341 134 222 162 q 420 125 378 125 q 494 134 463 125 q 545 170 525 143 m 624 1093 q 635 1080 635 1091 l 623 964 q 618 953 621 956 q 606 950 615 950 l 180 954 q 170 970 170 954 l 177 1073 q 188 1086 178 1086 l 624 1093 z "},"":{"ha":926,"x_min":71,"x_max":854,"o":"m 854 509 q 474 -7 854 -7 q 173 124 275 -7 q 71 509 71 254 q 286 1009 71 902 q 455 1044 358 1044 q 626 1015 551 1044 q 751 920 700 985 q 854 509 854 789 m 701 518 q 685 698 701 623 q 637 815 669 772 q 560 874 606 858 q 453 890 515 890 q 347 867 391 890 q 274 797 302 844 q 223 512 223 709 q 287 225 223 311 q 479 147 346 147 q 652 233 600 147 q 701 518 701 316 m 703 1360 q 720 1345 720 1360 q 655 1182 720 1249 q 473 1111 587 1111 q 283 1173 357 1111 q 206 1345 206 1236 q 222 1361 206 1361 l 319 1370 q 334 1348 332 1370 q 347 1305 336 1326 q 376 1267 358 1283 q 469 1235 414 1235 q 592 1347 572 1235 q 606 1363 595 1363 l 703 1360 z "},"":{"ha":810,"x_min":83,"x_max":726,"o":"m 83 381 q 103 574 83 497 q 160 697 122 651 q 390 781 231 781 q 552 758 501 781 q 633 707 604 736 q 684 634 663 679 q 726 404 726 543 q 706 190 726 265 q 648 69 687 115 q 416 -14 576 -14 q 171 68 248 -14 q 83 381 83 160 m 545 170 q 555 184 545 170 q 576 246 566 197 q 586 366 586 295 q 578 479 586 436 q 558 552 571 523 q 526 597 545 581 q 486 622 508 614 q 400 634 454 634 q 315 626 347 634 q 262 591 283 618 q 222 384 222 540 q 341 134 222 162 q 420 125 378 125 q 494 134 463 125 q 545 170 525 143 m 652 1152 q 668 1136 668 1152 q 604 973 668 1040 q 422 902 535 902 q 231 964 306 902 q 155 1137 155 1027 q 171 1152 155 1151 l 268 1161 q 282 1139 281 1161 q 295 1096 284 1118 q 324 1059 307 1074 q 417 1026 362 1026 q 541 1138 520 1026 q 555 1154 543 1154 l 652 1152 z "},"":{"ha":926,"x_min":71,"x_max":854,"o":"m 854 509 q 474 -7 854 -7 q 173 124 275 -7 q 71 509 71 254 q 286 1009 71 902 q 455 1044 358 1044 q 626 1015 551 1044 q 751 920 700 985 q 854 509 854 789 m 701 518 q 685 698 701 623 q 637 815 669 772 q 560 874 606 858 q 453 890 515 890 q 347 867 391 890 q 274 797 302 844 q 223 512 223 709 q 287 225 223 311 q 479 147 346 147 q 652 233 600 147 q 701 518 701 316 m 836 1302 q 840 1292 840 1299 q 834 1279 840 1285 l 647 1097 q 640 1094 644 1094 q 629 1097 635 1094 l 570 1128 q 564 1139 564 1131 q 567 1152 564 1147 l 703 1362 q 714 1369 707 1369 q 732 1363 722 1369 l 836 1302 m 499 1297 q 505 1288 505 1294 q 498 1274 505 1282 l 324 1099 q 315 1096 321 1096 q 306 1098 310 1096 l 244 1130 q 238 1140 238 1133 q 241 1153 238 1147 l 370 1362 q 382 1370 374 1370 q 400 1364 391 1370 l 499 1297 z "},"":{"ha":810,"x_min":83,"x_max":795,"o":"m 83 381 q 103 574 83 497 q 160 697 122 651 q 390 781 231 781 q 552 758 501 781 q 633 707 604 736 q 684 634 663 679 q 726 404 726 543 q 706 190 726 265 q 648 69 687 115 q 416 -14 576 -14 q 171 68 248 -14 q 83 381 83 160 m 545 170 q 555 184 545 170 q 576 246 566 197 q 586 366 586 295 q 578 479 586 436 q 558 552 571 523 q 526 597 545 581 q 486 622 508 614 q 400 634 454 634 q 315 626 347 634 q 262 591 283 618 q 222 384 222 540 q 341 134 222 162 q 420 125 378 125 q 494 134 463 125 q 545 170 525 143 m 791 1112 q 795 1100 795 1107 q 789 1088 795 1093 l 551 872 q 544 869 549 869 q 535 873 539 869 l 484 920 q 477 932 477 926 q 481 943 477 937 l 676 1193 q 691 1200 682 1200 q 705 1193 699 1200 l 791 1112 m 458 1126 q 462 1116 462 1123 q 456 1103 462 1109 l 232 879 q 226 876 229 876 q 221 878 223 876 q 216 880 218 879 l 162 920 q 156 931 156 924 q 159 943 156 937 l 340 1206 q 351 1213 345 1213 q 369 1206 361 1213 l 458 1126 z "},"":{"ha":1267,"x_min":72,"x_max":1225,"o":"m 1044 598 q 1063 583 1061 598 l 1054 469 q 1038 453 1053 453 l 776 448 l 761 138 l 1057 150 l 1054 239 q 1082 266 1055 263 l 1190 276 q 1208 260 1207 275 l 1225 -14 q 1210 -32 1223 -31 l 1077 -41 q 1062 -23 1062 -39 l 1061 20 l 566 15 q 425 -8 509 -8 q 274 28 341 -8 q 163 131 208 64 q 72 509 72 266 q 287 1009 72 902 q 447 1044 359 1044 q 593 1016 535 1044 l 1150 1053 q 1171 1035 1171 1053 l 1157 801 q 1143 785 1156 787 l 1032 776 q 1021 780 1023 776 q 1018 793 1019 785 l 1021 909 l 755 894 l 777 577 l 1044 598 m 604 223 q 616 245 604 223 q 638 337 628 267 q 648 515 648 406 q 634 699 648 623 q 596 819 621 774 q 450 897 552 897 q 272 800 325 897 q 224 512 224 713 q 344 161 224 224 q 443 139 385 139 q 541 159 501 139 q 604 223 581 180 z "},"":{"ha":1276,"x_min":66,"x_max":1213,"o":"m 648 662 q 935 782 736 782 q 1118 720 1061 782 q 1175 532 1175 659 q 1145 404 1175 449 q 1120 372 1136 390 q 1059 340 1103 353 q 956 319 1014 326 q 712 308 867 308 q 828 125 724 145 q 885 119 861 119 q 930 120 910 119 q 974 123 950 121 q 1066 134 1040 129 l 1068 169 q 1072 180 1069 177 q 1083 184 1075 182 l 1181 206 q 1198 193 1197 206 l 1213 -17 q 1183 -47 1213 -43 l 1070 -60 q 1055 -45 1055 -60 l 1058 4 q 837 -18 971 -18 q 635 79 702 -18 q 401 -14 559 -14 q 155 68 233 -14 q 66 380 66 161 q 144 697 66 605 q 376 781 216 781 q 520 761 471 781 q 598 718 570 741 q 648 662 626 695 m 533 170 q 544 184 533 170 q 565 246 554 197 q 575 366 575 295 q 567 479 575 436 q 546 552 559 523 q 514 597 532 581 q 473 622 495 614 q 386 634 440 634 q 300 626 332 634 q 245 591 267 618 q 204 384 204 540 q 327 134 204 163 q 406 125 363 125 q 480 134 449 125 q 533 170 512 143 m 1016 484 q 1020 533 1020 505 q 1015 583 1020 562 q 997 621 1010 605 q 911 653 971 653 q 758 595 796 653 q 711 408 716 533 q 954 430 866 408 q 1016 484 1009 444 z "},"":{"ha":926,"x_min":47,"x_max":920,"o":"m 422 9 q 406 -5 420 -5 l 64 -3 q 52 14 52 -3 l 66 147 q 77 160 68 158 l 163 154 l 163 886 q 93 882 113 882 q 67 887 73 882 q 61 901 62 892 l 47 1013 q 64 1034 49 1031 q 466 1055 267 1055 q 811 878 743 1055 q 835 743 835 817 q 818 619 835 669 q 769 533 800 569 q 599 440 707 461 l 777 159 l 897 170 q 919 146 919 168 l 920 40 q 895 3 920 4 l 702 -2 q 681 12 688 -2 l 452 433 q 313 440 374 434 l 315 149 l 406 149 q 417 136 417 149 l 422 9 m 492 912 q 309 899 437 912 l 311 562 q 434 558 370 558 q 539 567 498 558 q 612 597 581 576 q 677 733 677 641 q 631 869 677 826 q 492 912 585 912 m 722 1249 q 724 1236 724 1244 q 714 1224 724 1228 l 379 1084 q 369 1082 374 1082 q 361 1088 364 1082 l 335 1151 q 332 1162 332 1158 q 338 1169 332 1166 l 646 1366 q 662 1370 654 1370 q 674 1360 670 1370 l 722 1249 z "},"":{"ha":694,"x_min":50,"x_max":639,"o":"m 92 -8 q 81 8 81 -8 l 81 125 q 96 140 81 140 l 176 140 l 176 599 l 79 591 q 65 607 68 591 l 50 751 q 66 766 52 764 l 275 780 q 287 764 287 780 l 277 652 q 502 765 353 737 q 588 774 547 774 q 631 752 629 774 l 639 504 q 629 490 639 492 l 501 481 q 488 484 493 481 q 484 498 484 486 l 484 618 q 328 583 395 610 l 321 135 l 439 144 q 450 132 450 144 l 458 20 q 443 5 456 7 l 92 -8 m 562 1118 q 565 1107 565 1114 q 559 1095 565 1100 l 246 865 q 238 862 242 862 q 230 866 234 862 l 184 912 q 179 925 179 919 q 182 935 179 930 l 442 1220 q 457 1227 448 1227 q 471 1220 465 1227 l 562 1118 z "},"":{"ha":926,"x_min":47,"x_max":920,"o":"m 422 9 q 406 -5 420 -5 l 64 -3 q 52 14 52 -3 l 66 147 q 77 160 68 158 l 163 154 l 163 886 q 93 882 113 882 q 67 887 73 882 q 61 901 62 892 l 47 1013 q 64 1034 49 1031 q 466 1055 267 1055 q 811 878 743 1055 q 835 743 835 817 q 818 619 835 669 q 769 533 800 569 q 599 440 707 461 l 777 159 l 897 170 q 919 146 919 168 l 920 40 q 895 3 920 4 l 702 -2 q 681 12 688 -2 l 452 433 q 313 440 374 434 l 315 149 l 406 149 q 417 136 417 149 l 422 9 m 492 912 q 309 899 437 912 l 311 562 q 434 558 370 558 q 539 567 498 558 q 612 597 581 576 q 677 733 677 641 q 631 869 677 826 q 492 912 585 912 m 489 -366 l 425 -342 q 415 -334 415 -338 q 418 -322 415 -329 q 427 -302 422 -315 q 437 -276 433 -289 q 448 -233 448 -247 q 425 -197 448 -214 q 400 -163 400 -178 q 410 -131 400 -149 q 434 -100 419 -114 q 496 -68 467 -68 q 542 -77 525 -68 q 568 -99 558 -85 q 587 -160 587 -125 q 580 -219 587 -194 q 560 -269 572 -245 q 519 -336 542 -307 q 489 -366 497 -366 z "},"":{"ha":694,"x_min":50,"x_max":639,"o":"m 92 -8 q 81 8 81 -8 l 81 125 q 96 140 81 140 l 176 140 l 176 599 l 79 591 q 65 607 68 591 l 50 751 q 66 766 52 764 l 275 780 q 287 764 287 780 l 277 652 q 502 765 353 737 q 588 774 547 774 q 631 752 629 774 l 639 504 q 629 490 639 492 l 501 481 q 488 484 493 481 q 484 498 484 486 l 484 618 q 328 583 395 610 l 321 135 l 439 144 q 450 132 450 144 l 458 20 q 443 5 456 7 l 92 -8 m 282 -366 l 218 -342 q 208 -334 208 -338 q 212 -322 208 -329 q 220 -302 215 -315 q 231 -276 226 -289 q 241 -233 241 -247 q 218 -197 241 -214 q 193 -163 193 -178 q 203 -131 193 -149 q 227 -100 212 -114 q 289 -68 260 -68 q 335 -77 318 -68 q 361 -99 351 -85 q 380 -160 380 -125 q 373 -219 380 -194 q 354 -269 366 -245 q 313 -336 335 -307 q 282 -366 290 -366 z "},"":{"ha":926,"x_min":47,"x_max":920,"o":"m 422 9 q 406 -5 420 -5 l 64 -3 q 52 14 52 -3 l 66 147 q 77 160 68 158 l 163 154 l 163 886 q 93 882 113 882 q 67 887 73 882 q 61 901 62 892 l 47 1013 q 64 1034 49 1031 q 466 1055 267 1055 q 811 878 743 1055 q 835 743 835 817 q 818 619 835 669 q 769 533 800 569 q 599 440 707 461 l 777 159 l 897 170 q 919 146 919 168 l 920 40 q 895 3 920 4 l 702 -2 q 681 12 688 -2 l 452 433 q 313 440 374 434 l 315 149 l 406 149 q 417 136 417 149 l 422 9 m 492 912 q 309 899 437 912 l 311 562 q 434 558 370 558 q 539 567 498 558 q 612 597 581 576 q 677 733 677 641 q 631 869 677 826 q 492 912 585 912 m 541 1114 q 513 1097 522 1098 l 446 1091 q 415 1108 435 1091 l 202 1297 q 197 1306 197 1301 q 201 1316 197 1311 l 243 1366 q 250 1370 245 1370 q 259 1367 254 1370 l 484 1242 l 686 1365 q 698 1369 694 1369 q 706 1364 702 1369 l 747 1315 q 752 1303 752 1308 q 749 1297 752 1300 l 541 1114 z "},"":{"ha":694,"x_min":50,"x_max":639,"o":"m 92 -8 q 81 8 81 -8 l 81 125 q 96 140 81 140 l 176 140 l 176 599 l 79 591 q 65 607 68 591 l 50 751 q 66 766 52 764 l 275 780 q 287 764 287 780 l 277 652 q 502 765 353 737 q 588 774 547 774 q 631 752 629 774 l 639 504 q 629 490 639 492 l 501 481 q 488 484 493 481 q 484 498 484 486 l 484 618 q 328 583 395 610 l 321 135 l 439 144 q 450 132 450 144 l 458 20 q 443 5 456 7 l 92 -8 m 402 879 q 374 862 387 864 l 305 855 q 273 876 290 855 l 71 1134 q 68 1145 68 1139 q 73 1157 68 1152 l 119 1203 q 127 1207 123 1207 q 135 1204 132 1207 l 345 1015 l 548 1202 q 557 1206 552 1206 q 568 1201 563 1206 l 616 1152 q 621 1143 621 1147 q 618 1135 621 1138 l 402 879 z "},"":{"ha":811,"x_min":64,"x_max":768,"o":"m 595 22 q 452 3 538 3 q 245 24 365 3 l 250 -30 q 235 -42 250 -42 l 118 -45 q 90 -19 92 -44 l 64 243 q 80 258 64 257 l 213 271 q 227 255 226 271 l 236 145 q 431 135 334 135 q 566 168 528 135 q 605 267 605 201 q 559 365 605 327 q 498 405 536 385 l 312 495 q 177 570 214 542 q 121 625 140 598 q 81 754 81 680 q 104 881 81 829 q 170 972 127 934 q 393 1053 258 1053 q 602 1022 490 1053 q 711 1048 689 1048 q 734 1030 733 1048 l 721 749 q 710 733 720 733 l 596 737 q 585 742 587 738 q 582 755 583 746 l 576 904 q 442 923 496 923 q 258 848 307 923 q 241 784 241 821 q 258 722 241 747 q 309 676 276 698 q 391 633 342 655 l 502 583 q 711 453 659 510 q 768 280 768 391 q 595 22 768 80 m 654 1249 q 656 1236 656 1244 q 646 1224 656 1228 l 311 1084 q 301 1082 306 1082 q 294 1088 296 1082 l 267 1151 q 264 1162 264 1158 q 271 1169 264 1166 l 578 1366 q 594 1370 586 1370 q 606 1360 602 1370 l 654 1249 z "},"":{"ha":694,"x_min":59,"x_max":656,"o":"m 592 578 q 334 641 409 641 q 224 601 252 641 q 212 562 212 585 q 218 522 212 539 q 237 492 223 505 q 347 452 266 465 q 489 424 429 439 q 587 385 550 409 q 640 324 624 361 q 656 230 656 288 q 639 129 656 173 q 591 54 622 85 q 416 -6 528 -6 q 239 13 339 -6 l 251 -43 q 235 -56 251 -54 l 119 -66 q 90 -39 93 -66 l 71 162 q 87 177 71 174 l 193 196 q 208 180 205 196 l 216 136 q 378 120 314 120 q 473 147 441 120 q 504 218 504 174 q 471 277 504 259 q 356 306 441 293 q 216 335 271 319 q 126 378 161 351 q 59 548 59 428 q 122 715 59 652 q 310 781 189 781 q 474 733 381 781 l 461 787 q 475 804 461 803 l 610 815 q 621 800 621 815 l 606 593 q 592 578 605 578 m 579 1118 q 583 1107 583 1114 q 577 1095 583 1100 l 264 865 q 256 862 260 862 q 248 866 252 862 l 202 912 q 197 925 197 919 q 200 935 197 930 l 460 1220 q 474 1227 466 1227 q 489 1220 483 1227 l 579 1118 z "},"":{"ha":811,"x_min":64,"x_max":768,"o":"m 595 22 q 452 3 538 3 q 245 24 365 3 l 250 -30 q 235 -42 250 -42 l 118 -45 q 90 -19 92 -44 l 64 243 q 80 258 64 257 l 213 271 q 227 255 226 271 l 236 145 q 431 135 334 135 q 566 168 528 135 q 605 267 605 201 q 559 365 605 327 q 498 405 536 385 l 312 495 q 177 570 214 542 q 121 625 140 598 q 81 754 81 680 q 104 881 81 829 q 170 972 127 934 q 393 1053 258 1053 q 602 1022 490 1053 q 711 1048 689 1048 q 734 1030 733 1048 l 721 749 q 710 733 720 733 l 596 737 q 585 742 587 738 q 582 755 583 746 l 576 904 q 442 923 496 923 q 258 848 307 923 q 241 784 241 821 q 258 722 241 747 q 309 676 276 698 q 391 633 342 655 l 502 583 q 711 453 659 510 q 768 280 768 391 q 595 22 768 80 m 356 1346 q 387 1363 376 1362 l 451 1370 q 482 1352 462 1370 l 687 1182 q 692 1172 692 1177 q 688 1162 692 1167 l 646 1113 q 639 1109 643 1109 q 630 1112 635 1109 l 413 1219 l 212 1115 q 205 1114 209 1114 q 197 1119 201 1114 l 155 1171 q 151 1179 151 1176 q 154 1185 151 1183 l 356 1346 z "},"":{"ha":694,"x_min":59,"x_max":656,"o":"m 592 578 q 334 641 409 641 q 224 601 252 641 q 212 562 212 585 q 218 522 212 539 q 237 492 223 505 q 347 452 266 465 q 489 424 429 439 q 587 385 550 409 q 640 324 624 361 q 656 230 656 288 q 639 129 656 173 q 591 54 622 85 q 416 -6 528 -6 q 239 13 339 -6 l 251 -43 q 235 -56 251 -54 l 119 -66 q 90 -39 93 -66 l 71 162 q 87 177 71 174 l 193 196 q 208 180 205 196 l 216 136 q 378 120 314 120 q 473 147 441 120 q 504 218 504 174 q 471 277 504 259 q 356 306 441 293 q 216 335 271 319 q 126 378 161 351 q 59 548 59 428 q 122 715 59 652 q 310 781 189 781 q 474 733 381 781 l 461 787 q 475 804 461 803 l 610 815 q 621 800 621 815 l 606 593 q 592 578 605 578 m 304 1183 q 333 1200 319 1198 l 401 1207 q 433 1187 417 1207 l 635 928 q 639 917 639 924 q 633 905 639 911 l 588 859 q 579 855 584 855 q 572 858 574 855 l 361 1048 l 159 860 q 149 856 153 856 q 138 861 144 856 l 91 910 q 85 920 85 916 q 89 928 85 924 l 304 1183 z "},"":{"ha":811,"x_min":64,"x_max":768,"o":"m 454 -254 q 511 -207 511 -254 q 498 -173 511 -187 q 467 -159 486 -159 q 439 -160 448 -159 q 423 -161 431 -161 q 401 -164 404 -164 q 390 -156 397 -164 q 373 -136 382 -147 q 351 -100 351 -110 l 378 7 q 245 24 304 14 l 250 -30 q 235 -42 250 -42 l 118 -45 q 90 -19 92 -44 l 64 243 q 80 258 64 257 l 213 271 q 227 255 226 271 l 236 145 q 431 135 334 135 q 566 168 528 135 q 605 267 605 201 q 559 365 605 327 q 498 405 536 385 l 312 495 q 177 570 214 542 q 121 625 140 598 q 81 754 81 680 q 104 881 81 829 q 170 972 127 934 q 393 1053 258 1053 q 602 1022 490 1053 q 711 1048 689 1048 q 734 1030 733 1048 l 721 749 q 710 733 720 733 l 596 737 q 585 742 587 738 q 582 755 583 746 l 576 904 q 442 923 496 923 q 258 848 307 923 q 241 784 241 821 q 258 722 241 747 q 309 676 276 698 q 391 633 342 655 l 502 583 q 711 453 659 510 q 768 280 768 391 q 595 22 768 80 q 463 3 538 3 l 460 3 l 448 -76 q 508 -70 476 -70 q 562 -81 540 -70 q 600 -110 585 -92 q 630 -217 630 -147 q 463 -354 630 -354 q 333 -332 385 -354 q 319 -319 319 -326 l 333 -247 q 346 -235 335 -235 q 370 -240 351 -235 q 454 -254 424 -254 z "}}}
